SplineFontDB: 3.2
FontName: CancunNotation
FullName: CancunNotation Regular
FamilyName: CancunNotation
Weight: Regular
Copyright: Text: OFL reserved named Roboto\n\nCopyright 2020 The Roboto Serif Project Authors (https://github.com/googlefonts/RobotoSerif)\n\nThis Font Software is licensed under the SIL Open Font License, Version 1.1.\nThis license is available with a FAQ at http://scripts.sil.org/OFL\n\nChess figurines (A,B,K,M,N,P,Q,R):\n\nDonated to the public domain 2026 by Sam Trenholme\n\nOriginal font drawn from figures in a book 1997-1998 by Marroquin\n\nFont converted in to PNG then redrawn using Inkscape's automated \ntracing tool as well as Fontforge\n\nNo vector information from the original font is in this font; this is a \nfreshly drawn font.\n\nSince in most jurisdictions, fonts cannot be copyrighted, or the\nterm is 25 years or less, this version does not have copyright\n\nThe original font was "freeware"; the Chess figurines this font is public domain.
Version: 1.008; ttfautohint (v1.8.4)
ItalicAngle: 0
UnderlinePosition: -200
UnderlineWidth: 100
Ascent: 800
Descent: 200
InvalidEm: 0
sfntRevision: 0x0001020c
LayerCount: 2
Layer: 0 1 "Back" 1
Layer: 1 1 "Fore" 0
XUID: [1021 1018 -1064020043 1520]
StyleMap: 0x0040
FSType: 0
OS2Version: 4
OS2_WeightWidthSlopeOnly: 0
OS2_UseTypoMetrics: 1
CreationTime: 1586430965
ModificationTime: 1771738496
PfmFamily: 81
TTFWeight: 400
TTFWidth: 4
LineGap: 0
VLineGap: 0
Panose: 0 0 0 0 0 0 0 0 0 0
OS2TypoAscent: 927
OS2TypoAOffset: 0
OS2TypoDescent: -244
OS2TypoDOffset: 0
OS2TypoLinegap: 0
OS2WinAscent: 1048
OS2WinAOffset: 0
OS2WinDescent: 251
OS2WinDOffset: 0
HheadAscent: 927
HheadAOffset: 0
HheadDescent: -244
HheadDOffset: 0
OS2SubXSize: 650
OS2SubYSize: 600
OS2SubXOff: 0
OS2SubYOff: 75
OS2SupXSize: 650
OS2SupYSize: 600
OS2SupXOff: 0
OS2SupYOff: 350
OS2StrikeYSize: 100
OS2StrikeYPos: 311
OS2CapHeight: 710
OS2XHeight: 518
OS2Vendor: 'COMM'
OS2CodePages: 20000193.00000000

StartChar: .notdef
Encoding: 65536 -1 0
Width: 400
GlyphClass: 1
Flags: W
LayerCount: 2
Fore
SplineSet
0 0 m 1,0,-1
 0 700 l 1,1,-1
 400 700 l 1,2,-1
 400 0 l 1,3,-1
 0 0 l 1,0,-1
50 650 m 1,4,-1
 50 50 l 1,5,-1
 350 50 l 1,6,-1
 350 650 l 1,7,-1
 50 650 l 1,4,-1
EndSplineSet
EndChar

StartChar: exclam
Encoding: 33 33 4
Width: 326
GlyphClass: 1
Flags: W
LayerCount: 2
Fore
SplineSet
224 755 m 1,0,-1
 102 755 l 1,1,2
 102 700 102 700 103.5 653.5 c 128,-1,3
 105 607 105 607 107.5 563.5 c 128,-1,4
 110 520 110 520 113 474.5 c 128,-1,5
 116 429 116 429 118 375.5 c 128,-1,6
 120 322 120 322 120 257 c 1,7,-1
 206 257 l 1,8,9
 206 322 206 322 207.5 375.5 c 128,-1,10
 209 429 209 429 212 475 c 128,-1,11
 215 521 215 521 218 564.5 c 128,-1,12
 221 608 221 608 222.5 654 c 128,-1,13
 224 700 224 700 224 755 c 1,0,-1
162 -13 m 0,14,15
 122 -13 122 -13 96 11 c 128,-1,16
 70 35 70 35 70 74 c 256,17,18
 70 113 70 113 96 136.5 c 128,-1,19
 122 160 122 160 162 160 c 0,20,21
 203 160 203 160 229 136.5 c 128,-1,22
 255 113 255 113 255 74 c 256,23,24
 255 35 255 35 229 11 c 128,-1,25
 203 -13 203 -13 162 -13 c 0,14,15
EndSplineSet
EndChar

StartChar: numbersign
Encoding: 35 35 6
Width: 752
GlyphClass: 1
Flags: W
LayerCount: 2
Fore
SplineSet
152 0 m 1,0,-1
 301 780 l 1,1,-1
 374 780 l 1,2,-1
 225 0 l 1,3,-1
 152 0 l 1,0,-1
57 222 m 1,4,-1
 57 298 l 1,5,-1
 644 298 l 1,6,-1
 644 222 l 1,7,-1
 57 222 l 1,4,-1
107 502 m 1,8,-1
 107 578 l 1,9,-1
 695 578 l 1,10,-1
 695 502 l 1,11,-1
 107 502 l 1,8,-1
375 0 m 1,12,-1
 522 780 l 1,13,-1
 596 780 l 1,14,-1
 448 0 l 1,15,-1
 375 0 l 1,12,-1
EndSplineSet
EndChar

StartChar: dollar
Encoding: 36 36 7
Width: 560
GlyphClass: 1
Flags: W
LayerCount: 2
Fore
SplineSet
235 820 m 1,0,-1
 332 820 l 1,1,-1
 332 688 l 1,2,-1
 317 677 l 1,3,-1
 317 36 l 1,4,-1
 332 19 l 1,5,-1
 332 -150 l 1,6,-1
 235 -150 l 1,7,-1
 235 20 l 1,8,-1
 250 34 l 1,9,-1
 250 675 l 1,10,-1
 235 684 l 1,11,-1
 235 820 l 1,0,-1
281 66 m 0,12,13
 341 66 341 66 379 80 c 128,-1,14
 417 94 417 94 435 124 c 128,-1,15
 453 154 453 154 453 201 c 0,16,17
 453 240 453 240 437.5 262 c 128,-1,18
 422 284 422 284 395.5 296 c 128,-1,19
 369 308 369 308 335 315 c 128,-1,20
 301 322 301 322 264 330 c 0,21,22
 217 341 217 341 178 352 c 128,-1,23
 139 363 139 363 110 382.5 c 128,-1,24
 81 402 81 402 65.5 437 c 128,-1,25
 50 472 50 472 50 529 c 0,26,27
 50 584 50 584 78 623.5 c 128,-1,28
 106 663 106 663 158.5 684 c 128,-1,29
 211 705 211 705 285 705 c 0,30,31
 341 705 341 705 386.5 699 c 128,-1,32
 432 693 432 693 462.5 685 c 128,-1,33
 493 677 493 677 504 671 c 1,34,-1
 504 495 l 1,35,-1
 415 495 l 1,36,-1
 415 646 l 1,37,38
 425 646 425 646 434.5 641.5 c 128,-1,39
 444 637 444 637 451.5 629.5 c 128,-1,40
 459 622 459 622 463.5 616 c 128,-1,41
 468 610 468 610 469 608 c 1,42,43
 452 616 452 616 422 622.5 c 128,-1,44
 392 629 392 629 356 633 c 128,-1,45
 320 637 320 637 285 637 c 0,46,47
 232 637 232 637 197.5 625.5 c 128,-1,48
 163 614 163 614 147 590.5 c 128,-1,49
 131 567 131 567 131 529 c 0,50,51
 131 492 131 492 143.5 471 c 128,-1,52
 156 450 156 450 180 438 c 128,-1,53
 204 426 204 426 239 418.5 c 128,-1,54
 274 411 274 411 318 400 c 0,55,56
 359 390 359 390 398.5 379.5 c 128,-1,57
 438 369 438 369 469.5 350 c 128,-1,58
 501 331 501 331 520 295 c 128,-1,59
 539 259 539 259 539 199 c 0,60,61
 539 135 539 135 508.5 89.5 c 128,-1,62
 478 44 478 44 420.5 20.5 c 128,-1,63
 363 -3 363 -3 281 -3 c 0,64,65
 220 -3 220 -3 170.5 4.5 c 128,-1,66
 121 12 121 12 88 21.5 c 128,-1,67
 55 31 55 31 42 37 c 1,68,-1
 42 216 l 1,69,-1
 131 216 l 1,70,-1
 131 62 l 1,71,72
 121 62 121 62 111.5 67 c 128,-1,73
 102 72 102 72 94.5 79.5 c 128,-1,74
 87 87 87 87 82.5 93 c 128,-1,75
 78 99 78 99 77 101 c 1,76,77
 97 93 97 93 129.5 85 c 128,-1,78
 162 77 162 77 202 71.5 c 128,-1,79
 242 66 242 66 281 66 c 0,12,13
EndSplineSet
EndChar

StartChar: percent
Encoding: 37 37 8
Width: 752
GlyphClass: 1
Flags: W
LayerCount: 2
Fore
SplineSet
195 363 m 256,0,1
 151 363 151 363 118 384.5 c 128,-1,2
 85 406 85 406 67.5 449 c 128,-1,3
 50 492 50 492 50 556 c 0,4,5
 50 621 50 621 67.5 664 c 128,-1,6
 85 707 85 707 118 728.5 c 128,-1,7
 151 750 151 750 195 750 c 256,8,9
 239 750 239 750 272 728.5 c 128,-1,10
 305 707 305 707 323.5 664 c 128,-1,11
 342 621 342 621 342 556 c 0,12,13
 342 492 342 492 323.5 449 c 128,-1,14
 305 406 305 406 272 384.5 c 128,-1,15
 239 363 239 363 195 363 c 256,0,1
195 427 m 0,16,17
 220 427 220 427 232 439.5 c 128,-1,18
 244 452 244 452 247.5 480 c 128,-1,19
 251 508 251 508 251 556 c 256,20,21
 251 604 251 604 247.5 632 c 128,-1,22
 244 660 244 660 232 673 c 128,-1,23
 220 686 220 686 195 686 c 0,24,25
 171 686 171 686 159 673 c 128,-1,26
 147 660 147 660 143 632 c 128,-1,27
 139 604 139 604 139 556 c 256,28,29
 139 508 139 508 143 480 c 128,-1,30
 147 452 147 452 159 439.5 c 128,-1,31
 171 427 171 427 195 427 c 0,16,17
555 -16 m 0,32,33
 512 -16 512 -16 479 5.5 c 128,-1,34
 446 27 446 27 428 70 c 128,-1,35
 410 113 410 113 410 177 c 0,36,37
 410 242 410 242 428 285 c 128,-1,38
 446 328 446 328 479 349.5 c 128,-1,39
 512 371 512 371 555 371 c 0,40,41
 599 371 599 371 632 349.5 c 128,-1,42
 665 328 665 328 683.5 285 c 128,-1,43
 702 242 702 242 702 177 c 0,44,45
 702 113 702 113 683.5 70 c 128,-1,46
 665 27 665 27 632 5.5 c 128,-1,47
 599 -16 599 -16 555 -16 c 0,32,33
58 0 m 1,48,-1
 595 710 l 1,49,-1
 674 710 l 1,50,-1
 138 0 l 1,51,-1
 58 0 l 1,48,-1
555 48 m 0,52,53
 580 48 580 48 592 60.5 c 128,-1,54
 604 73 604 73 608 101.5 c 128,-1,55
 612 130 612 130 612 177 c 0,56,57
 612 225 612 225 608 253 c 128,-1,58
 604 281 604 281 592 294 c 128,-1,59
 580 307 580 307 555 307 c 0,60,61
 531 307 531 307 519 294 c 128,-1,62
 507 281 507 281 503 253 c 128,-1,63
 499 225 499 225 499 177 c 0,64,65
 499 130 499 130 503 101.5 c 128,-1,66
 507 73 507 73 519 60.5 c 128,-1,67
 531 48 531 48 555 48 c 0,52,53
EndSplineSet
EndChar

StartChar: ampersand
Encoding: 38 38 9
Width: 765
GlyphClass: 1
Flags: W
LayerCount: 2
Fore
SplineSet
644 291 m 0,0,1
 639 261 639 261 624 221.5 c 128,-1,2
 609 182 609 182 582.5 141.5 c 128,-1,3
 556 101 556 101 517 66.5 c 128,-1,4
 478 32 478 32 425 11 c 128,-1,5
 372 -10 372 -10 303 -10 c 0,6,7
 225 -10 225 -10 170 11.5 c 128,-1,8
 115 33 115 33 86 80 c 128,-1,9
 57 127 57 127 57 204 c 0,10,11
 57 256 57 256 71 293 c 128,-1,12
 85 330 85 330 110 356 c 128,-1,13
 135 382 135 382 169 400 c 128,-1,14
 203 418 203 418 243 430 c 1,15,-1
 270 373 l 1,16,17
 238 361 238 361 213.5 344.5 c 128,-1,18
 189 328 189 328 175.5 298.5 c 128,-1,19
 162 269 162 269 162 213 c 0,20,21
 162 158 162 158 180.5 125.5 c 128,-1,22
 199 93 199 93 233.5 79.5 c 128,-1,23
 268 66 268 66 316 66 c 0,24,25
 365 66 365 66 405.5 81.5 c 128,-1,26
 446 97 446 97 477.5 123 c 128,-1,27
 509 149 509 149 531 182 c 128,-1,28
 553 215 553 215 564 251 c 128,-1,29
 575 287 575 287 575 321 c 0,30,31
 575 325 575 325 566 326.5 c 128,-1,32
 557 328 557 328 545.5 329 c 128,-1,33
 534 330 534 330 524 330 c 2,34,-1
 515 330 l 1,35,-1
 515 406 l 1,36,-1
 726 406 l 1,37,-1
 726 330 l 1,38,-1
 715 330 l 2,39,40
 697 330 697 330 681.5 327 c 128,-1,41
 666 324 666 324 656.5 316 c 128,-1,42
 647 308 647 308 644 291 c 0,0,1
714 0 m 1,43,-1
 569 0 l 1,44,45
 509 62 509 62 452.5 120 c 128,-1,46
 396 178 396 178 347 233 c 128,-1,47
 298 288 298 288 261 341 c 128,-1,48
 224 394 224 394 203.5 446.5 c 128,-1,49
 183 499 183 499 183 550 c 0,50,51
 183 607 183 607 207.5 644.5 c 128,-1,52
 232 682 232 682 274.5 700 c 128,-1,53
 317 718 317 718 372 718 c 0,54,55
 450 718 450 718 494.5 686 c 128,-1,56
 539 654 539 654 539 585 c 0,57,58
 539 539 539 539 521 507.5 c 128,-1,59
 503 476 503 476 471.5 453 c 128,-1,60
 440 430 440 430 397.5 413 c 128,-1,61
 355 396 355 396 305 380 c 1,62,-1
 283 438 l 1,63,64
 329 454 329 454 360.5 466 c 128,-1,65
 392 478 392 478 411 492 c 128,-1,66
 430 506 430 506 438.5 525.5 c 128,-1,67
 447 545 447 545 447 576 c 0,68,69
 447 616 447 616 429 635 c 128,-1,70
 411 654 411 654 372 654 c 0,71,72
 342 654 342 654 320.5 645.5 c 128,-1,73
 299 637 299 637 287.5 614.5 c 128,-1,74
 276 592 276 592 276 549 c 0,75,76
 276 516 276 516 289 480.5 c 128,-1,77
 302 445 302 445 326.5 406.5 c 128,-1,78
 351 368 351 368 388.5 323.5 c 128,-1,79
 426 279 426 279 476 226.5 c 128,-1,80
 526 174 526 174 588 111 c 0,81,82
 603 96 603 96 613.5 88.5 c 128,-1,83
 624 81 624 81 635 78.5 c 128,-1,84
 646 76 646 76 660 76 c 2,85,-1
 714 76 l 1,86,-1
 714 0 l 1,43,-1
EndSplineSet
EndChar

StartChar: quotesingle
Encoding: 39 39 10
Width: 252
GlyphClass: 1
Flags: W
LayerCount: 2
Fore
SplineSet
184 769 m 1,0,-1
 68 769 l 1,1,2
 68 733 68 733 71.5 702 c 128,-1,3
 75 671 75 671 79.5 637.5 c 128,-1,4
 84 604 84 604 87 563 c 128,-1,5
 90 522 90 522 90 467 c 1,6,-1
 162 467 l 1,7,8
 162 522 162 522 165.5 563 c 128,-1,9
 169 604 169 604 173 637.5 c 128,-1,10
 177 671 177 671 180.5 702.5 c 128,-1,11
 184 734 184 734 184 769 c 1,0,-1
EndSplineSet
EndChar

StartChar: parenleft
Encoding: 40 40 11
Width: 408
GlyphClass: 1
Flags: W
LayerCount: 2
Fore
SplineSet
169 310 m 256,0,1
 169 393 169 393 186.5 461 c 128,-1,2
 204 529 204 529 235.5 583 c 128,-1,3
 267 637 267 637 306 678 c 128,-1,4
 345 719 345 719 387 747 c 1,5,-1
 387 750 l 1,6,-1
 302 750 l 1,7,8
 258 724 258 724 217 682.5 c 128,-1,9
 176 641 176 641 143.5 585.5 c 128,-1,10
 111 530 111 530 91.5 460.5 c 128,-1,11
 72 391 72 391 72 310 c 256,12,13
 72 229 72 229 91.5 159.5 c 128,-1,14
 111 90 111 90 143.5 34.5 c 128,-1,15
 176 -21 176 -21 217 -62.5 c 128,-1,16
 258 -104 258 -104 302 -130 c 1,17,-1
 387 -130 l 1,18,-1
 387 -127 l 1,19,20
 345 -98 345 -98 306 -57.5 c 128,-1,21
 267 -17 267 -17 235.5 37 c 128,-1,22
 204 91 204 91 186.5 159 c 128,-1,23
 169 227 169 227 169 310 c 256,0,1
EndSplineSet
EndChar

StartChar: parenright
Encoding: 41 41 12
Width: 408
GlyphClass: 1
Flags: W
LayerCount: 2
Fore
SplineSet
239 310 m 256,0,1
 239 227 239 227 221.5 159 c 128,-1,2
 204 91 204 91 173 37 c 128,-1,3
 142 -17 142 -17 103 -57.5 c 128,-1,4
 64 -98 64 -98 22 -127 c 1,5,-1
 22 -130 l 1,6,-1
 106 -130 l 1,7,8
 150 -104 150 -104 191 -62.5 c 128,-1,9
 232 -21 232 -21 265 34.5 c 128,-1,10
 298 90 298 90 317 159.5 c 128,-1,11
 336 229 336 229 336 310 c 256,12,13
 336 391 336 391 317 460.5 c 128,-1,14
 298 530 298 530 265 585.5 c 128,-1,15
 232 641 232 641 191 682.5 c 128,-1,16
 150 724 150 724 106 750 c 1,17,-1
 22 750 l 1,18,-1
 22 747 l 1,19,20
 64 719 64 719 103 678 c 128,-1,21
 142 637 142 637 173 583 c 128,-1,22
 204 529 204 529 221.5 461 c 128,-1,23
 239 393 239 393 239 310 c 256,0,1
EndSplineSet
EndChar

StartChar: asterisk
Encoding: 42 42 13
Width: 519
GlyphClass: 1
Flags: W
LayerCount: 2
Fore
SplineSet
79 387 m 1,0,-1
 32 470 l 1,1,2
 54 482 54 482 76.5 490.5 c 128,-1,3
 99 499 99 499 122.5 506.5 c 128,-1,4
 146 514 146 514 169.5 523 c 128,-1,5
 193 532 193 532 216 545 c 1,6,-1
 237 502 l 1,7,8
 214 490 214 490 194.5 475 c 128,-1,9
 175 460 175 460 157 444.5 c 128,-1,10
 139 429 139 429 120 414 c 128,-1,11
 101 399 101 399 79 387 c 1,0,-1
212 780 m 1,12,-1
 308 780 l 1,13,14
 308 754 308 754 304 730 c 128,-1,15
 300 706 300 706 296 682 c 128,-1,16
 292 658 292 658 288 633.5 c 128,-1,17
 284 609 284 609 284 582 c 1,18,-1
 237 582 l 1,19,20
 237 609 237 609 233 633.5 c 128,-1,21
 229 658 229 658 224.5 682 c 128,-1,22
 220 706 220 706 216 730 c 128,-1,23
 212 754 212 754 212 780 c 1,12,-1
32 616 m 1,24,-1
 79 700 l 1,25,26
 101 687 101 687 120 672 c 128,-1,27
 139 657 139 657 157 641.5 c 128,-1,28
 175 626 175 626 194.5 611 c 128,-1,29
 214 596 214 596 237 584 c 1,30,-1
 216 541 l 1,31,32
 193 554 193 554 169.5 563 c 128,-1,33
 146 572 146 572 122.5 579.5 c 128,-1,34
 99 587 99 587 76.5 595.5 c 128,-1,35
 54 604 54 604 32 616 c 1,24,-1
212 305 m 1,36,37
 212 331 212 331 216 355 c 128,-1,38
 220 379 220 379 224.5 403 c 128,-1,39
 229 427 229 427 233 451.5 c 128,-1,40
 237 476 237 476 237 503 c 1,41,-1
 284 503 l 1,42,43
 284 476 284 476 288 451.5 c 128,-1,44
 292 427 292 427 296 403 c 128,-1,45
 300 379 300 379 304 355 c 128,-1,46
 308 331 308 331 308 305 c 1,47,-1
 212 305 l 1,36,37
304 541 m 1,48,-1
 283 584 l 1,49,50
 306 596 306 596 325.5 611 c 128,-1,51
 345 626 345 626 363 641.5 c 128,-1,52
 381 657 381 657 400 672 c 128,-1,53
 419 687 419 687 441 700 c 1,54,-1
 489 616 l 1,55,56
 467 604 467 604 444 595.5 c 128,-1,57
 421 587 421 587 397.5 579.5 c 128,-1,58
 374 572 374 572 350.5 563 c 128,-1,59
 327 554 327 554 304 541 c 1,48,-1
441 387 m 1,60,61
 419 399 419 399 400 414 c 128,-1,62
 381 429 381 429 363 444.5 c 128,-1,63
 345 460 345 460 325.5 475 c 128,-1,64
 306 490 306 490 283 502 c 1,65,-1
 304 545 l 1,66,67
 327 532 327 532 350.5 523 c 128,-1,68
 374 514 374 514 397.5 506.5 c 128,-1,69
 421 499 421 499 443.5 490.5 c 128,-1,70
 466 482 466 482 489 470 c 1,71,-1
 441 387 l 1,60,61
EndSplineSet
EndChar

StartChar: plus
Encoding: 43 43 14
Width: 560
GlyphClass: 1
Flags: W
LayerCount: 2
Fore
SplineSet
240 577 m 1,0,-1
 320 577 l 1,1,-1
 320 105 l 1,2,-1
 240 105 l 1,3,-1
 240 577 l 1,0,-1
507 378 m 1,4,-1
 507 304 l 1,5,-1
 53 304 l 1,6,-1
 53 378 l 1,7,-1
 507 378 l 1,4,-1
EndSplineSet
EndChar

StartChar: comma
Encoding: 44 44 15
Width: 330
GlyphClass: 1
Flags: W
LayerCount: 2
Fore
SplineSet
116 -183 m 1,0,-1
 38 -116 l 1,1,2
 97 -101 97 -101 132.5 -84 c 128,-1,3
 168 -67 168 -67 184.5 -41 c 128,-1,4
 201 -15 201 -15 201 28 c 0,5,6
 201 32 201 32 202 36.5 c 128,-1,7
 203 41 203 41 204.5 43.5 c 128,-1,8
 206 46 206 46 207 47 c 128,-1,9
 208 48 208 48 209 48 c 1,10,11
 207 32 207 32 198.5 22 c 128,-1,12
 190 12 190 12 178.5 8 c 128,-1,13
 167 4 167 4 152 4 c 0,14,15
 118 4 118 4 95.5 24 c 128,-1,16
 73 44 73 44 73 81 c 0,17,18
 73 120 73 120 99 143.5 c 128,-1,19
 125 167 125 167 167 167 c 0,20,21
 198 167 198 167 221 155 c 128,-1,22
 244 143 244 143 257 117.5 c 128,-1,23
 270 92 270 92 270 51 c 0,24,25
 270 -5 270 -5 254.5 -47 c 128,-1,26
 239 -89 239 -89 205 -122 c 128,-1,27
 171 -155 171 -155 116 -183 c 1,0,-1
EndSplineSet
EndChar

StartChar: hyphen
Encoding: 45 45 16
Width: 479
GlyphClass: 1
Flags: W
LayerCount: 2
Fore
SplineSet
82 337 m 1,0,-1
 397 337 l 1,1,-1
 397 255 l 1,2,-1
 82 255 l 1,3,-1
 82 337 l 1,0,-1
EndSplineSet
EndChar

StartChar: period
Encoding: 46 46 17
Width: 306
GlyphClass: 1
Flags: W
LayerCount: 2
Fore
SplineSet
152 -13 m 0,0,1
 113 -13 113 -13 86.5 11 c 128,-1,2
 60 35 60 35 60 74 c 256,3,4
 60 113 60 113 86.5 136.5 c 128,-1,5
 113 160 113 160 152 160 c 0,6,7
 193 160 193 160 219 136.5 c 128,-1,8
 245 113 245 113 245 74 c 256,9,10
 245 35 245 35 219 11 c 128,-1,11
 193 -13 193 -13 152 -13 c 0,0,1
EndSplineSet
EndChar

StartChar: slash
Encoding: 47 47 18
Width: 583
GlyphClass: 1
Flags: W
LayerCount: 2
Fore
SplineSet
583 780 m 1,0,-1
 492 780 l 1,1,-1
 0 -158 l 1,2,-1
 90 -158 l 1,3,-1
 583 780 l 1,0,-1
EndSplineSet
EndChar

StartChar: zero
Encoding: 48 48 19
Width: 560
GlyphClass: 1
Flags: W
LayerCount: 2
Fore
SplineSet
280 -11 m 256,0,1
 206 -11 206 -11 152.5 30 c 128,-1,2
 99 71 99 71 70 153.5 c 128,-1,3
 41 236 41 236 41 362 c 256,4,5
 41 488 41 488 70 570.5 c 128,-1,6
 99 653 99 653 152.5 694 c 128,-1,7
 206 735 206 735 280 735 c 256,8,9
 354 735 354 735 407.5 694 c 128,-1,10
 461 653 461 653 490 570.5 c 128,-1,11
 519 488 519 488 519 362 c 256,12,13
 519 236 519 236 490 153.5 c 128,-1,14
 461 71 461 71 407.5 30 c 128,-1,15
 354 -11 354 -11 280 -11 c 256,0,1
280 60 m 0,16,17
 311 60 311 60 334.5 71 c 128,-1,18
 358 82 358 82 373.5 104.5 c 128,-1,19
 389 127 389 127 398.5 163 c 128,-1,20
 408 199 408 199 412.5 248.5 c 128,-1,21
 417 298 417 298 417 362 c 256,22,23
 417 426 417 426 412.5 475.5 c 128,-1,24
 408 525 408 525 398.5 561 c 128,-1,25
 389 597 389 597 373.5 619.5 c 128,-1,26
 358 642 358 642 334.5 653 c 128,-1,27
 311 664 311 664 280 664 c 256,28,29
 249 664 249 664 225.5 653 c 128,-1,30
 202 642 202 642 186.5 619.5 c 128,-1,31
 171 597 171 597 161.5 561 c 128,-1,32
 152 525 152 525 147.5 475.5 c 128,-1,33
 143 426 143 426 143 362 c 256,34,35
 143 298 143 298 147.5 248 c 128,-1,36
 152 198 152 198 161.5 162.5 c 128,-1,37
 171 127 171 127 186.5 104.5 c 128,-1,38
 202 82 202 82 225 71 c 128,-1,39
 248 60 248 60 280 60 c 0,16,17
EndSplineSet
EndChar

StartChar: one
Encoding: 49 49 20
Width: 560
GlyphClass: 1
Flags: W
LayerCount: 2
Fore
SplineSet
354 104 m 2,0,1
 354 90 354 90 367 82.5 c 128,-1,2
 380 75 380 75 405 72 c 128,-1,3
 430 69 430 69 465 69 c 2,4,-1
 512 69 l 1,5,-1
 512 0 l 1,6,-1
 95 0 l 1,7,-1
 95 69 l 1,8,-1
 152 69 l 2,9,10
 185 69 185 69 208 72 c 128,-1,11
 231 75 231 75 243 82.5 c 128,-1,12
 255 90 255 90 255 104 c 2,13,-1
 255 656 l 1,14,-1
 272 664 l 1,15,16
 265 637 265 637 247 618 c 128,-1,17
 229 599 229 599 203 587 c 128,-1,18
 177 575 177 575 145 569.5 c 128,-1,19
 113 564 113 564 78 564 c 1,20,-1
 78 642 l 1,21,22
 118 642 118 642 151 646.5 c 128,-1,23
 184 651 184 651 210 660.5 c 128,-1,24
 236 670 236 670 255.5 686 c 128,-1,25
 275 702 275 702 287 725 c 1,26,-1
 354 725 l 1,27,-1
 354 104 l 2,0,1
EndSplineSet
EndChar

StartChar: two
Encoding: 50 50 21
Width: 560
GlyphClass: 1
Flags: W
LayerCount: 2
Fore
SplineSet
316 79 m 2,0,-1
 68 79 l 2,1,2
 65 77 65 77 66.5 73 c 128,-1,3
 68 69 68 69 71.5 64.5 c 128,-1,4
 75 60 75 60 79.5 56.5 c 128,-1,5
 84 53 84 53 87 52 c 0,6,7
 146 102 146 102 204 148.5 c 128,-1,8
 262 195 262 195 314 241 c 128,-1,9
 366 287 366 287 405.5 334.5 c 128,-1,10
 445 382 445 382 467.5 434 c 128,-1,11
 490 486 490 486 490 543 c 0,12,13
 490 608 490 608 466 650.5 c 128,-1,14
 442 693 442 693 392.5 714 c 128,-1,15
 343 735 343 735 268 735 c 0,16,17
 218 735 218 735 176.5 722 c 128,-1,18
 135 709 135 709 105 690 c 128,-1,19
 75 671 75 671 59 653 c 1,20,-1
 59 521 l 1,21,-1
 156 521 l 1,22,-1
 156 652 l 2,23,24
 156 661 156 661 148.5 657.5 c 128,-1,25
 141 654 141 654 131.5 644 c 128,-1,26
 122 634 122 634 114 621 c 128,-1,27
 106 608 106 608 105 597 c 1,28,29
 121 617 121 617 144.5 631.5 c 128,-1,30
 168 646 168 646 199 654 c 128,-1,31
 230 662 230 662 268 662 c 0,32,33
 308 662 308 662 334.5 653 c 128,-1,34
 361 644 361 644 375.5 619 c 128,-1,35
 390 594 390 594 390 543 c 0,36,37
 390 491 390 491 374 448.5 c 128,-1,38
 358 406 358 406 328 367.5 c 128,-1,39
 298 329 298 329 255.5 290 c 128,-1,40
 213 251 213 251 158.5 205.5 c 128,-1,41
 104 160 104 160 40 103 c 1,42,-1
 40 0 l 1,43,-1
 510 0 l 1,44,-1
 510 216 l 1,45,-1
 439 216 l 1,46,-1
 430 112 l 2,47,48
 429 95 429 95 417 88 c 128,-1,49
 405 81 405 81 380.5 80 c 128,-1,50
 356 79 356 79 316 79 c 2,0,-1
EndSplineSet
EndChar

StartChar: three
Encoding: 51 51 22
Width: 560
GlyphClass: 1
Flags: W
LayerCount: 2
Fore
SplineSet
268 387 m 1,0,-1
 340 371 l 1,1,-1
 340 400 l 1,2,-1
 250 377 l 1,3,4
 302 377 302 377 346.5 389.5 c 128,-1,5
 391 402 391 402 424.5 426 c 128,-1,6
 458 450 458 450 477 484 c 128,-1,7
 496 518 496 518 496 561 c 0,8,9
 496 616 496 616 471 655 c 128,-1,10
 446 694 446 694 397.5 714.5 c 128,-1,11
 349 735 349 735 278 735 c 0,12,13
 224 735 224 735 183.5 722.5 c 128,-1,14
 143 710 143 710 115.5 693 c 128,-1,15
 88 676 88 676 73 660 c 1,16,-1
 73 541 l 1,17,-1
 167 541 l 1,18,-1
 167 655 l 1,19,20
 157 654 157 654 148 648.5 c 128,-1,21
 139 643 139 643 132.5 635.5 c 128,-1,22
 126 628 126 628 122.5 619.5 c 128,-1,23
 119 611 119 611 119 605 c 1,24,25
 133 619 133 619 152.5 632 c 128,-1,26
 172 645 172 645 202 653.5 c 128,-1,27
 232 662 232 662 276 662 c 0,28,29
 318 662 318 662 345 652.5 c 128,-1,30
 372 643 372 643 385.5 619 c 128,-1,31
 399 595 399 595 399 551 c 0,32,33
 399 503 399 503 381.5 474 c 128,-1,34
 364 445 364 445 331.5 432.5 c 128,-1,35
 299 420 299 420 251 420 c 2,36,-1
 155 420 l 1,37,-1
 155 341 l 1,38,-1
 263 341 l 2,39,40
 323 341 323 341 357 326 c 128,-1,41
 391 311 391 311 405.5 279.5 c 128,-1,42
 420 248 420 248 420 199 c 0,43,44
 420 147 420 147 403 117 c 128,-1,45
 386 87 386 87 353.5 75 c 128,-1,46
 321 63 321 63 271 63 c 0,47,48
 214 63 214 63 177.5 81 c 128,-1,49
 141 99 141 99 118 130 c 128,-1,50
 95 161 95 161 79 200 c 1,51,-1
 24 149 l 1,52,53
 46 100 46 100 75.5 64 c 128,-1,54
 105 28 105 28 152 8.5 c 128,-1,55
 199 -11 199 -11 271 -11 c 0,56,57
 327 -11 327 -11 372.5 3 c 128,-1,58
 418 17 418 17 451 44.5 c 128,-1,59
 484 72 484 72 502 111 c 128,-1,60
 520 150 520 150 520 201 c 0,61,62
 520 258 520 258 496 299.5 c 128,-1,63
 472 341 472 341 417 364 c 128,-1,64
 362 387 362 387 268 387 c 1,0,-1
EndSplineSet
EndChar

StartChar: four
Encoding: 52 52 23
Width: 560
GlyphClass: 1
Flags: W
LayerCount: 2
Fore
SplineSet
237 0 m 1,0,-1
 237 75 l 1,1,-1
 260 75 l 2,2,3
 285 75 285 75 303.5 78 c 128,-1,4
 322 81 322 81 332 89 c 128,-1,5
 342 97 342 97 342 111 c 2,6,-1
 342 698 l 1,7,-1
 345 710 l 1,8,-1
 436 710 l 1,9,-1
 436 111 l 2,10,11
 436 97 436 97 446.5 89 c 128,-1,12
 457 81 457 81 475.5 78 c 128,-1,13
 494 75 494 75 518 75 c 2,14,-1
 538 75 l 1,15,-1
 538 0 l 1,16,-1
 237 0 l 1,0,-1
36 213 m 1,17,-1
 36 292 l 1,18,-1
 299 710 l 1,19,-1
 369 710 l 1,20,-1
 368 683 l 1,21,-1
 90 244 l 1,22,-1
 65 283 l 1,23,-1
 544 283 l 1,24,-1
 544 213 l 1,25,-1
 36 213 l 1,17,-1
EndSplineSet
EndChar

StartChar: five
Encoding: 53 53 24
Width: 560
GlyphClass: 1
Flags: W
LayerCount: 2
Fore
SplineSet
261 -11 m 0,0,1
 338 -11 338 -11 395.5 16.5 c 128,-1,2
 453 44 453 44 484.5 99.5 c 128,-1,3
 516 155 516 155 516 239 c 0,4,5
 516 316 516 316 490.5 369 c 128,-1,6
 465 422 465 422 416.5 449.5 c 128,-1,7
 368 477 368 477 300 477 c 0,8,9
 260 477 260 477 227 466 c 128,-1,10
 194 455 194 455 168.5 432 c 128,-1,11
 143 409 143 409 127 373 c 0,12,13
 126 361 126 361 133 356.5 c 128,-1,14
 140 352 140 352 148.5 353.5 c 128,-1,15
 157 355 157 355 158 361 c 2,16,-1
 158 690 l 1,17,-1
 122 634 l 1,18,-1
 449 634 l 1,19,-1
 474 710 l 1,20,-1
 84 710 l 1,21,-1
 84 326 l 1,22,-1
 150 326 l 1,23,24
 165 353 165 353 183 369.5 c 128,-1,25
 201 386 201 386 225.5 394 c 128,-1,26
 250 402 250 402 283 402 c 0,27,28
 323 402 323 402 353 388 c 128,-1,29
 383 374 383 374 399.5 338.5 c 128,-1,30
 416 303 416 303 416 239 c 0,31,32
 416 172 416 172 398.5 133.5 c 128,-1,33
 381 95 381 95 347.5 79.5 c 128,-1,34
 314 64 314 64 265 64 c 0,35,36
 207 64 207 64 173 80 c 128,-1,37
 139 96 139 96 120 121.5 c 128,-1,38
 101 147 101 147 86 177 c 1,39,-1
 26 131 l 1,40,41
 45 90 45 90 72.5 58 c 128,-1,42
 100 26 100 26 145 7.5 c 128,-1,43
 190 -11 190 -11 261 -11 c 0,0,1
EndSplineSet
EndChar

StartChar: six
Encoding: 54 54 25
Width: 560
GlyphClass: 1
Flags: W
LayerCount: 2
Fore
SplineSet
466 670 m 1,0,-1
 456 740 l 1,1,2
 355 729 355 729 278 699 c 128,-1,3
 201 669 201 669 149 615.5 c 128,-1,4
 97 562 97 562 70.5 483 c 128,-1,5
 44 404 44 404 44 295 c 256,6,7
 44 186 44 186 74 118.5 c 128,-1,8
 104 51 104 51 160 20.5 c 128,-1,9
 216 -10 216 -10 293 -10 c 0,10,11
 367 -10 367 -10 419 22.5 c 128,-1,12
 471 55 471 55 498.5 112 c 128,-1,13
 526 169 526 169 526 241 c 0,14,15
 526 312 526 312 502.5 362.5 c 128,-1,16
 479 413 479 413 433.5 440.5 c 128,-1,17
 388 468 388 468 322 468 c 0,18,19
 269 468 269 468 229.5 446 c 128,-1,20
 190 424 190 424 162 385.5 c 128,-1,21
 134 347 134 347 112 296 c 1,22,-1
 118 250 l 1,23,24
 146 305 146 305 173.5 336 c 128,-1,25
 201 367 201 367 233.5 380.5 c 128,-1,26
 266 394 266 394 307 394 c 0,27,28
 355 394 355 394 380 375 c 128,-1,29
 405 356 405 356 414.5 322 c 128,-1,30
 424 288 424 288 424 241 c 0,31,32
 424 188 424 188 410.5 148.5 c 128,-1,33
 397 109 397 109 368 86.5 c 128,-1,34
 339 64 339 64 292 64 c 0,35,36
 256 64 256 64 228 74.5 c 128,-1,37
 200 85 200 85 181.5 111 c 128,-1,38
 163 137 163 137 153 182 c 128,-1,39
 143 227 143 227 143 295 c 0,40,41
 143 399 143 399 163 467.5 c 128,-1,42
 183 536 183 536 223 577 c 128,-1,43
 263 618 263 618 323.5 639 c 128,-1,44
 384 660 384 660 466 670 c 1,0,-1
EndSplineSet
EndChar

StartChar: seven
Encoding: 55 55 26
Width: 560
GlyphClass: 1
Flags: W
LayerCount: 2
Fore
SplineSet
249 619 m 2,0,-1
 488 619 l 1,1,-1
 471 644 l 1,2,3
 449 625 449 625 416.5 584.5 c 128,-1,4
 384 544 384 544 347 484.5 c 128,-1,5
 310 425 310 425 276 349.5 c 128,-1,6
 242 274 242 274 217.5 186 c 128,-1,7
 193 98 193 98 185 0 c 1,8,-1
 296 0 l 1,9,10
 305 124 305 124 324 214 c 128,-1,11
 343 304 343 304 373 373 c 128,-1,12
 403 442 403 442 443 501.5 c 128,-1,13
 483 561 483 561 532 625 c 1,14,-1
 532 710 l 1,15,-1
 57 710 l 1,16,-1
 57 492 l 1,17,-1
 128 492 l 1,18,-1
 135 576 l 2,19,20
 137 594 137 594 148 603.5 c 128,-1,21
 159 613 159 613 183.5 616 c 128,-1,22
 208 619 208 619 249 619 c 2,0,-1
EndSplineSet
EndChar

StartChar: eight
Encoding: 56 56 27
Width: 560
GlyphClass: 1
Flags: W
LayerCount: 2
Fore
SplineSet
280 64 m 256,0,1
 328 64 328 64 360.5 78.5 c 128,-1,2
 393 93 393 93 410 123 c 128,-1,3
 427 153 427 153 427 201 c 0,4,5
 427 252 427 252 410 284 c 128,-1,6
 393 316 393 316 360.5 332 c 128,-1,7
 328 348 328 348 280 348 c 256,8,9
 232 348 232 348 199.5 332 c 128,-1,10
 167 316 167 316 150 284 c 128,-1,11
 133 252 133 252 133 201 c 0,12,13
 133 153 133 153 150 123 c 128,-1,14
 167 93 167 93 199.5 78.5 c 128,-1,15
 232 64 232 64 280 64 c 256,0,1
280 420 m 256,16,17
 319 420 319 420 345 435 c 128,-1,18
 371 450 371 450 383.5 478 c 128,-1,19
 396 506 396 506 396 545 c 0,20,21
 396 587 396 587 383.5 612.5 c 128,-1,22
 371 638 371 638 345 649.5 c 128,-1,23
 319 661 319 661 280 661 c 256,24,25
 241 661 241 661 215 649.5 c 128,-1,26
 189 638 189 638 176.5 612.5 c 128,-1,27
 164 587 164 587 164 545 c 0,28,29
 164 506 164 506 176.5 478 c 128,-1,30
 189 450 189 450 215 435 c 128,-1,31
 241 420 241 420 280 420 c 256,16,17
280 735 m 256,32,33
 346 735 346 735 392 713.5 c 128,-1,34
 438 692 438 692 461.5 651.5 c 128,-1,35
 485 611 485 611 485 554 c 0,36,37
 485 504 485 504 465 467 c 128,-1,38
 445 430 445 430 410 408 c 128,-1,39
 375 386 375 386 328 380 c 1,40,-1
 374 401 l 1,41,-1
 374 373 l 1,42,-1
 328 394 l 1,43,44
 384 387 384 387 428 361 c 128,-1,45
 472 335 472 335 497.5 293 c 128,-1,46
 523 251 523 251 523 196 c 0,47,48
 523 133 523 133 494.5 86.5 c 128,-1,49
 466 40 466 40 411.5 15 c 128,-1,50
 357 -10 357 -10 280 -10 c 256,51,52
 203 -10 203 -10 148.5 15 c 128,-1,53
 94 40 94 40 65.5 86.5 c 128,-1,54
 37 133 37 133 37 196 c 0,55,56
 37 251 37 251 62.5 293 c 128,-1,57
 88 335 88 335 132.5 361 c 128,-1,58
 177 387 177 387 233 394 c 1,59,-1
 187 373 l 1,60,-1
 187 401 l 1,61,-1
 233 380 l 1,62,63
 187 386 187 386 151 408 c 128,-1,64
 115 430 115 430 95 467 c 128,-1,65
 75 504 75 504 75 554 c 0,66,67
 75 611 75 611 98.5 651.5 c 128,-1,68
 122 692 122 692 168 713.5 c 128,-1,69
 214 735 214 735 280 735 c 256,32,33
EndSplineSet
EndChar

StartChar: nine
Encoding: 57 57 28
Width: 560
GlyphClass: 1
Flags: W
LayerCount: 2
Fore
SplineSet
102 58 m 1,0,-1
 112 -15 l 1,1,2
 213 -4 213 -4 290.5 25.5 c 128,-1,3
 368 55 368 55 420.5 108.5 c 128,-1,4
 473 162 473 162 499.5 241 c 128,-1,5
 526 320 526 320 526 430 c 0,6,7
 526 541 526 541 496.5 608 c 128,-1,8
 467 675 467 675 412 705 c 128,-1,9
 357 735 357 735 280 735 c 0,10,11
 206 735 206 735 153 704.5 c 128,-1,12
 100 674 100 674 72 619.5 c 128,-1,13
 44 565 44 565 44 494 c 0,14,15
 44 426 44 426 68.5 375 c 128,-1,16
 93 324 93 324 138.5 296 c 128,-1,17
 184 268 184 268 250 268 c 0,18,19
 304 268 304 268 342.5 290 c 128,-1,20
 381 312 381 312 409 351 c 128,-1,21
 437 390 437 390 458 440 c 1,22,-1
 452 487 l 1,23,24
 425 433 425 433 397.5 401 c 128,-1,25
 370 369 370 369 338 355.5 c 128,-1,26
 306 342 306 342 264 342 c 0,27,28
 217 342 217 342 191.5 361.5 c 128,-1,29
 166 381 166 381 156 415.5 c 128,-1,30
 146 450 146 450 146 494 c 0,31,32
 146 546 146 546 160.5 583.5 c 128,-1,33
 175 621 175 621 204.5 641 c 128,-1,34
 234 661 234 661 281 661 c 0,35,36
 317 661 317 661 344.5 651.5 c 128,-1,37
 372 642 372 642 390 617.5 c 128,-1,38
 408 593 408 593 417.5 547.5 c 128,-1,39
 427 502 427 502 427 430 c 0,40,41
 427 324 427 324 407.5 255.5 c 128,-1,42
 388 187 388 187 347.5 147 c 128,-1,43
 307 107 307 107 246 87.5 c 128,-1,44
 185 68 185 68 102 58 c 1,0,-1
EndSplineSet
EndChar

StartChar: less
Encoding: 60 60 31
Width: 560
GlyphClass: 1
Flags: W
LayerCount: 2
Fore
SplineSet
485 570 m 1,0,-1
 485 488 l 1,1,-1
 95 313 l 1,2,-1
 75 332 l 1,3,-1
 75 381 l 1,4,-1
 485 570 l 1,0,-1
485 189 m 1,5,-1
 485 100 l 1,6,-1
 75 289 l 1,7,-1
 75 340 l 1,8,-1
 96 364 l 1,9,-1
 485 189 l 1,5,-1
EndSplineSet
EndChar

StartChar: greater
Encoding: 62 62 33
Width: 560
GlyphClass: 1
Flags: W
LayerCount: 2
Fore
SplineSet
75 100 m 1,0,-1
 75 182 l 1,1,-1
 465 357 l 1,2,-1
 485 338 l 1,3,-1
 485 289 l 1,4,-1
 75 100 l 1,0,-1
75 481 m 1,5,-1
 75 570 l 1,6,-1
 485 381 l 1,7,-1
 485 330 l 1,8,-1
 464 306 l 1,9,-1
 75 481 l 1,5,-1
EndSplineSet
EndChar

StartChar: question
Encoding: 63 63 34
Width: 555
GlyphClass: 1
Flags: W
LayerCount: 2
Fore
SplineSet
193 421 m 1,0,-1
 193 248 l 1,1,-1
 289 248 l 1,2,-1
 289 369 l 1,3,4
 328 375 328 375 364 390 c 128,-1,5
 400 405 400 405 429 430 c 128,-1,6
 458 455 458 455 475 491.5 c 128,-1,7
 492 528 492 528 492 578 c 0,8,9
 492 640 492 640 464.5 680.5 c 128,-1,10
 437 721 437 721 387 741.5 c 128,-1,11
 337 762 337 762 266 762 c 0,12,13
 219 762 219 762 176.5 751.5 c 128,-1,14
 134 741 134 741 103.5 727.5 c 128,-1,15
 73 714 73 714 58 705 c 1,16,-1
 58 555 l 1,17,-1
 156 555 l 1,18,-1
 156 704 l 1,19,20
 140 703 140 703 129 695 c 128,-1,21
 118 687 118 687 111.5 676 c 128,-1,22
 105 665 105 665 102.5 654.5 c 128,-1,23
 100 644 100 644 101 638 c 1,24,25
 113 650 113 650 134 661.5 c 128,-1,26
 155 673 155 673 187.5 680.5 c 128,-1,27
 220 688 220 688 264 688 c 0,28,29
 307 688 307 688 335.5 677.5 c 128,-1,30
 364 667 364 667 378 643.5 c 128,-1,31
 392 620 392 620 392 578 c 0,32,33
 392 531 392 531 378 502.5 c 128,-1,34
 364 474 364 474 338 458 c 128,-1,35
 312 442 312 442 275 434 c 128,-1,36
 238 426 238 426 193 421 c 1,0,-1
244 -14 m 0,37,38
 205 -14 205 -14 178.5 10 c 128,-1,39
 152 34 152 34 152 73 c 256,40,41
 152 112 152 112 178.5 135.5 c 128,-1,42
 205 159 205 159 244 159 c 0,43,44
 284 159 284 159 310.5 135.5 c 128,-1,45
 337 112 337 112 337 73 c 256,46,47
 337 34 337 34 310.5 10 c 128,-1,48
 284 -14 284 -14 244 -14 c 0,37,38
EndSplineSet
EndChar

StartChar: at
Encoding: 64 64 35
Width: 960
GlyphClass: 1
Flags: W
LayerCount: 2
Fore
SplineSet
475 -93 m 0,0,1
 525 -93 525 -93 571 -86 c 128,-1,2
 617 -79 617 -79 656 -68 c 128,-1,3
 695 -57 695 -57 722 -45 c 1,4,-1
 744 -105 l 1,5,6
 717 -118 717 -118 673 -130 c 128,-1,7
 629 -142 629 -142 577.5 -150 c 128,-1,8
 526 -158 526 -158 475 -158 c 0,9,10
 381 -158 381 -158 306.5 -135 c 128,-1,11
 232 -112 232 -112 179.5 -64.5 c 128,-1,12
 127 -17 127 -17 99.5 55.5 c 128,-1,13
 72 128 72 128 72 225 c 0,14,15
 72 332 72 332 105.5 416.5 c 128,-1,16
 139 501 139 501 199 559 c 128,-1,17
 259 617 259 617 342.5 647.5 c 128,-1,18
 426 678 426 678 525 678 c 0,19,20
 614 678 614 678 681.5 658 c 128,-1,21
 749 638 749 638 795 597.5 c 128,-1,22
 841 557 841 557 864.5 496 c 128,-1,23
 888 435 888 435 888 352 c 0,24,25
 888 275 888 275 873.5 219 c 128,-1,26
 859 163 859 163 832.5 126.5 c 128,-1,27
 806 90 806 90 769.5 72.5 c 128,-1,28
 733 55 733 55 688 55 c 0,29,30
 658 55 658 55 636 63.5 c 128,-1,31
 614 72 614 72 598 86.5 c 128,-1,32
 582 101 582 101 571 118.5 c 128,-1,33
 560 136 560 136 551 155 c 1,34,-1
 546 151 l 1,35,-1
 583 381 l 1,36,-1
 587 372 l 1,37,-1
 643 468 l 1,38,-1
 688 468 l 1,39,-1
 639 179 l 2,40,41
 635 155 635 155 636.5 139 c 128,-1,42
 638 123 638 123 649.5 115.5 c 128,-1,43
 661 108 661 108 687 108 c 0,44,45
 733 108 733 108 760.5 131 c 128,-1,46
 788 154 788 154 800.5 207.5 c 128,-1,47
 813 261 813 261 813 352 c 256,48,49
 813 443 813 443 782.5 500.5 c 128,-1,50
 752 558 752 558 688.5 585.5 c 128,-1,51
 625 613 625 613 525 613 c 0,52,53
 438 613 438 613 368.5 587 c 128,-1,54
 299 561 299 561 249.5 511 c 128,-1,55
 200 461 200 461 173.5 389 c 128,-1,56
 147 317 147 317 147 225 c 0,57,58
 147 144 147 144 169.5 84 c 128,-1,59
 192 24 192 24 234 -15.5 c 128,-1,60
 276 -55 276 -55 337 -74 c 128,-1,61
 398 -93 398 -93 475 -93 c 0,0,1
431 49 m 0,62,63
 394 49 394 49 363 65.5 c 128,-1,64
 332 82 332 82 314 118.5 c 128,-1,65
 296 155 296 155 296 215 c 0,66,67
 296 267 296 267 308.5 313.5 c 128,-1,68
 321 360 321 360 346 396 c 128,-1,69
 371 432 371 432 407.5 453 c 128,-1,70
 444 474 444 474 492 474 c 0,71,72
 530 474 530 474 554 456.5 c 128,-1,73
 578 439 578 439 593 407.5 c 128,-1,74
 608 376 608 376 618 332 c 1,75,-1
 602 282 l 1,76,77
 592 325 592 325 579 353 c 128,-1,78
 566 381 566 381 547.5 395.5 c 128,-1,79
 529 410 529 410 501 410 c 0,80,81
 465 410 465 410 442.5 395 c 128,-1,82
 420 380 420 380 408 352.5 c 128,-1,83
 396 325 396 325 391.5 287 c 128,-1,84
 387 249 387 249 387 202 c 0,85,86
 387 167 387 167 391.5 147.5 c 128,-1,87
 396 128 396 128 411 120.5 c 128,-1,88
 426 113 426 113 456 113 c 0,89,90
 479 113 479 113 497 124.5 c 128,-1,91
 515 136 515 136 529.5 156 c 128,-1,92
 544 176 544 176 557 199 c 1,93,-1
 582 180 l 1,94,95
 558 132 558 132 538.5 103.5 c 128,-1,96
 519 75 519 75 494.5 62 c 128,-1,97
 470 49 470 49 431 49 c 0,62,63
EndSplineSet
EndChar

StartChar: A
Encoding: 65 65 36
Width: 1000
GlyphClass: 2
Flags: W
LayerCount: 2
Fore
SplineSet
359.900390625 1.083984375 m 6,0,1
 364.671875 6.3974609375 364.671875 6.3974609375 373.291015625 14.326171875 c 4,2,3
 376.698242188 17.4609375 376.698242188 17.4609375 379.150390625 19.7578125 c 132,-1,4
 381.583007812 22.0361328125 381.583007812 22.0361328125 388.18359375 27.6181640625 c 132,-1,5
 394.774414062 33.19140625 394.774414062 33.19140625 395.5078125 34.015625 c 132,-1,6
 396.247070312 34.845703125 396.247070312 34.845703125 403.076171875 40.548828125 c 132,-1,7
 409.9140625 46.2587890625 409.9140625 46.2587890625 410.896484375 47.3193359375 c 132,-1,8
 411.879882812 48.3818359375 411.879882812 48.3818359375 418.708984375 54.1533203125 c 132,-1,9
 425.534179688 59.921875 425.534179688 59.921875 426.104492188 60.640625 c 132,-1,10
 426.666015625 61.3525390625 426.666015625 61.3525390625 433.033203125 66.81640625 c 4,11,12
 452.170898438 83.240234375 452.170898438 83.240234375 459.716796875 90.8330078125 c 4,13,14
 468.9375 100.109375 468.9375 100.109375 474.7890625 108.896484375 c 4,15,16
 477.060546875 112.306640625 477.060546875 112.306640625 477.51953125 112.875976562 c 4,17,18
 482.19921875 118.657226562 482.19921875 118.657226562 488.7578125 135.250976562 c 4,19,20
 498.681640625 160.362304688 498.681640625 160.362304688 498.12109375 182.1015625 c 6,21,-1
 498.046875 184.994140625 l 5,22,-1
 496.916992188 183.932617188 l 6,23,24
 495.786132812 182.87109375 495.786132812 182.87109375 495.375976562 182.87109375 c 132,-1,25
 494.963867188 182.87109375 494.963867188 182.87109375 493.365234375 181.650390625 c 132,-1,26
 491.764648438 180.4296875 491.764648438 180.4296875 491.44140625 180.4296875 c 132,-1,27
 491.118164062 180.4296875 491.118164062 180.4296875 489.821289062 179.509765625 c 4,28,29
 487.737304688 178.030273438 487.737304688 178.030273438 481.336914062 174.663085938 c 4,30,31
 478.840820312 173.350585938 478.840820312 173.350585938 477.783203125 172.787109375 c 4,32,33
 462.401367188 164.588867188 462.401367188 164.588867188 448.73046875 161.377929688 c 4,34,35
 435.795898438 158.33984375 435.795898438 158.33984375 415.501953125 149.266601562 c 4,36,37
 413.33984375 148.299804688 413.33984375 148.299804688 409.66796875 146.75390625 c 4,38,39
 389.217773438 138.149414062 389.217773438 138.149414062 373.8515625 128.762695312 c 4,40,41
 370.505859375 126.71875 370.505859375 126.71875 370.370117188 126.71875 c 4,42,43
 369.735351562 126.71875 369.735351562 126.71875 363.51953125 122.568359375 c 4,44,45
 362.061523438 121.594726562 362.061523438 121.594726562 361.26953125 121.103515625 c 132,-1,46
 360.487304688 120.618164062 360.487304688 120.618164062 357.651367188 118.662109375 c 132,-1,47
 354.805664062 116.701171875 354.805664062 116.701171875 353.904296875 116.166992188 c 132,-1,48
 352.987304688 115.62109375 352.987304688 115.62109375 351.87890625 114.580078125 c 132,-1,49
 350.768554688 113.53515625 350.768554688 113.53515625 350.279296875 113.53515625 c 132,-1,50
 349.791015625 113.53515625 349.791015625 113.53515625 348.388671875 112.0703125 c 132,-1,51
 346.986328125 110.60546875 346.986328125 110.60546875 346.553710938 110.60546875 c 132,-1,52
 346.122070312 110.60546875 346.122070312 110.60546875 338.221679688 103.928710938 c 4,53,54
 324.184570312 92.064453125 324.184570312 92.064453125 312.559570312 78.623046875 c 4,55,56
 311.729492188 77.6640625 311.729492188 77.6640625 310.032226562 75.44921875 c 132,-1,57
 308.346679688 73.25 308.346679688 73.25 308.080078125 73.0078125 c 132,-1,58
 307.811523438 72.7626953125 307.811523438 72.7626953125 306.126953125 70.333984375 c 132,-1,59
 304.452148438 67.916015625 304.452148438 67.916015625 304.041015625 67.404296875 c 4,60,61
 302.689453125 65.7294921875 302.689453125 65.7294921875 292.760742188 49.9345703125 c 4,62,63
 290.884765625 46.951171875 290.884765625 46.951171875 288.83203125 43.7109375 c 4,64,65
 288.487304688 43.1669921875 288.487304688 43.1669921875 286.9140625 40.68359375 c 132,-1,66
 285.340820312 38.2001953125 285.340820312 38.2001953125 284.655273438 37.119140625 c 4,67,68
 278.204101562 26.9384765625 278.204101562 26.9384765625 272.493164062 21.20703125 c 4,69,70
 262.41796875 11.0986328125 262.41796875 11.0986328125 242.67578125 10.1787109375 c 4,71,72
 236.572265625 9.89453125 236.572265625 9.89453125 231.201171875 10.9267578125 c 4,73,74
 221.743164062 12.7451171875 221.743164062 12.7451171875 217.209960938 15.94140625 c 4,75,76
 215.9140625 16.85546875 215.9140625 16.85546875 215.596679688 16.85546875 c 4,77,78
 213.665039062 16.85546875 213.665039062 16.85546875 206.787109375 24.4501953125 c 4,79,80
 204.315429688 27.1796875 204.315429688 27.1796875 202.16796875 30.1767578125 c 4,81,82
 200.495117188 32.5126953125 200.495117188 32.5126953125 199.782226562 32.2392578125 c 4,83,84
 190.94921875 28.849609375 190.94921875 28.849609375 172.08984375 28.2109375 c 6,85,-1
 164.735351562 27.9609375 l 5,86,-1
 159.638671875 29.7099609375 l 6,87,88
 145.365234375 34.609375 145.365234375 34.609375 139.48828125 37.671875 c 4,89,90
 138.028320312 38.43359375 138.028320312 38.43359375 136.981445312 38.966796875 c 4,91,92
 132.36328125 41.31640625 132.36328125 41.31640625 130.448242188 42.6796875 c 4,93,94
 129 43.7109375 129 43.7109375 128.555664062 43.7109375 c 132,-1,95
 128.111328125 43.7109375 128.111328125 43.7109375 126.708984375 45.17578125 c 132,-1,96
 125.306640625 46.640625 125.306640625 46.640625 124.931640625 46.640625 c 4,97,98
 124.056640625 46.640625 124.056640625 46.640625 113.998046875 56.650390625 c 4,99,100
 105.526367188 65.0830078125 105.526367188 65.0830078125 99.7607421875 73.740234375 c 4,101,102
 84.98046875 95.9384765625 84.98046875 95.9384765625 84.775390625 131.11328125 c 4,103,104
 84.716796875 141.122070312 84.716796875 141.122070312 85.8603515625 146.231445312 c 4,105,106
 89.943359375 164.477539062 89.943359375 164.477539062 104.857421875 187.189453125 c 4,107,108
 108.59765625 192.883789062 108.59765625 192.883789062 108.86328125 193.125 c 132,-1,109
 109.1328125 193.37109375 109.1328125 193.37109375 110.825195312 195.810546875 c 132,-1,110
 112.521484375 198.252929688 112.521484375 198.252929688 112.904296875 198.740234375 c 4,111,112
 116.756835938 203.633789062 116.756835938 203.633789062 119.140625 206.796875 c 4,113,114
 120.358398438 208.413085938 120.358398438 208.413085938 120.869140625 208.94921875 c 132,-1,115
 121.374023438 209.4765625 121.374023438 209.4765625 122.08984375 210.5 c 4,116,117
 123.9296875 213.125976562 123.9296875 213.125976562 127.44140625 217.018554688 c 4,118,119
 128.157226562 217.813476562 128.157226562 217.813476562 131.080078125 221.224609375 c 132,-1,120
 133.973632812 224.604492188 133.973632812 224.604492188 134.7421875 225.407226562 c 132,-1,121
 135.485351562 226.181640625 135.485351562 226.181640625 138.18359375 229.291992188 c 132,-1,122
 140.866210938 232.387695312 140.866210938 232.387695312 141.6015625 233.146484375 c 132,-1,123
 142.345703125 233.916015625 142.345703125 233.916015625 145.4765625 237.561523438 c 132,-1,124
 148.603515625 241.203125 148.603515625 241.203125 149.138671875 241.745117188 c 132,-1,125
 149.65234375 242.262695312 149.65234375 242.262695312 151.123046875 244.116210938 c 132,-1,126
 152.590820312 245.967773438 152.590820312 245.967773438 153.564453125 247.069335938 c 132,-1,127
 154.538085938 248.170898438 154.538085938 248.170898438 155.28125 249.091796875 c 132,-1,128
 156.061523438 250.059570312 156.061523438 250.059570312 158.455078125 252.967773438 c 132,-1,129
 160.869140625 255.900390625 160.869140625 255.900390625 162.109375 257.561523438 c 132,-1,130
 163.329101562 259.197265625 163.329101562 259.197265625 163.818359375 259.73046875 c 132,-1,131
 164.307617188 260.263671875 164.307617188 260.263671875 166.748046875 263.595703125 c 132,-1,132
 169.189453125 266.926757812 169.189453125 266.926757812 170.212890625 268.234375 c 4,133,134
 171.94140625 270.44140625 171.94140625 270.44140625 177.493164062 278.583984375 c 4,135,136
 185.255859375 289.966796875 185.255859375 289.966796875 190.817382812 301.5234375 c 4,137,138
 198.704101562 317.908203125 198.704101562 317.908203125 198.723632812 328.474609375 c 4,139,140
 198.764648438 349.223632812 198.764648438 349.223632812 203.377929688 363.7578125 c 4,141,142
 205.850585938 371.551757812 205.850585938 371.551757812 210.853515625 379.16015625 c 4,143,144
 213.583984375 383.311523438 213.583984375 383.311523438 214.090820312 383.83984375 c 132,-1,145
 214.600585938 384.37109375 214.600585938 384.37109375 215.576171875 385.72265625 c 132,-1,146
 216.56640625 387.09375 216.56640625 387.09375 218.75 389.895507812 c 132,-1,147
 220.944335938 392.71484375 220.944335938 392.71484375 221.6796875 393.8359375 c 4,148,149
 223.887695312 397.206054688 223.887695312 397.206054688 229.952148438 403.794921875 c 4,150,151
 242.586914062 417.522460938 242.586914062 417.522460938 252.791992188 426.293945312 c 4,152,153
 256.111328125 429.1484375 256.111328125 429.1484375 257.626953125 430.639648438 c 6,154,-1
 259.151367188 432.138671875 l 5,155,-1
 256.286132812 439.454101562 l 6,156,157
 248.51953125 459.286132812 248.51953125 459.286132812 243.881835938 479.317382812 c 4,158,159
 235.30859375 516.34765625 235.30859375 516.34765625 238.0859375 552.784179688 c 6,160,-1
 238.349609375 556.241210938 l 5,161,-1
 242.83203125 554.930664062 l 6,162,163
 247.311523438 553.619140625 247.311523438 553.619140625 249.205078125 552.815429688 c 132,-1,164
 251.092773438 552.012695312 251.092773438 552.012695312 251.890625 552.012695312 c 132,-1,165
 252.68359375 552.014648438 252.68359375 552.014648438 255.615234375 550.833007812 c 132,-1,166
 258.55078125 549.6484375 258.55078125 549.6484375 260.7421875 548.936523438 c 132,-1,167
 262.947265625 548.21875 262.947265625 548.21875 267.08984375 546.655273438 c 132,-1,168
 271.361328125 545.04296875 271.361328125 545.04296875 274.169921875 543.998046875 c 132,-1,169
 277.095703125 542.909179688 277.095703125 542.909179688 278.12109375 542.356445312 c 132,-1,170
 279.135742188 541.809570312 279.135742188 541.809570312 281.05078125 541.098632812 c 132,-1,171
 282.986328125 540.379882812 282.986328125 540.379882812 286.549804688 538.876953125 c 132,-1,172
 290.137695312 537.36328125 290.137695312 537.36328125 290.255859375 537.36328125 c 132,-1,173
 290.372070312 537.36328125 290.372070312 537.36328125 290.999023438 540.165039062 c 4,174,175
 293.990234375 553.532226562 293.990234375 553.532226562 302.399414062 571.0546875 c 4,176,177
 307.397460938 581.471679688 307.397460938 581.471679688 316.025390625 591.655273438 c 4,178,179
 329.477539062 607.53515625 329.477539062 607.53515625 347.036132812 618.662109375 c 4,180,181
 347.8515625 619.180664062 347.8515625 619.180664062 351.678710938 621.713867188 c 132,-1,182
 355.552734375 624.27734375 355.552734375 624.27734375 355.725585938 624.27734375 c 132,-1,183
 355.901367188 624.27734375 355.901367188 624.27734375 359.8203125 626.962890625 c 132,-1,184
 363.744140625 629.6484375 363.744140625 629.6484375 364.083007812 629.6484375 c 132,-1,185
 364.424804688 629.6484375 364.424804688 629.6484375 365.3515625 630.486328125 c 132,-1,186
 366.275390625 631.323242188 366.275390625 631.323242188 367.923828125 632.317382812 c 132,-1,187
 369.567382812 633.307617188 369.567382812 633.307617188 375.994140625 637.705078125 c 132,-1,188
 382.422851562 642.102539062 382.422851562 642.102539062 383.223632812 642.587890625 c 132,-1,189
 384.026367188 643.07421875 384.026367188 643.07421875 385.810546875 644.418945312 c 132,-1,190
 387.591796875 645.76171875 387.591796875 645.76171875 388.055664062 645.76171875 c 132,-1,191
 388.520507812 645.76171875 388.520507812 645.76171875 389.451171875 646.793945312 c 132,-1,192
 390.377929688 647.826171875 390.377929688 647.826171875 391.357421875 648.252929688 c 132,-1,193
 392.336914062 648.680664062 392.336914062 648.680664062 395.263671875 650.879882812 c 132,-1,194
 398.189453125 653.079101562 398.189453125 653.079101562 399.244140625 653.541992188 c 132,-1,195
 400.295898438 654.001953125 400.295898438 654.001953125 400.603515625 654.5 c 132,-1,196
 400.91015625 654.998046875 400.91015625 654.998046875 404.923828125 657.749023438 c 132,-1,197
 408.930664062 660.497070312 408.930664062 660.497070312 410.888671875 661.936523438 c 132,-1,198
 412.846679688 663.376953125 412.846679688 663.376953125 414.55078125 664.572265625 c 4,199,200
 418.004882812 666.997070312 418.004882812 666.997070312 421.708984375 670.05078125 c 4,201,202
 424.227539062 672.12890625 424.227539062 672.12890625 424.563476562 672.12890625 c 132,-1,203
 424.899414062 672.12890625 424.899414062 672.12890625 427.958007812 674.814453125 c 132,-1,204
 431.016601562 677.5 431.016601562 677.5 431.34375 677.5 c 4,205,206
 432.995117188 677.5 432.995117188 677.5 450.956054688 694.059570312 c 4,207,208
 461.659179688 703.927734375 461.659179688 703.927734375 467.19140625 709.110351562 c 6,209,-1
 469.783203125 711.5390625 l 5,210,-1
 464.650390625 714.095703125 l 6,211,212
 459.517578125 716.65234375 459.517578125 716.65234375 458.947265625 717.33984375 c 132,-1,213
 458.375 718.02734375 458.375 718.02734375 457.788085938 718.02734375 c 132,-1,214
 457.19921875 718.02734375 457.19921875 718.02734375 452.598632812 721.850585938 c 4,215,216
 441.578125 731.010742188 441.578125 731.010742188 437.364257812 741.708984375 c 4,217,218
 433.8203125 750.706054688 433.8203125 750.706054688 433.881835938 761.728515625 c 4,219,220
 433.92578125 769.5390625 433.92578125 769.5390625 435.201171875 774.321289062 c 4,221,222
 439.766601562 791.426757812 439.766601562 791.426757812 456.430664062 804.086914062 c 4,223,224
 459.483398438 806.40625 459.483398438 806.40625 459.90625 806.40625 c 132,-1,225
 460.329101562 806.40625 460.329101562 806.40625 460.84375 807.025390625 c 132,-1,226
 461.521484375 807.842773438 461.521484375 807.842773438 468.250976562 811.030273438 c 132,-1,227
 474.979492188 814.21875 474.979492188 814.21875 476.026367188 814.21875 c 4,228,229
 476.544921875 814.21875 476.544921875 814.21875 480.827148438 815.467773438 c 4,230,231
 499.42578125 820.896484375 499.42578125 820.896484375 519.315429688 815.439453125 c 4,232,233
 534.61328125 811.244140625 534.61328125 811.244140625 545.8984375 801.831054688 c 4,234,235
 552.245117188 796.53515625 552.245117188 796.53515625 555.17578125 792.796875 c 4,236,237
 556.42578125 791.201171875 556.42578125 791.201171875 556.884765625 790.630859375 c 4,238,239
 561.165039062 785.298828125 561.165039062 785.298828125 563.827148438 777.59765625 c 4,240,241
 565.831054688 771.798828125 565.831054688 771.798828125 566.223632812 763.681640625 c 4,242,243
 567.11328125 745.33984375 567.11328125 745.33984375 556.948242188 731.69921875 c 4,244,245
 551.524414062 724.420898438 551.524414062 724.420898438 546.194335938 720.833007812 c 4,246,247
 539.159179688 716.098632812 539.159179688 716.098632812 534.532226562 713.731445312 c 6,248,-1
 530.24609375 711.538085938 l 5,249,-1
 534.099609375 707.821289062 l 6,250,251
 545.26171875 697.05859375 545.26171875 697.05859375 550.5234375 692.579101562 c 4,252,253
 552.462890625 690.926757812 552.462890625 690.926757812 553.453125 689.866210938 c 4,254,255
 558.318359375 684.650390625 558.318359375 684.650390625 569.581054688 676.295898438 c 4,256,257
 571.543945312 674.83984375 571.543945312 674.83984375 574.553710938 672.389648438 c 132,-1,258
 577.591796875 669.916992188 577.591796875 669.916992188 579.5703125 668.466796875 c 132,-1,259
 581.5703125 666.999023438 581.5703125 666.999023438 583.478515625 665.537109375 c 132,-1,260
 585.400390625 664.065429688 585.400390625 664.065429688 587.171875 662.8515625 c 132,-1,261
 588.958007812 661.627929688 588.958007812 661.627929688 590.561523438 660.288085938 c 132,-1,262
 592.170898438 658.9453125 592.170898438 658.9453125 592.630859375 658.9453125 c 132,-1,263
 593.090820312 658.9453125 593.090820312 658.9453125 594.23828125 657.724609375 c 132,-1,264
 595.384765625 656.50390625 595.384765625 656.50390625 595.97265625 656.50390625 c 132,-1,265
 596.560546875 656.50390625 596.560546875 656.50390625 597.10546875 655.846679688 c 132,-1,266
 597.6484375 655.19140625 597.6484375 655.19140625 601.859375 652.306640625 c 4,267,268
 606.453125 649.159179688 606.453125 649.159179688 609.796875 646.856445312 c 4,269,270
 620.653320312 639.381835938 620.653320312 639.381835938 624.081054688 637.224609375 c 4,271,272
 624.831054688 636.75390625 624.831054688 636.75390625 626.278320312 635.787109375 c 132,-1,273
 627.720703125 634.822265625 627.720703125 634.822265625 631.8359375 632.172851562 c 132,-1,274
 636.024414062 629.473632812 636.024414062 629.473632812 638.01953125 628.109375 c 132,-1,275
 640.052734375 626.71875 640.052734375 626.71875 640.37109375 626.71875 c 132,-1,276
 640.688476562 626.71875 640.688476562 626.71875 642.291015625 625.498046875 c 132,-1,277
 643.889648438 624.27734375 643.889648438 624.27734375 644.169921875 624.27734375 c 132,-1,278
 644.446289062 624.27734375 644.446289062 624.27734375 648.4375 621.591796875 c 132,-1,279
 652.42578125 618.90625 652.42578125 618.90625 652.813476562 618.90625 c 132,-1,280
 653.201171875 618.90625 653.201171875 618.90625 653.86328125 618.107421875 c 132,-1,281
 654.52734375 617.307617188 654.52734375 617.307617188 656.243164062 616.170898438 c 4,282,283
 658.291015625 614.813476562 658.291015625 614.813476562 665.12890625 609.581054688 c 4,284,285
 675.935546875 601.313476562 675.935546875 601.313476562 682.861328125 592.346679688 c 4,286,287
 684.329101562 590.446289062 684.329101562 590.446289062 684.814453125 589.908203125 c 4,288,289
 696.516601562 576.90625 696.516601562 576.90625 705.48046875 549.08203125 c 4,290,291
 715.98046875 516.4921875 715.98046875 516.4921875 708.940429688 481.541015625 c 4,292,293
 704.577148438 459.877929688 704.577148438 459.877929688 690.090820312 440.290039062 c 4,294,295
 687.844726562 437.252929688 687.844726562 437.252929688 687.9765625 436.659179688 c 132,-1,296
 688.108398438 436.065429688 688.108398438 436.065429688 691.40625 434.370117188 c 4,297,298
 696.752929688 431.62109375 696.752929688 431.62109375 701.782226562 428.80078125 c 4,299,300
 704.0546875 427.525390625 704.0546875 427.525390625 706.420898438 426.235351562 c 132,-1,301
 708.740234375 424.96875 708.740234375 424.96875 709.510742188 424.282226562 c 132,-1,302
 710.282226562 423.59375 710.282226562 423.59375 710.678710938 423.59375 c 4,303,304
 711.659179688 423.59375 711.659179688 423.59375 726.806640625 413.49609375 c 4,305,306
 735.432617188 407.74609375 735.432617188 407.74609375 742.631835938 402.364257812 c 4,307,308
 749.157226562 397.486328125 749.157226562 397.486328125 750.200195312 396.751953125 c 4,309,310
 757.638671875 391.515625 757.638671875 391.515625 769.022460938 380.91015625 c 4,311,312
 783.317382812 367.59375 783.317382812 367.59375 792.9765625 356.745117188 c 4,313,314
 796.229492188 353.090820312 796.229492188 353.090820312 797.607421875 351.544921875 c 4,315,316
 802.235351562 346.3515625 802.235351562 346.3515625 803.681640625 344.319335938 c 4,317,318
 804.37890625 343.3359375 804.37890625 343.3359375 805.163085938 342.551757812 c 132,-1,319
 805.936523438 341.778320312 805.936523438 341.778320312 807.390625 339.8359375 c 132,-1,320
 808.83984375 337.897460938 808.83984375 337.897460938 809.326171875 337.3671875 c 132,-1,321
 809.807617188 336.841796875 809.807617188 336.841796875 811.03515625 335.21484375 c 132,-1,322
 812.194335938 333.673828125 812.194335938 333.673828125 814.571289062 330.62109375 c 4,323,324
 815.060546875 329.9921875 815.060546875 329.9921875 815.958984375 328.837890625 c 4,325,326
 817.137695312 327.323242188 817.137695312 327.323242188 817.265625 327.158203125 c 4,327,328
 819.705078125 324.010742188 819.705078125 324.010742188 825.956054688 315.1953125 c 4,329,330
 828.112304688 312.154296875 828.112304688 312.154296875 839.362304688 295.17578125 c 4,331,332
 840.530273438 293.4140625 840.530273438 293.4140625 846.900390625 282.96875 c 4,333,334
 849.440429688 278.80078125 849.440429688 278.80078125 851.30078125 275.400390625 c 132,-1,335
 853.196289062 271.938476562 853.196289062 271.938476562 855.61328125 267.587890625 c 4,336,337
 862.841796875 254.583984375 862.841796875 254.583984375 868.65625 241.708984375 c 4,338,339
 869.594726562 239.627929688 869.594726562 239.627929688 871.158203125 236.203125 c 4,340,341
 872.55859375 233.141601562 872.55859375 233.141601562 872.55859375 232.94140625 c 132,-1,342
 872.55859375 232.744140625 872.55859375 232.744140625 873.962890625 229.658203125 c 4,343,344
 879.786132812 216.859375 879.786132812 216.859375 886.430664062 196.942382812 c 4,345,346
 904.16796875 143.760742188 904.16796875 143.760742188 910.373046875 83.26171875 c 4,347,348
 915.52734375 33.02734375 915.52734375 33.02734375 915.52734375 1.8916015625 c 6,349,-1
 915.52734375 -0.234375 l 5,350,-1
 637.122070312 -0.234375 l 5,351,-1
 358.716796875 -0.234375 l 5,352,-1
 359.900390625 1.083984375 l 6,0,1
859.732421875 54.0869140625 m 6,353,354
 859.467773438 92.408203125 859.467773438 92.408203125 856.666015625 113.779296875 c 4,355,356
 851.528320312 152.955078125 851.528320312 152.955078125 835.7421875 198.8515625 c 4,357,358
 827.7109375 222.200195312 827.7109375 222.200195312 820.5546875 238.291015625 c 4,359,360
 819.924804688 239.70703125 819.924804688 239.70703125 817.868164062 244.39453125 c 4,361,362
 812.01171875 257.740234375 812.01171875 257.740234375 803.96875 272.403320312 c 4,363,364
 794.477539062 289.711914062 794.477539062 289.711914062 790.124023438 296.0234375 c 4,365,366
 789.26171875 297.274414062 789.26171875 297.274414062 784.454101562 304.453125 c 132,-1,367
 779.715820312 311.532226562 779.715820312 311.532226562 777.545898438 314.462890625 c 132,-1,368
 775.365234375 317.41015625 775.365234375 317.41015625 774.216796875 319.1015625 c 4,369,370
 768.072265625 328.150390625 768.072265625 328.150390625 752.755859375 345.200195312 c 4,371,372
 739.711914062 359.71484375 739.711914062 359.71484375 726.07421875 370.8046875 c 4,373,374
 716.870117188 378.288085938 716.870117188 378.288085938 715.4296875 379.258789062 c 132,-1,375
 714.106445312 380.15234375 714.106445312 380.15234375 712.158203125 381.615234375 c 4,376,377
 708.84765625 384.1015625 708.84765625 384.1015625 703.920898438 387.4609375 c 4,378,379
 702.857421875 388.186523438 702.857421875 388.186523438 701.21484375 389.169921875 c 132,-1,380
 699.5859375 390.145507812 699.5859375 390.145507812 698.302734375 391.176757812 c 132,-1,381
 697.01953125 392.208007812 697.01953125 392.208007812 695.556640625 393.041015625 c 4,382,383
 693.591796875 394.16015625 693.591796875 394.16015625 687.443359375 397.903320312 c 4,384,385
 681.592773438 401.465820312 681.592773438 401.465820312 672.8515625 406.14453125 c 4,386,387
 650.525390625 418.09375 650.525390625 418.09375 632.9375 424.875 c 4,388,389
 632.158203125 425.17578125 632.158203125 425.17578125 626.58984375 427.321289062 c 4,390,391
 613.346679688 432.420898438 613.346679688 432.420898438 600.09765625 436.4609375 c 4,392,393
 586.250976562 440.68359375 586.250976562 440.68359375 585.451171875 440.68359375 c 132,-1,394
 584.811523438 440.68359375 584.811523438 440.68359375 580.61328125 441.859375 c 4,395,396
 573.354492188 443.891601562 573.354492188 443.891601562 557.020507812 447.087890625 c 132,-1,397
 540.686523438 450.283203125 540.686523438 450.283203125 540.174804688 449.771484375 c 4,398,399
 540.05859375 449.655273438 540.05859375 449.655273438 540.994140625 444.802734375 c 4,400,401
 543.352539062 432.592773438 543.352539062 432.592773438 543.794921875 419.372070312 c 4,402,403
 544.409179688 401.038085938 544.409179688 401.038085938 535.517578125 396.971679688 c 4,404,405
 523.095703125 391.290039062 523.095703125 391.290039062 514.234375 399.356445312 c 4,406,407
 511.399414062 401.9375 511.399414062 401.9375 511.09375 414.8046875 c 4,408,409
 510.708984375 430.985351562 510.708984375 430.985351562 507.040039062 443.747070312 c 4,410,411
 503.8828125 454.724609375 503.8828125 454.724609375 500.106445312 461.6796875 c 4,412,413
 495.545898438 470.077148438 495.545898438 470.077148438 492.766601562 474.130859375 c 4,414,415
 486.111328125 483.83984375 486.111328125 483.83984375 477.783203125 492.192382812 c 4,416,417
 466.823242188 503.18359375 466.823242188 503.18359375 465.602539062 503.18359375 c 4,418,419
 464.071289062 503.18359375 464.071289062 503.18359375 456.499023438 495.102539062 c 132,-1,420
 448.92578125 487.020507812 448.92578125 487.020507812 444.78515625 480.966796875 c 4,421,422
 443.115234375 478.524414062 443.115234375 478.524414062 442.834960938 478.28125 c 132,-1,423
 442.5546875 478.038085938 442.5546875 478.038085938 439.848632812 473.3984375 c 4,424,425
 428.149414062 453.33984375 428.149414062 453.33984375 425.538085938 429.784179688 c 4,426,427
 424.806640625 423.189453125 424.806640625 423.189453125 424.493164062 422.293945312 c 4,428,429
 422.984375 417.987304688 422.984375 417.987304688 418.9453125 415.635742188 c 4,430,431
 416.260742188 414.072265625 416.260742188 414.072265625 409.66796875 414.079101562 c 132,-1,432
 403.075195312 414.084960938 403.075195312 414.084960938 400.005859375 415.49609375 c 4,433,434
 395.248046875 417.68359375 395.248046875 417.68359375 393.240234375 422.452148438 c 132,-1,435
 391.24609375 427.190429688 391.24609375 427.190429688 392.733398438 431.284179688 c 4,436,437
 393.439453125 433.231445312 393.439453125 433.231445312 388.568359375 431.426757812 c 4,438,439
 385.987304688 430.471679688 385.987304688 430.471679688 384.033203125 430.000976562 c 4,440,441
 381.794921875 429.462890625 381.794921875 429.462890625 368.408203125 424.598632812 c 4,442,443
 363.588867188 422.848632812 363.588867188 422.848632812 353.130859375 418.15234375 c 132,-1,444
 342.791992188 413.509765625 342.791992188 413.509765625 338.8671875 414.081054688 c 4,445,446
 333.877929688 414.806640625 333.877929688 414.806640625 330.41015625 418.69921875 c 4,447,448
 323.194335938 426.796875 323.194335938 426.796875 325.921875 432.544921875 c 4,449,450
 328.232421875 437.416015625 328.232421875 437.416015625 340.8203125 442.6328125 c 4,451,452
 343.48828125 443.737304688 343.48828125 443.737304688 346.435546875 445.107421875 c 132,-1,453
 349.390625 446.481445312 349.390625 446.481445312 352.5390625 447.801757812 c 4,454,455
 357.401367188 449.841796875 357.401367188 449.841796875 365.112304688 453.130859375 c 4,456,457
 367.1875 454.014648438 367.1875 454.014648438 367.1875 454.145507812 c 4,458,459
 367.1875 455.334960938 367.1875 455.334960938 363.849609375 457.849609375 c 4,460,461
 361.088867188 459.928710938 361.088867188 459.928710938 358.154296875 462.428710938 c 4,462,463
 352.736328125 467.041992188 352.736328125 467.041992188 348.448242188 469.951171875 c 4,464,465
 347.404296875 470.66015625 347.404296875 470.66015625 346.33203125 471.60546875 c 132,-1,466
 345.248046875 472.559570312 345.248046875 472.559570312 344.314453125 473.100585938 c 132,-1,467
 343.377929688 473.641601562 343.377929688 473.641601562 340.267578125 475.838867188 c 132,-1,468
 337.176757812 478.022460938 337.176757812 478.022460938 336.369140625 478.524414062 c 132,-1,469
 335.41796875 479.11328125 335.41796875 479.11328125 326.483398438 485.049804688 c 4,470,471
 324.5859375 486.309570312 324.5859375 486.309570312 323.711914062 486.80859375 c 132,-1,472
 322.815429688 487.321289062 322.815429688 487.321289062 320.470703125 488.724609375 c 4,473,474
 306.883789062 496.861328125 306.883789062 496.861328125 294.677734375 502.821289062 c 4,475,476
 285.678710938 507.215820312 285.678710938 507.215820312 281.005859375 509.279296875 c 4,477,478
 278.536132812 510.369140625 278.536132812 510.369140625 275.518554688 511.740234375 c 132,-1,479
 272.473632812 513.123046875 272.473632812 513.123046875 272.201171875 512.852539062 c 4,480,481
 270.6640625 511.315429688 270.6640625 511.315429688 276.66796875 484.013671875 c 4,482,483
 282.185546875 458.9375 282.185546875 458.9375 289.3515625 443.232421875 c 4,484,485
 290.52734375 440.653320312 290.52734375 440.653320312 290.52734375 440.393554688 c 132,-1,486
 290.52734375 440.130859375 290.52734375 440.130859375 291.748046875 437.463867188 c 132,-1,487
 292.96875 434.796875 292.96875 434.796875 292.96875 434.565429688 c 4,488,489
 292.96875 433.1171875 292.96875 433.1171875 302.233398438 416.025390625 c 4,490,491
 308.524414062 404.423828125 308.524414062 404.423828125 309.614257812 403.57421875 c 4,492,493
 311.645507812 401.990234375 311.645507812 401.990234375 312.321289062 397.059570312 c 4,494,495
 313.361328125 389.471679688 313.361328125 389.471679688 301.778320312 383.670898438 c 4,496,497
 298.133789062 381.845703125 298.133789062 381.845703125 294.166015625 381.845703125 c 132,-1,498
 290.19921875 381.845703125 290.19921875 381.845703125 287.510742188 383.629882812 c 4,499,500
 281.360351562 387.71484375 281.360351562 387.71484375 273.872070312 401.006835938 c 4,501,502
 271.484375 405.243164062 271.484375 405.243164062 271.484375 402.663085938 c 4,503,504
 271.484375 402.241210938 271.484375 402.241210938 267.944335938 399.30078125 c 4,505,506
 259.530273438 392.311523438 259.530273438 392.311523438 254.217773438 384.775390625 c 4,507,508
 242.607421875 368.307617188 242.607421875 368.307617188 238.161132812 360.1171875 c 4,509,510
 236.827148438 357.658203125 236.827148438 357.658203125 235.245117188 354.74609375 c 4,511,512
 232.120117188 348.98828125 232.120117188 348.98828125 230.977539062 341.978515625 c 4,513,514
 230.471679688 338.877929688 230.471679688 338.877929688 231.255859375 330.422851562 c 132,-1,515
 232.040039062 321.970703125 232.040039062 321.970703125 231 317.471679688 c 4,516,517
 227.080078125 300.505859375 227.080078125 300.505859375 218.859375 286.630859375 c 4,518,519
 213.821289062 278.127929688 213.821289062 278.127929688 211.307617188 274.912109375 c 4,520,521
 210.909179688 274.403320312 210.909179688 274.403320312 209.47265625 272.470703125 c 4,522,523
 208.333984375 270.938476562 208.333984375 270.938476562 207.647460938 270.017578125 c 4,524,525
 207.270507812 269.513671875 207.270507812 269.513671875 205.583984375 267.087890625 c 132,-1,526
 203.88671875 264.651367188 203.88671875 264.651367188 203.38671875 264.109375 c 132,-1,527
 202.88671875 263.56640625 202.88671875 263.56640625 198.73046875 257.837890625 c 132,-1,528
 194.58984375 252.127929688 194.58984375 252.127929688 192.3828125 249.282226562 c 132,-1,529
 190.178710938 246.440429688 190.178710938 246.440429688 189.239257812 245.146484375 c 132,-1,530
 188.278320312 243.82421875 188.278320312 243.82421875 187.530273438 242.899414062 c 132,-1,531
 186.7578125 241.94140625 186.7578125 241.94140625 184.5703125 239.013671875 c 132,-1,532
 182.376953125 236.078125 182.376953125 236.078125 179.19921875 231.984375 c 132,-1,533
 175.998046875 227.859375 175.998046875 227.859375 175.048828125 226.541992188 c 132,-1,534
 174.08203125 225.201171875 174.08203125 225.201171875 170.772460938 220.997070312 c 4,535,536
 167.12109375 216.360351562 167.12109375 216.360351562 164.897460938 213.432617188 c 4,537,538
 163.8046875 211.995117188 163.8046875 211.995117188 159.560546875 206.596679688 c 132,-1,539
 155.334960938 201.223632812 155.334960938 201.223632812 154.5546875 200.205078125 c 132,-1,540
 153.856445312 199.29296875 153.856445312 199.29296875 148.163085938 192.1484375 c 4,541,542
 141.060546875 183.23828125 141.060546875 183.23828125 139.692382812 181.624023438 c 132,-1,543
 138.434570312 180.139648438 138.434570312 180.139648438 137.20703125 178.495117188 c 132,-1,544
 135.993164062 176.864257812 135.993164062 176.864257812 135.498046875 176.32421875 c 4,545,546
 134.139648438 174.840820312 134.139648438 174.840820312 130.198242188 168.110351562 c 4,547,548
 127.696289062 163.8359375 127.696289062 163.8359375 124.283203125 156.307617188 c 4,549,550
 119.99609375 146.857421875 119.99609375 146.857421875 117.896484375 135.7265625 c 4,551,552
 115.55859375 123.3203125 115.55859375 123.3203125 118.647460938 108.896484375 c 132,-1,553
 121.759765625 94.3603515625 121.759765625 94.3603515625 128.376953125 85.525390625 c 4,554,555
 136.655273438 74.47265625 136.655273438 74.47265625 139.293945312 74.47265625 c 4,556,557
 139.759765625 74.47265625 139.759765625 74.47265625 142.51171875 72.1396484375 c 4,558,559
 150.817382812 65.0966796875 150.817382812 65.0966796875 163.0859375 60.314453125 c 4,560,561
 173.149414062 56.392578125 173.149414062 56.392578125 186.673828125 58.3896484375 c 4,562,563
 193.69921875 59.4248046875 193.69921875 59.4248046875 202.008789062 63.296875 c 4,564,565
 208.583984375 66.357421875 208.583984375 66.357421875 211.314453125 70.1455078125 c 4,566,567
 211.9375 71.0087890625 211.9375 71.0087890625 212.55859375 71.640625 c 4,568,569
 214.555664062 73.6748046875 214.555664062 73.6748046875 218.270507812 80.576171875 c 4,570,571
 224.431640625 92.0166015625 224.431640625 92.0166015625 230.114257812 98.00390625 c 4,572,573
 235.124023438 103.28125 235.124023438 103.28125 239.3203125 103.28125 c 4,574,575
 241.192382812 103.28125 241.192382812 103.28125 244.392578125 102.23046875 c 4,576,577
 250.478515625 100.232421875 250.478515625 100.232421875 251.719726562 93.02734375 c 4,578,579
 252.197265625 90.248046875 252.197265625 90.248046875 246.791015625 77.5908203125 c 4,580,581
 244.62890625 72.5302734375 244.62890625 72.5302734375 244.62890625 72.296875 c 4,582,583
 244.62890625 71.8515625 244.62890625 71.8515625 240.606445312 65.474609375 c 132,-1,584
 236.583007812 59.09765625 236.583007812 59.09765625 235.836914062 58.359375 c 4,585,586
 235.591796875 58.1181640625 235.591796875 58.1181640625 234.217773438 56.2744140625 c 132,-1,587
 232.848632812 54.4375 232.848632812 54.4375 231.779296875 53.2734375 c 132,-1,588
 230.694335938 52.0908203125 230.694335938 52.0908203125 229.530273438 50.71875 c 132,-1,589
 228.34375 49.322265625 228.34375 49.322265625 226.22265625 46.9404296875 c 4,590,591
 223.899414062 44.33203125 223.899414062 44.33203125 226.084960938 39.560546875 c 4,592,593
 229.08984375 33.0029296875 229.08984375 33.0029296875 233.333007812 31.2060546875 c 4,594,595
 241.5234375 27.734375 241.5234375 27.734375 251.93359375 38.3388671875 c 4,596,597
 255.745117188 42.2197265625 255.745117188 42.2197265625 263.529296875 55.4296875 c 4,598,599
 273.228515625 71.8916015625 273.228515625 71.8916015625 275.293945312 74.259765625 c 4,600,601
 275.749023438 74.78125 275.749023438 74.78125 276.374023438 75.96875 c 132,-1,602
 277.002929688 77.1591796875 277.002929688 77.1591796875 277.302734375 77.40234375 c 132,-1,603
 277.602539062 77.6455078125 277.602539062 77.6455078125 280.036132812 81.30859375 c 132,-1,604
 282.475585938 84.98046875 282.475585938 84.98046875 282.8515625 85.458984375 c 132,-1,605
 283.241210938 85.955078125 283.241210938 85.955078125 286.744140625 90.830078125 c 132,-1,606
 290.25 95.7119140625 290.25 95.7119140625 290.755859375 96.24609375 c 132,-1,607
 291.260742188 96.779296875 291.260742188 96.779296875 292.48046875 98.4091796875 c 132,-1,608
 293.708984375 100.046875 293.708984375 100.046875 294.677734375 101.138671875 c 132,-1,609
 295.649414062 102.232421875 295.649414062 102.232421875 298.078125 105.079101562 c 4,610,611
 307.565429688 116.198242188 307.565429688 116.198242188 316.84375 123.544921875 c 4,612,613
 324.938476562 129.954101562 324.938476562 129.954101562 327.999023438 132.239257812 c 4,614,615
 336.350585938 138.4765625 336.350585938 138.4765625 338.081054688 139.665039062 c 4,616,617
 339.487304688 140.630859375 339.487304688 140.630859375 340.845703125 141.611328125 c 4,618,619
 348.752929688 147.3203125 348.752929688 147.3203125 353.080078125 149.912109375 c 4,620,621
 353.926757812 150.418945312 353.926757812 150.418945312 357.001953125 152.297851562 c 4,622,623
 361.017578125 154.751953125 361.017578125 154.751953125 368.65234375 159.092773438 c 4,624,625
 381.250976562 166.255859375 381.250976562 166.255859375 388.833007812 169.4921875 c 4,626,627
 397.915039062 173.368164062 397.915039062 173.368164062 399.90234375 174.0625 c 4,628,629
 401.665039062 174.6796875 401.665039062 174.6796875 406.25 176.383789062 c 132,-1,630
 410.900390625 178.110351562 410.900390625 178.110351562 413.0859375 178.737304688 c 132,-1,631
 415.295898438 179.373046875 415.295898438 179.373046875 417.724609375 180.321289062 c 4,632,633
 421.993164062 181.98828125 421.993164062 181.98828125 429.6875 184.790039062 c 4,634,635
 434.16015625 186.41796875 434.16015625 186.41796875 447.265625 191.66015625 c 4,636,637
 461.196289062 197.23046875 461.196289062 197.23046875 470.947265625 203.645507812 c 4,638,639
 473.874023438 205.5703125 473.874023438 205.5703125 474.375976562 205.818359375 c 4,640,641
 485.453125 211.283203125 485.453125 211.283203125 500.244140625 228.471679688 c 4,642,643
 502.689453125 231.313476562 502.689453125 231.313476562 503.19140625 231.870117188 c 4,644,645
 506.411132812 235.443359375 506.411132812 235.443359375 512.171875 244.762695312 c 132,-1,646
 517.872070312 253.991210938 517.872070312 253.991210938 520.987304688 262.435546875 c 4,647,648
 526.485351562 277.34765625 526.485351562 277.34765625 524.813476562 295.5234375 c 4,649,650
 524.090820312 303.383789062 524.090820312 303.383789062 525.129882812 305.559570312 c 4,651,652
 527.458984375 310.439453125 527.458984375 310.439453125 539.072265625 311.138671875 c 4,653,654
 554.697265625 312.079101562 554.697265625 312.079101562 558.384765625 300.62109375 c 4,655,656
 559.2265625 298.010742188 559.2265625 298.010742188 558.90234375 291.5703125 c 4,657,658
 556.9765625 253.182617188 556.9765625 253.182617188 533.829101562 220.87109375 c 4,659,660
 530.565429688 216.31640625 530.565429688 216.31640625 530.0546875 215.762695312 c 4,661,662
 527.6640625 213.172851562 527.6640625 213.172851562 529.227539062 208.557617188 c 4,663,664
 534.438476562 193.17578125 534.438476562 193.17578125 534.399414062 174.08203125 c 4,665,666
 534.375 162.118164062 534.375 162.118164062 533.268554688 155.861328125 c 4,667,668
 529.502929688 134.578125 529.502929688 134.578125 518.032226562 111.837890625 c 4,669,670
 512.599609375 101.069335938 512.599609375 101.069335938 507.703125 93.8388671875 c 4,671,672
 494.461914062 74.28515625 494.461914062 74.28515625 463.880859375 50.546875 c 4,673,674
 460.3984375 47.841796875 460.3984375 47.841796875 458.544921875 46.2744140625 c 132,-1,675
 456.668945312 44.6875 456.668945312 44.6875 456.303710938 44.6875 c 132,-1,676
 455.940429688 44.6875 455.940429688 44.6875 454.328125 43.3447265625 c 4,677,678
 451.63671875 41.1005859375 451.63671875 41.1005859375 448.987304688 39.31640625 c 4,679,680
 445.325195312 36.849609375 445.325195312 36.849609375 438.521484375 31.76171875 c 4,681,682
 431.974609375 26.8662109375 431.974609375 26.8662109375 431.18359375 26.376953125 c 4,683,684
 425.78125 23.0419921875 425.78125 23.0419921875 425.78125 21.634765625 c 4,685,686
 425.78125 21.25 425.78125 21.25 642.870117188 21.25 c 6,687,-1
 859.959960938 21.25 l 5,688,-1
 859.732421875 54.0869140625 l 6,353,354
152.919921875 108.62890625 m 4,689,690
 148.204101562 110.234375 148.204101562 110.234375 146.458984375 115.198242188 c 4,691,692
 145.0546875 119.197265625 145.0546875 119.197265625 146.249023438 125.498046875 c 4,693,694
 148.55859375 137.686523438 148.55859375 137.686523438 155.561523438 146.79296875 c 4,695,696
 161.359375 154.333984375 161.359375 154.333984375 166.237304688 157.623046875 c 4,697,698
 178.76953125 166.077148438 178.76953125 166.077148438 184.094726562 166.962890625 c 4,699,700
 187.3828125 167.509765625 187.3828125 167.509765625 192.3828125 165.318359375 c 4,701,702
 199.64453125 162.135742188 199.64453125 162.135742188 201.998046875 154.692382812 c 4,703,704
 203.532226562 149.838867188 203.532226562 149.838867188 198.736328125 145.229492188 c 4,705,706
 195.8984375 142.500976562 195.8984375 142.500976562 194.017578125 141.616210938 c 4,707,708
 188.18359375 138.869140625 188.18359375 138.869140625 183.813476562 133.454101562 c 4,709,710
 182.004882812 131.212890625 182.004882812 131.212890625 181.68359375 130.817382812 c 4,711,712
 178.965820312 127.46875 178.965820312 127.46875 178.2421875 121.006835938 c 4,713,714
 177.0859375 110.703125 177.0859375 110.703125 167.46875 108.435546875 c 4,715,716
 159.205078125 106.48828125 159.205078125 106.48828125 152.919921875 108.62890625 c 4,689,690
270.5078125 286.325195312 m 4,717,718
 264.557617188 288.362304688 264.557617188 288.362304688 261.514648438 291.42578125 c 4,719,720
 257.8125 295.150390625 257.8125 295.150390625 257.8125 300.862304688 c 4,721,722
 257.8125 303.75 257.8125 303.75 260.149414062 308.374023438 c 4,723,724
 263.9375 315.868164062 263.9375 315.868164062 267.91796875 321.54296875 c 132,-1,725
 271.923828125 327.254882812 271.923828125 327.254882812 273.479492188 329.087890625 c 4,726,727
 274.759765625 330.594726562 274.759765625 330.594726562 275.920898438 331.967773438 c 4,728,729
 286.065429688 343.94921875 286.065429688 343.94921875 296.924804688 350.595703125 c 4,730,731
 298.806640625 351.748046875 298.806640625 351.748046875 301.844726562 353.828125 c 4,732,733
 310.619140625 359.833984375 310.619140625 359.833984375 323.486328125 364.787109375 c 4,734,735
 327.807617188 366.44921875 327.807617188 366.44921875 330.34375 367.453125 c 4,736,737
 343.985351562 372.852539062 343.985351562 372.852539062 351.666015625 369.850585938 c 4,738,739
 360.375 366.446289062 360.375 366.446289062 361.205078125 356.403320312 c 4,740,741
 361.87109375 348.313476562 361.87109375 348.313476562 349.365234375 343.137695312 c 4,742,743
 346.936523438 342.1328125 346.936523438 342.1328125 343.643554688 340.657226562 c 6,744,-1
 340.36328125 339.1875 l 5,745,-1
 342.076171875 336.346679688 l 6,746,747
 348.712890625 325.341796875 348.712890625 325.341796875 341.919921875 312.162109375 c 4,748,749
 337.466796875 303.522460938 337.466796875 303.522460938 328.125 300.5078125 c 4,750,751
 324.461914062 299.326171875 324.461914062 299.326171875 317.3828125 299.34375 c 132,-1,752
 310.3046875 299.360351562 310.3046875 299.360351562 305.595703125 300.646484375 c 132,-1,753
 300.885742188 301.932617188 300.885742188 301.932617188 298.891601562 303.192382812 c 132,-1,754
 296.893554688 304.453125 296.893554688 304.453125 296.42578125 304.453125 c 4,755,756
 295.092773438 304.453125 295.092773438 304.453125 289.59375 293.721679688 c 4,757,758
 287.3671875 289.375 287.3671875 289.375 283.538085938 287.149414062 c 4,759,760
 277.817382812 283.821289062 277.817382812 283.821289062 270.5078125 286.325195312 c 4,717,718
657.272460938 451.547851562 m 4,761,762
 661.271484375 456.248046875 661.271484375 456.248046875 665.40625 463.676757812 c 4,763,764
 677.517578125 485.438476562 677.517578125 485.438476562 678.55078125 509.287109375 c 4,765,766
 679.478515625 530.698242188 679.478515625 530.698242188 668.129882812 554.383789062 c 4,767,768
 660.653320312 569.985351562 660.653320312 569.985351562 647.595703125 583.078125 c 4,769,770
 637.366210938 593.338867188 637.366210938 593.338867188 627.875976562 599.552734375 c 4,771,772
 624.990234375 601.443359375 624.990234375 601.443359375 619.326171875 605.478515625 c 4,773,774
 614.53125 608.893554688 614.53125 608.893554688 613.293945312 609.729492188 c 132,-1,775
 612.076171875 610.551757812 612.076171875 610.551757812 609.619140625 612.3203125 c 4,776,777
 604.55078125 615.969726562 604.55078125 615.969726562 602.58984375 617.197265625 c 4,778,779
 601.805664062 617.688476562 601.805664062 617.688476562 600.287109375 618.90625 c 4,780,781
 598.03515625 620.712890625 598.03515625 620.712890625 590.594726562 625.7421875 c 4,782,783
 586.833984375 628.284179688 586.833984375 628.284179688 584.47265625 630.077148438 c 4,784,785
 580.1015625 633.395507812 580.1015625 633.395507812 575.47265625 636.484375 c 4,786,787
 574.3984375 637.19921875 574.3984375 637.19921875 572.278320312 638.681640625 c 132,-1,788
 570.076171875 640.219726562 570.076171875 640.219726562 569.118164062 640.87890625 c 4,789,790
 565.399414062 643.44140625 565.399414062 643.44140625 549.971679688 655.0390625 c 4,791,792
 526.302734375 672.83203125 526.302734375 672.83203125 502.9453125 695.41015625 c 4,793,794
 500.764648438 697.51953125 500.764648438 697.51953125 500.015625 697.51953125 c 132,-1,795
 499.265625 697.51953125 499.265625 697.51953125 496.513671875 694.956054688 c 4,796,797
 486.762695312 685.874023438 486.762695312 685.874023438 483.3984375 683.138671875 c 4,798,799
 481.196289062 681.345703125 481.196289062 681.345703125 480.224609375 680.247070312 c 132,-1,800
 479.2734375 679.171875 479.2734375 679.171875 471.358398438 672.4765625 c 132,-1,801
 463.443359375 665.78125 463.443359375 665.78125 463.123046875 665.78125 c 132,-1,802
 462.794921875 665.78125 462.794921875 665.78125 459.791992188 663.182617188 c 4,803,804
 454.625 658.712890625 454.625 658.712890625 449.235351562 654.794921875 c 4,805,806
 447.932617188 653.848632812 447.932617188 653.848632812 442.0859375 649.426757812 c 132,-1,807
 436.274414062 645.03125 436.274414062 645.03125 434.5703125 643.849609375 c 4,808,809
 431.223632812 641.529296875 431.223632812 641.529296875 427.07421875 638.557617188 c 4,810,811
 425.499023438 637.4296875 425.499023438 637.4296875 423.828125 636.265625 c 132,-1,812
 422.049804688 635.025390625 422.049804688 635.025390625 417.96875 632.1171875 c 4,813,814
 410.943359375 627.11328125 410.943359375 627.11328125 408.918945312 625.7421875 c 4,815,816
 407.826171875 625.001953125 407.826171875 625.001953125 403.095703125 621.591796875 c 132,-1,817
 398.352539062 618.171875 398.352539062 618.171875 397.401367188 617.631835938 c 132,-1,818
 396.4453125 617.086914062 396.4453125 617.086914062 395.3359375 616.044921875 c 132,-1,819
 394.225585938 615 394.225585938 615 393.83203125 615 c 132,-1,820
 393.438476562 615 393.438476562 615 391.854492188 613.657226562 c 4,821,822
 387.952148438 610.3515625 387.952148438 610.3515625 382.391601562 606.943359375 c 4,823,824
 381.600585938 606.458984375 381.600585938 606.458984375 380.049804688 605.234375 c 132,-1,825
 378.51171875 604.017578125 378.51171875 604.017578125 376.874023438 602.893554688 c 4,826,827
 366.103515625 595.4921875 366.103515625 595.4921875 359.11328125 589.553710938 c 4,828,829
 349.047851562 581.00390625 349.047851562 581.00390625 343.962890625 574.189453125 c 4,830,831
 342.53515625 572.275390625 342.53515625 572.275390625 342.232421875 572.03125 c 132,-1,832
 341.930664062 571.786132812 341.930664062 571.786132812 338.635742188 566.916992188 c 4,833,834
 329.610351562 553.572265625 329.610351562 553.572265625 324.515625 535.654296875 c 4,835,836
 321.77734375 526.021484375 321.77734375 526.021484375 321.77734375 522.19140625 c 4,837,838
 321.77734375 521.608398438 321.77734375 521.608398438 331.888671875 516.076171875 c 4,839,840
 334.51171875 514.640625 334.51171875 514.640625 338.37890625 512.204101562 c 4,841,842
 346.984375 506.784179688 346.984375 506.784179688 348.548828125 505.869140625 c 4,843,844
 349.39453125 505.375976562 349.39453125 505.375976562 351.07421875 504.16015625 c 132,-1,845
 352.774414062 502.931640625 352.774414062 502.931640625 353.56640625 502.451171875 c 132,-1,846
 354.3671875 501.963867188 354.3671875 501.963867188 357.197265625 500.009765625 c 132,-1,847
 360.034179688 498.05078125 360.034179688 498.05078125 360.939453125 497.514648438 c 132,-1,848
 361.856445312 496.96875 361.856445312 496.96875 362.96484375 495.927734375 c 132,-1,849
 364.075195312 494.8828125 364.075195312 494.8828125 364.564453125 494.8828125 c 132,-1,850
 365.052734375 494.8828125 365.052734375 494.8828125 366.455078125 493.41796875 c 132,-1,851
 367.857421875 491.953125 367.857421875 491.953125 368.260742188 491.953125 c 4,852,853
 368.977539062 491.953125 368.977539062 491.953125 379.892578125 482.797851562 c 4,854,855
 384.693359375 478.76953125 384.693359375 478.76953125 385.190429688 478.76953125 c 132,-1,856
 385.6875 478.76953125 385.6875 478.76953125 386.368164062 477.795898438 c 132,-1,857
 387.05078125 476.821289062 387.05078125 476.821289062 390.913085938 473.564453125 c 132,-1,858
 394.771484375 470.30859375 394.771484375 470.30859375 397.856445312 467.389648438 c 132,-1,859
 400.936523438 464.47265625 400.936523438 464.47265625 401.359375 464.907226562 c 132,-1,860
 401.783203125 465.345703125 401.783203125 465.345703125 403.796875 470.420898438 c 4,861,862
 407.70703125 480.271484375 407.70703125 480.271484375 411.744140625 487.0703125 c 4,863,864
 418.1796875 497.905273438 418.1796875 497.905273438 420.630859375 500.565429688 c 4,865,866
 422.03515625 502.08984375 422.03515625 502.08984375 423.385742188 504.022460938 c 4,867,868
 430.227539062 513.815429688 430.227539062 513.815429688 439.758789062 521.0859375 c 4,869,870
 441.40625 522.342773438 441.40625 522.342773438 441.40625 522.731445312 c 132,-1,871
 441.40625 523.12109375 441.40625 523.12109375 437.791992188 523.458007812 c 4,872,873
 424.301757812 524.72265625 424.301757812 524.72265625 425.41015625 538.533203125 c 4,874,875
 426.002929688 545.922851562 426.002929688 545.922851562 432.946289062 549.212890625 c 6,876,-1
 436.279296875 550.791015625 l 5,877,-1
 459.330078125 550.935546875 l 5,878,-1
 482.380859375 551.080078125 l 5,879,-1
 482.5234375 570.955078125 l 5,880,-1
 482.666015625 590.830078125 l 5,881,-1
 483.8828125 593.211914062 l 6,882,883
 487.66796875 600.624023438 487.66796875 600.624023438 500.244140625 600.577148438 c 4,884,885
 511.977539062 600.533203125 511.977539062 600.533203125 515.498046875 593.515625 c 6,886,-1
 516.845703125 590.830078125 l 5,887,-1
 516.98828125 570.950195312 l 5,888,-1
 517.130859375 551.0703125 l 5,889,-1
 540.669921875 550.930664062 l 5,890,-1
 564.208984375 550.791015625 l 5,891,-1
 567.138671875 549.614257812 l 6,892,893
 575.1953125 546.379882812 575.1953125 546.379882812 575.1953125 537.151367188 c 4,894,895
 575.1953125 531.083007812 575.1953125 531.083007812 572.716796875 528.422851562 c 4,896,897
 571.77734375 527.412109375 571.77734375 527.412109375 571.77734375 527.120117188 c 132,-1,898
 571.77734375 526.828125 571.77734375 526.828125 568.989257812 525.137695312 c 6,899,-1
 566.202148438 523.447265625 l 5,900,-1
 541.645507812 523.29296875 l 5,901,-1
 517.08984375 523.138671875 l 5,902,-1
 517.08984375 507.849609375 l 6,903,904
 517.08984375 492.561523438 517.08984375 492.561523438 517.82421875 491.951171875 c 4,905,906
 523.0859375 487.591796875 523.0859375 487.591796875 526.186523438 479.513671875 c 4,907,908
 526.439453125 478.850585938 526.439453125 478.850585938 530.67578125 478.52734375 c 132,-1,909
 534.970703125 478.198242188 534.970703125 478.198242188 541.50390625 477.500976562 c 132,-1,910
 548.135742188 476.794921875 548.135742188 476.794921875 553.7109375 476.310546875 c 4,911,912
 580.170898438 474.00390625 580.170898438 474.00390625 606.053710938 466.772460938 c 4,913,914
 610.30078125 465.5859375 610.30078125 465.5859375 611.052734375 465.5859375 c 132,-1,915
 611.860351562 465.5859375 611.860351562 465.5859375 625.244140625 461.46484375 c 4,916,917
 636.181640625 458.095703125 636.181640625 458.095703125 645.01953125 454.8125 c 4,918,919
 649.211914062 453.255859375 649.211914062 453.255859375 651.73046875 452.374023438 c 132,-1,920
 654.291015625 451.477539062 654.291015625 451.477539062 655.1484375 450.978515625 c 4,921,922
 656.244140625 450.33984375 656.244140625 450.33984375 657.272460938 451.547851562 c 4,761,762
511.474609375 734.40625 m 132,-1,924
 514.399414062 735.221679688 514.399414062 735.221679688 516.254882812 735.665039062 c 4,925,926
 523.944335938 737.50390625 523.944335938 737.50390625 529.194335938 745.169921875 c 4,927,928
 534.984375 753.623046875 534.984375 753.623046875 532.801757812 767.51171875 c 4,929,930
 530.052734375 785.006835938 530.052734375 785.006835938 511.86328125 788.614257812 c 4,931,932
 489.333984375 793.081054688 489.333984375 793.081054688 476.932617188 784.083007812 c 4,933,934
 466.005859375 776.154296875 466.005859375 776.154296875 466.948242188 759.219726562 c 4,935,936
 467.459960938 750.0546875 467.459960938 750.0546875 470.805664062 745.169921875 c 4,937,938
 476.125 737.403320312 476.125 737.403320312 483.233398438 735.826171875 c 4,939,940
 484.627929688 735.516601562 484.627929688 735.516601562 486.833984375 734.825195312 c 4,941,942
 492.208984375 733.142578125 492.208984375 733.142578125 501.708984375 733.403320312 c 4,943,923
 508.547851562 733.590820312 508.547851562 733.590820312 511.474609375 734.40625 c 132,-1,924
EndSplineSet
EndChar

StartChar: B
Encoding: 66 66 37
Width: 1000
GlyphClass: 2
Flags: W
LayerCount: 2
Fore
SplineSet
370.361328125 -7.2177734375 m 4,0,1
 365.427734375 -6.7255859375 365.427734375 -6.7255859375 251.953125 9.123046875 c 4,2,3
 225.350585938 12.83984375 225.350585938 12.83984375 220.458984375 13.09765625 c 132,-1,4
 215.571289062 13.3544921875 215.571289062 13.3544921875 208.984375 12.5732421875 c 132,-1,5
 202.399414062 11.79296875 202.399414062 11.79296875 198.486328125 11.7822265625 c 4,6,7
 178.515625 11.734375 178.515625 11.734375 159.94921875 2.412109375 c 4,8,9
 153.537109375 -0.806640625 153.537109375 -0.806640625 149.568359375 -4.4599609375 c 6,10,-1
 147.525390625 -6.33984375 l 5,11,-1
 146.801757812 -5.208984375 l 6,12,13
 146.0859375 -4.0888671875 146.0859375 -4.0888671875 123.044921875 33.7080078125 c 6,14,-1
 100.01171875 71.494140625 l 5,15,-1
 103.350585938 74.88671875 l 6,16,17
 111.397460938 83.0625 111.397460938 83.0625 126.220703125 90.40625 c 4,18,19
 153.352539062 103.84765625 153.352539062 103.84765625 180.49609375 107.96484375 c 4,20,21
 193.396484375 109.922851562 193.396484375 109.922851562 217.041015625 109.934570312 c 4,22,23
 235.59375 109.943359375 235.59375 109.943359375 241.025390625 110.424804688 c 132,-1,24
 246.458007812 110.905273438 246.458007812 110.905273438 260.068359375 108.73828125 c 4,25,26
 344.575195312 95.28515625 344.575195312 95.28515625 357.484375 95.2880859375 c 4,27,28
 368.97265625 95.2880859375 368.97265625 95.2880859375 379.078125 97.0302734375 c 4,29,30
 388.452148438 98.646484375 388.452148438 98.646484375 396.7890625 103.663085938 c 4,31,32
 418.186523438 116.540039062 418.186523438 116.540039062 431.05078125 132.223632812 c 6,33,-1
 433.111328125 134.736328125 l 5,34,-1
 428.8359375 135.303710938 l 6,35,36
 389.540039062 140.521484375 389.540039062 140.521484375 347.629882812 154.57421875 c 4,37,38
 338.228515625 157.7265625 338.228515625 157.7265625 335.74609375 158.724609375 c 132,-1,39
 333.263671875 159.72265625 333.263671875 159.72265625 333.368164062 160.309570312 c 132,-1,40
 333.486328125 160.966796875 333.486328125 160.966796875 357.708007812 221.01953125 c 132,-1,41
 381.993164062 281.232421875 381.993164062 281.232421875 382.834960938 283.352539062 c 6,42,-1
 383.739257812 285.626953125 l 5,43,-1
 372.16796875 292.56640625 l 6,44,45
 339.21875 312.323242188 339.21875 312.323242188 325.994140625 325.513671875 c 4,46,47
 313.91015625 337.564453125 313.91015625 337.564453125 303.458007812 358.2265625 c 4,48,49
 291.834960938 381.201171875 291.834960938 381.201171875 288.25390625 409.0078125 c 4,50,51
 287.334960938 416.141601562 287.334960938 416.141601562 287.330078125 429.44921875 c 132,-1,52
 287.325195312 442.7578125 287.325195312 442.7578125 288.23828125 449.291015625 c 4,53,54
 294.3671875 493.157226562 294.3671875 493.157226562 313.405273438 521.8046875 c 4,55,56
 325.083984375 539.380859375 325.083984375 539.380859375 342.7734375 554.092773438 c 4,57,58
 346.918945312 557.541015625 346.918945312 557.541015625 357.91015625 566.013671875 c 4,59,60
 389.64453125 590.47265625 389.64453125 590.47265625 413.57421875 611.120117188 c 4,61,62
 439.358398438 633.370117188 439.358398438 633.370117188 465.73828125 662.975585938 c 6,63,-1
 469.708984375 667.430664062 l 5,64,-1
 465.93359375 669.626953125 l 6,65,66
 445.970703125 681.239257812 445.970703125 681.239257812 438.600585938 699.594726562 c 4,67,68
 427.15625 728.099609375 427.15625 728.099609375 439.498046875 754.436523438 c 4,69,70
 444.34375 764.779296875 444.34375 764.779296875 453.345703125 773.774414062 c 4,71,72
 467.203125 787.625976562 467.203125 787.625976562 485.969726562 791.657226562 c 4,73,74
 499.553710938 794.575195312 499.553710938 794.575195312 512.784179688 791.918945312 c 4,75,76
 525.553710938 789.356445312 525.553710938 789.356445312 536.376953125 782.225585938 c 4,77,78
 547.95703125 774.595703125 547.95703125 774.595703125 555.590820312 763.01171875 c 4,79,80
 565.485351562 747.99609375 565.485351562 747.99609375 566.248046875 729.076171875 c 4,81,82
 567.841796875 689.643554688 567.841796875 689.643554688 533.806640625 669.529296875 c 6,83,-1
 530.260742188 667.43359375 l 5,84,-1
 533.548828125 663.708984375 l 6,85,86
 559.283203125 634.56640625 559.283203125 634.56640625 580.078125 616.075195312 c 4,87,88
 605.735351562 593.260742188 605.735351562 593.260742188 640.573242188 567.014648438 c 4,89,90
 652.485351562 558.040039062 652.485351562 558.040039062 657.663085938 553.598632812 c 4,91,92
 686.114257812 529.19140625 686.114257812 529.19140625 697.915039062 498.607421875 c 4,93,94
 707.4375 473.9296875 707.4375 473.9296875 711.26171875 447.58203125 c 4,95,96
 714.87109375 422.709960938 714.87109375 422.709960938 707.923828125 390.208984375 c 4,97,98
 701.826171875 361.681640625 701.826171875 361.681640625 683.876953125 337.71875 c 4,99,100
 668.571289062 317.284179688 668.571289062 317.284179688 626.118164062 291.619140625 c 6,101,-1
 616.25 285.653320312 l 5,102,-1
 617.158203125 283.365234375 l 6,103,104
 618.04296875 281.134765625 618.04296875 281.134765625 642.290039062 221.01953125 c 132,-1,105
 666.513671875 160.966796875 666.513671875 160.966796875 666.631835938 160.286132812 c 132,-1,106
 666.748046875 159.611328125 666.748046875 159.611328125 658.331054688 156.73828125 c 4,107,108
 613.864257812 141.5546875 613.864257812 141.5546875 576.171875 136.08203125 c 4,109,110
 567.618164062 134.841796875 567.618164062 134.841796875 567.228515625 134.83984375 c 4,111,112
 566.452148438 134.8359375 566.452148438 134.8359375 570.099609375 130.62109375 c 132,-1,113
 573.747070312 126.407226562 573.747070312 126.407226562 578.760742188 121.396484375 c 132,-1,114
 583.774414062 116.38671875 583.774414062 116.38671875 586.442382812 114.375976562 c 4,115,116
 602.936523438 101.948242188 602.936523438 101.948242188 613.41015625 98.76171875 c 4,117,118
 624.82421875 95.287109375 624.82421875 95.287109375 642.521484375 95.287109375 c 4,119,120
 655.475585938 95.287109375 655.475585938 95.287109375 741.165039062 108.940429688 c 4,121,122
 753.571289062 110.91796875 753.571289062 110.91796875 758.743164062 110.426757812 c 132,-1,123
 763.922851562 109.935546875 763.922851562 109.935546875 782.71484375 109.930664062 c 4,124,125
 807.268554688 109.923828125 807.268554688 109.923828125 820.658203125 107.708984375 c 4,126,127
 849.932617188 102.865234375 849.932617188 102.865234375 875.48828125 89.591796875 c 4,128,129
 888.0078125 83.087890625 888.0078125 83.087890625 895.09375 76.3125 c 6,130,-1
 900.046875 71.576171875 l 5,131,-1
 877.1875 34.4814453125 l 6,132,133
 854.467773438 -2.3876953125 854.467773438 -2.3876953125 853.161132812 -4.48046875 c 6,134,-1
 851.993164062 -6.3466796875 l 5,135,-1
 849.838867188 -4.361328125 l 6,136,137
 843.01953125 1.92578125 843.01953125 1.92578125 830.532226562 6.087890625 c 4,138,139
 813.46484375 11.7783203125 813.46484375 11.7783203125 801.26953125 11.7880859375 c 4,140,141
 797.151367188 11.7880859375 797.151367188 11.7880859375 790.52734375 12.5732421875 c 132,-1,142
 783.934570312 13.3544921875 783.934570312 13.3544921875 779.052734375 13.1005859375 c 132,-1,143
 774.1640625 12.8447265625 774.1640625 12.8447265625 704.1015625 3.0654296875 c 132,-1,144
 634.029296875 -6.71484375 634.029296875 -6.71484375 628.9765625 -7.2275390625 c 4,145,146
 612.309570312 -8.91796875 612.309570312 -8.91796875 595.743164062 -5.724609375 c 4,147,148
 571.7265625 -1.0947265625 571.7265625 -1.0947265625 550.98046875 12.56640625 c 4,149,150
 543.741210938 17.3349609375 543.741210938 17.3349609375 530.668945312 28.6953125 c 132,-1,151
 517.596679688 40.056640625 517.596679688 40.056640625 513.553710938 45.09375 c 4,152,153
 506.129882812 54.34375 506.129882812 54.34375 501.436523438 73.9248046875 c 4,154,155
 500.295898438 78.6865234375 500.295898438 78.6865234375 500.026367188 78.6826171875 c 132,-1,156
 499.755859375 78.6826171875 499.755859375 78.6826171875 498.126953125 72.701171875 c 4,157,158
 492.9453125 53.685546875 492.9453125 53.685546875 485.381835938 43.6474609375 c 4,159,160
 474.1640625 28.76171875 474.1640625 28.76171875 451.079101562 14.4365234375 c 4,161,162
 426.03125 -1.1083984375 426.03125 -1.1083984375 402.754882812 -5.7353515625 c 4,163,164
 386.9609375 -8.8740234375 386.9609375 -8.8740234375 370.361328125 -7.2177734375 c 4,0,1
381.34765625 26.19140625 m 4,165,166
 419.471679688 30.5361328125 419.471679688 30.5361328125 439.94140625 47.70703125 c 4,167,168
 453.91796875 59.431640625 453.91796875 59.431640625 466.778320312 78.9296875 c 4,169,170
 480.7265625 100.076171875 480.7265625 100.076171875 482.240234375 128.612304688 c 6,171,-1
 482.5703125 134.837890625 l 5,172,-1
 474.731445312 134.837890625 l 5,173,-1
 466.893554688 134.837890625 l 5,174,-1
 462.154296875 127.6640625 l 6,175,176
 443.8125 99.8984375 443.8125 99.8984375 426.490234375 86.83203125 c 4,177,178
 409.533203125 74.0390625 409.533203125 74.0390625 381.907226562 66.984375 c 4,179,180
 373.036132812 64.7197265625 373.036132812 64.7197265625 361.81640625 64.2255859375 c 4,181,182
 354.188476562 63.8896484375 354.188476562 63.8896484375 315.861328125 69.8818359375 c 4,183,184
 281.618164062 75.2353515625 281.618164062 75.2353515625 260.25390625 80.7900390625 c 4,185,186
 244.880859375 84.787109375 244.880859375 84.787109375 224.12109375 84.7880859375 c 4,187,188
 204.829101562 84.7880859375 204.829101562 84.7880859375 187.744140625 82.2919921875 c 4,189,190
 160.985351562 78.380859375 160.985351562 78.380859375 141.97265625 68.8544921875 c 6,191,-1
 138.193359375 66.9599609375 l 5,192,-1
 142.017578125 60.73828125 l 6,193,194
 159.125976562 32.900390625 159.125976562 32.900390625 160.526367188 30.65625 c 6,195,-1
 161.704101562 28.76953125 l 5,196,-1
 163.249023438 30.2646484375 l 6,197,198
 167.370117188 34.2490234375 167.370117188 34.2490234375 174.845703125 35.912109375 c 4,199,200
 201.403320312 41.8173828125 201.403320312 41.8173828125 217.7734375 41.787109375 c 4,201,202
 229.739257812 41.7646484375 229.739257812 41.7646484375 237.060546875 40.466796875 c 132,-1,203
 244.395507812 39.1669921875 244.395507812 39.1669921875 258.119140625 37.4423828125 c 4,204,205
 279.572265625 34.7470703125 279.572265625 34.7470703125 302.94140625 31.09375 c 4,206,207
 325.772460938 27.5234375 325.772460938 27.5234375 343.75 25.7265625 c 132,-1,208
 361.608398438 23.9404296875 361.608398438 23.9404296875 381.34765625 26.19140625 c 4,165,166
664.094726562 26.62109375 m 4,209,210
 679.991210938 28.46875 679.991210938 28.46875 706.54296875 32.544921875 c 4,211,212
 723.901367188 35.2099609375 723.901367188 35.2099609375 741.107421875 37.4140625 c 132,-1,213
 758.329101562 39.6201171875 758.329101562 39.6201171875 764.056640625 40.701171875 c 132,-1,214
 769.776367188 41.78125 769.776367188 41.78125 781.73828125 41.794921875 c 4,215,216
 798.059570312 41.814453125 798.059570312 41.814453125 824.513671875 35.9482421875 c 4,217,218
 831.590820312 34.3779296875 831.590820312 34.3779296875 836.240234375 30.568359375 c 4,219,220
 838.276367188 28.8994140625 838.276367188 28.8994140625 838.735351562 29.5009765625 c 4,221,222
 839.5546875 30.5712890625 839.5546875 30.5712890625 850.462890625 48.4814453125 c 132,-1,223
 861.372070312 66.3916015625 861.372070312 66.3916015625 861.405273438 66.72265625 c 4,224,225
 861.515625 67.796875 861.515625 67.796875 849.741210938 72.333984375 c 132,-1,226
 837.967773438 76.8720703125 837.967773438 76.8720703125 829.833984375 78.890625 c 4,227,228
 782.724609375 90.578125 782.724609375 90.578125 746.086914062 82.615234375 c 4,229,230
 741.458984375 81.609375 741.458984375 81.609375 733.3984375 79.39453125 c 4,231,232
 718.213867188 75.2216796875 718.213867188 75.2216796875 685.791015625 70.173828125 c 4,233,234
 645.514648438 63.9033203125 645.514648438 63.9033203125 637.893554688 64.2431640625 c 4,235,236
 621.844726562 64.9609375 621.844726562 64.9609375 607.177734375 70.2255859375 c 4,237,238
 587.62109375 77.24609375 587.62109375 77.24609375 575.423828125 85.4296875 c 4,239,240
 557.721679688 97.3076171875 557.721679688 97.3076171875 538.70703125 125.682617188 c 6,241,-1
 532.571289062 134.837890625 l 5,242,-1
 524.754882812 134.837890625 l 5,243,-1
 516.939453125 134.837890625 l 5,244,-1
 517.243164062 128.856445312 l 6,245,246
 518.899414062 96.2470703125 518.899414062 96.2470703125 539.836914062 68.919921875 c 132,-1,247
 560.784179688 41.5791015625 560.784179688 41.5791015625 587.959960938 32.5751953125 c 4,248,249
 621.036132812 21.6171875 621.036132812 21.6171875 664.094726562 26.62109375 c 4,209,210
519.287109375 162.184570312 m 4,250,251
 548.120117188 163.736328125 548.120117188 163.736328125 582.579101562 170.74609375 c 4,252,253
 624.51171875 179.27734375 624.51171875 179.27734375 624.51171875 180.705078125 c 4,254,255
 624.51171875 182.755859375 624.51171875 182.755859375 585.44921875 189.232421875 c 4,256,257
 497.268554688 203.854492188 497.268554688 203.854492188 411.1328125 188.750976562 c 4,258,259
 375.48828125 182.500976562 375.48828125 182.500976562 375.48828125 180.715820312 c 4,260,261
 375.48828125 179.388671875 375.48828125 179.388671875 411.62109375 171.751953125 c 4,262,263
 450.07421875 163.625 450.07421875 163.625 483.642578125 162.017578125 c 4,264,265
 489.212890625 161.751953125 489.212890625 161.751953125 501.272460938 161.80859375 c 132,-1,266
 513.33203125 161.864257812 513.33203125 161.864257812 519.287109375 162.184570312 c 4,250,251
400.390625 220.969726562 m 4,267,268
 431.271484375 226.756835938 431.271484375 226.756835938 466.796875 229.1640625 c 4,269,270
 475.764648438 229.771484375 475.764648438 229.771484375 499.799804688 229.772460938 c 132,-1,271
 523.834960938 229.774414062 523.834960938 229.774414062 532.71484375 229.168945312 c 4,272,273
 573.4375 226.388671875 573.4375 226.388671875 604.978515625 219.859375 c 4,274,275
 609.615234375 218.8984375 609.615234375 218.8984375 609.693359375 218.982421875 c 132,-1,276
 609.795898438 219.091796875 609.795898438 219.091796875 598.18359375 248.750976562 c 132,-1,277
 586.572265625 278.409179688 586.572265625 278.409179688 586.333007812 278.6484375 c 4,278,279
 585.42578125 279.555664062 585.42578125 279.555664062 561.279296875 282.25390625 c 4,280,281
 499.581054688 289.153320312 499.581054688 289.153320312 437.98828125 282.24609375 c 4,282,283
 413.979492188 279.5546875 413.979492188 279.5546875 413.10546875 278.556640625 c 4,284,285
 412.748046875 278.147460938 412.748046875 278.147460938 402.116210938 250.8046875 c 4,286,287
 391.349609375 223.120117188 391.349609375 223.120117188 390.55859375 221.106445312 c 4,288,289
 389.635742188 218.751953125 389.635742188 218.751953125 390.49609375 219.014648438 c 132,-1,290
 391.360351562 219.278320312 391.360351562 219.278320312 400.390625 220.969726562 c 4,267,268
419.946289062 313.288085938 m 4,291,292
 502.4609375 325.577148438 502.4609375 325.577148438 584.862304688 312.536132812 c 6,293,-1
 590.868164062 311.584960938 l 5,294,-1
 596.092773438 313.614257812 l 6,295,296
 625.838867188 325.161132812 625.838867188 325.161132812 644.787109375 344.857421875 c 4,297,298
 676.612304688 377.940429688 676.612304688 377.940429688 678.538085938 428.294921875 c 4,299,300
 679.258789062 447.17578125 679.258789062 447.17578125 673.353515625 466.713867188 c 4,301,302
 663.138671875 500.5078125 663.138671875 500.5078125 639.651367188 524.002929688 c 4,303,304
 634.032226562 529.625 634.032226562 529.625 601.806640625 556.466796875 c 4,305,306
 560.16796875 591.150390625 560.16796875 591.150390625 550.537109375 599.8828125 c 4,307,308
 530.51171875 618.041015625 530.51171875 618.041015625 509.401367188 641.063476562 c 4,309,310
 500.3359375 650.951171875 500.3359375 650.951171875 499.997070312 650.951171875 c 132,-1,311
 499.659179688 650.951171875 499.659179688 650.951171875 494.344726562 645.213867188 c 4,312,313
 461.404296875 609.654296875 461.404296875 609.654296875 425.78125 579.872070312 c 4,314,315
 367.9375 531.509765625 367.9375 531.509765625 361.393554688 525.21875 c 4,316,317
 341.15625 505.765625 341.15625 505.765625 331.360351562 480.78515625 c 4,318,319
 320.725585938 453.66015625 320.725585938 453.66015625 321.469726562 429.02734375 c 4,320,321
 322.41796875 397.686523438 322.41796875 397.686523438 336.30859375 370.48046875 c 4,322,323
 344.064453125 355.29296875 344.064453125 355.29296875 356.5234375 342.984375 c 4,324,325
 368.360351562 331.287109375 368.360351562 331.287109375 384.033203125 322.678710938 c 4,326,327
 405.318359375 310.98828125 405.318359375 310.98828125 410.424804688 311.842773438 c 4,328,329
 411.907226562 312.08984375 411.907226562 312.08984375 419.946289062 313.288085938 c 4,291,292
493.896484375 387.447265625 m 4,330,331
 484.90234375 389.780273438 484.90234375 389.780273438 482.970703125 398.899414062 c 4,332,333
 482.421875 401.483398438 482.421875 401.483398438 482.421875 422.703125 c 6,334,-1
 482.421875 443.919921875 l 5,335,-1
 473.999023438 443.96484375 l 6,336,337
 465.561523438 444.009765625 465.561523438 444.009765625 450.927734375 444.342773438 c 132,-1,338
 436.279296875 444.67578125 436.279296875 444.67578125 433.59375 445.934570312 c 4,339,340
 428.9921875 448.090820312 428.9921875 448.090820312 426.807617188 452.708984375 c 4,341,342
 425.537109375 455.39453125 425.537109375 455.39453125 425.537109375 461.009765625 c 132,-1,343
 425.537109375 466.623046875 425.537109375 466.623046875 426.807617188 469.310546875 c 4,344,345
 428.986328125 473.91796875 428.986328125 473.91796875 433.59375 476.096679688 c 6,346,-1
 436.279296875 477.3671875 l 5,347,-1
 459.329101562 477.51171875 l 5,348,-1
 482.37890625 477.655273438 l 5,349,-1
 482.522460938 501.487304688 l 5,350,-1
 482.666015625 525.319335938 l 5,351,-1
 484.37890625 528.686523438 l 6,352,353
 486.091796875 532.0546875 486.091796875 532.0546875 488.452148438 533.634765625 c 4,354,355
 492.616210938 536.421875 492.616210938 536.421875 500 536.4375 c 4,356,357
 508.583007812 536.45703125 508.583007812 536.45703125 512.70703125 532.333007812 c 4,358,359
 515.818359375 529.221679688 515.818359375 529.221679688 516.33203125 525.505859375 c 132,-1,360
 516.844726562 521.790039062 516.844726562 521.790039062 516.977539062 501.415039062 c 6,361,-1
 517.1328125 477.611328125 l 5,362,-1
 539.727539062 477.611328125 l 6,363,364
 565.078125 477.611328125 565.078125 477.611328125 569.220703125 475.079101562 c 4,365,366
 575.2109375 471.41796875 575.2109375 471.41796875 575.161132812 460.994140625 c 132,-1,367
 575.111328125 450.5703125 575.111328125 450.5703125 569.0859375 446.845703125 c 4,368,369
 565.161132812 444.419921875 565.161132812 444.419921875 539.6953125 444.4140625 c 6,370,-1
 517.134765625 444.408203125 l 5,371,-1
 516.967773438 421.581054688 l 6,372,373
 516.787109375 396.9375 516.787109375 396.9375 514.025390625 392.811523438 c 4,374,375
 512.450195312 390.459960938 512.450195312 390.459960938 509.178710938 388.796875 c 132,-1,376
 505.90625 387.1328125 505.90625 387.1328125 501.122070312 386.97265625 c 132,-1,377
 496.337890625 386.813476562 496.337890625 386.813476562 493.896484375 387.447265625 c 4,330,331
507.517578125 693.943359375 m 4,378,379
 515.403320312 695.040039062 515.403320312 695.040039062 520.522460938 698.323242188 c 132,-1,380
 525.78125 701.698242188 525.78125 701.698242188 528.932617188 707.103515625 c 4,381,382
 537.584960938 721.939453125 537.584960938 721.939453125 530.999023438 741.302734375 c 4,383,384
 528.881835938 747.528320312 528.881835938 747.528320312 524.278320312 751.876953125 c 132,-1,385
 519.76171875 756.14453125 519.76171875 756.14453125 512.939453125 758.124023438 c 4,386,387
 493.309570312 763.821289062 493.309570312 763.821289062 479.477539062 754.9453125 c 4,388,389
 474.161132812 751.53515625 474.161132812 751.53515625 471.092773438 746.166015625 c 4,390,391
 466.642578125 738.377929688 466.642578125 738.377929688 466.828125 725.88671875 c 132,-1,392
 467.014648438 713.396484375 467.014648438 713.396484375 471.689453125 706.112304688 c 4,393,394
 475.099609375 700.795898438 475.099609375 700.795898438 480.46875 697.727539062 c 4,395,396
 491.088867188 691.658203125 491.088867188 691.658203125 507.517578125 693.943359375 c 4,378,379
EndSplineSet
EndChar

StartChar: C
Encoding: 67 67 38
Width: 762
GlyphClass: 2
Flags: W
AnchorPoint: "Anchor-0" 403 741 basechar 0
LayerCount: 2
Fore
SplineSet
387 658 m 0,0,1
 331 658 331 658 289.5 640 c 128,-1,2
 248 622 248 622 221 585.5 c 128,-1,3
 194 549 194 549 180 492 c 128,-1,4
 166 435 166 435 166 355 c 0,5,6
 166 277 166 277 180 219.5 c 128,-1,7
 194 162 194 162 222.5 124.5 c 128,-1,8
 251 87 251 87 294.5 69 c 128,-1,9
 338 51 338 51 398 51 c 0,10,11
 468 51 468 51 514 78 c 128,-1,12
 560 105 560 105 588 148.5 c 128,-1,13
 616 192 616 192 633 241 c 1,14,-1
 705 213 l 1,15,16
 682 139 682 139 640 86 c 128,-1,17
 598 33 598 33 536.5 4 c 128,-1,18
 475 -25 475 -25 393 -25 c 0,19,20
 318 -25 318 -25 256.5 -1 c 128,-1,21
 195 23 195 23 151 71 c 128,-1,22
 107 119 107 119 83.5 190 c 128,-1,23
 60 261 60 261 60 355 c 0,24,25
 60 450 60 450 83.5 521 c 128,-1,26
 107 592 107 592 150.5 639.5 c 128,-1,27
 194 687 194 687 254 711 c 128,-1,28
 314 735 314 735 386 735 c 0,29,30
 452 735 452 735 502 708.5 c 128,-1,31
 552 682 552 682 582.5 630 c 128,-1,32
 613 578 613 578 621 499 c 1,33,-1
 601 545 l 1,34,-1
 615 720 l 1,35,-1
 691 720 l 1,36,-1
 691 461 l 1,37,-1
 608 461 l 1,38,39
 591 520 591 520 562 564 c 128,-1,40
 533 608 533 608 489.5 633 c 128,-1,41
 446 658 446 658 387 658 c 0,0,1
EndSplineSet
EndChar

StartChar: D
Encoding: 68 68 39
Width: 784
GlyphClass: 2
Flags: W
AnchorPoint: "Anchor-0" 394 741 basechar 0
LayerCount: 2
Fore
SplineSet
58 634 m 1,0,-1
 58 710 l 1,1,-1
 355 710 l 2,2,3
 442 710 442 710 511 688.5 c 128,-1,4
 580 667 580 667 627.5 623.5 c 128,-1,5
 675 580 675 580 699.5 514 c 128,-1,6
 724 448 724 448 724 359 c 0,7,8
 724 271 724 271 699.5 203.5 c 128,-1,9
 675 136 675 136 627.5 91 c 128,-1,10
 580 46 580 46 511 23 c 128,-1,11
 442 0 442 0 355 0 c 2,12,-1
 58 0 l 1,13,-1
 58 76 l 1,14,-1
 69 76 l 2,15,16
 98 76 98 76 120 83 c 128,-1,17
 142 90 142 90 142 112 c 2,18,-1
 142 598 l 2,19,20
 142 620 142 620 120 627 c 128,-1,21
 98 634 98 634 69 634 c 2,22,-1
 58 634 l 1,0,-1
354 635 m 2,23,-1
 242 635 l 1,24,-1
 242 75 l 1,25,-1
 354 75 l 2,26,27
 421 75 421 75 470.5 92.5 c 128,-1,28
 520 110 520 110 553 145 c 128,-1,29
 586 180 586 180 601.5 233.5 c 128,-1,30
 617 287 617 287 617 359 c 256,31,32
 617 431 617 431 601.5 483 c 128,-1,33
 586 535 586 535 553 568.5 c 128,-1,34
 520 602 520 602 470.5 618.5 c 128,-1,35
 421 635 421 635 354 635 c 2,23,-1
EndSplineSet
EndChar

StartChar: E
Encoding: 69 69 40
Width: 694
GlyphClass: 2
Flags: W
AnchorPoint: "Anchor-0" 410 741 basechar 0
LayerCount: 2
Fore
SplineSet
622 226 m 1,0,-1
 622 0 l 1,1,-1
 58 0 l 1,2,-1
 58 76 l 1,3,-1
 69 76 l 2,4,5
 98 76 98 76 120 83 c 128,-1,6
 142 90 142 90 142 112 c 2,7,-1
 142 598 l 2,8,9
 142 620 142 620 120 627 c 128,-1,10
 98 634 98 634 69 634 c 2,11,-1
 58 634 l 1,12,-1
 58 710 l 1,13,-1
 603 710 l 1,14,-1
 603 509 l 1,15,-1
 529 509 l 1,16,-1
 517 590 l 2,17,18
 514 608 514 608 501.5 617.5 c 128,-1,19
 489 627 489 627 463 631 c 128,-1,20
 437 635 437 635 397 635 c 2,21,-1
 242 635 l 1,22,-1
 242 75 l 1,23,-1
 412 75 l 2,24,25
 442 75 442 75 464.5 77 c 128,-1,26
 487 79 487 79 501 84.5 c 128,-1,27
 515 90 515 90 522.5 98.5 c 128,-1,28
 530 107 530 107 532 120 c 2,29,-1
 546 226 l 1,30,-1
 622 226 l 1,0,-1
226 400 m 1,31,32
 273 403 273 403 319.5 405.5 c 128,-1,33
 366 408 366 408 413 411 c 128,-1,34
 460 414 460 414 507 415 c 1,35,-1
 507 315 l 1,36,37
 460 318 460 318 413.5 320.5 c 128,-1,38
 367 323 367 323 320 325 c 128,-1,39
 273 327 273 327 226 329 c 1,40,-1
 226 400 l 1,31,32
EndSplineSet
EndChar

StartChar: F
Encoding: 70 70 41
Width: 666
GlyphClass: 2
Flags: W
AnchorPoint: "Anchor-0" 312 741 basechar 0
LayerCount: 2
Fore
SplineSet
242 635 m 1,0,-1
 242 86 l 2,1,2
 242 83 242 83 250 81.5 c 128,-1,3
 258 80 258 80 270.5 78.5 c 128,-1,4
 283 77 283 77 299.5 76.5 c 128,-1,5
 316 76 316 76 334 76 c 2,6,-1
 352 76 l 1,7,-1
 352 0 l 1,8,-1
 58 0 l 1,9,-1
 58 76 l 1,10,-1
 69 76 l 2,11,12
 98 76 98 76 120 83 c 128,-1,13
 142 90 142 90 142 112 c 2,14,-1
 142 598 l 2,15,16
 142 620 142 620 120 627 c 128,-1,17
 98 634 98 634 69 634 c 2,18,-1
 58 634 l 1,19,-1
 58 710 l 1,20,-1
 603 710 l 1,21,-1
 603 505 l 1,22,-1
 529 505 l 1,23,-1
 517 590 l 2,24,25
 514 608 514 608 501.5 617.5 c 128,-1,26
 489 627 489 627 463 631 c 128,-1,27
 437 635 437 635 397 635 c 2,28,-1
 242 635 l 1,0,-1
226 391 m 1,29,30
 273 394 273 394 319.5 396.5 c 128,-1,31
 366 399 366 399 413 401.5 c 128,-1,32
 460 404 460 404 507 406 c 1,33,-1
 507 306 l 1,34,35
 460 309 460 309 413.5 311 c 128,-1,36
 367 313 367 313 320 315.5 c 128,-1,37
 273 318 273 318 226 320 c 1,38,-1
 226 391 l 1,29,30
EndSplineSet
EndChar

StartChar: G
Encoding: 71 71 42
Width: 810
GlyphClass: 2
Flags: W
AnchorPoint: "Anchor-0" 413 741 basechar 0
LayerCount: 2
Fore
SplineSet
684 231 m 2,0,-1
 684 99 l 1,1,2
 668 80 668 80 642 58 c 128,-1,3
 616 36 616 36 580 17.5 c 128,-1,4
 544 -1 544 -1 498.5 -13 c 128,-1,5
 453 -25 453 -25 401 -25 c 0,6,7
 323 -25 323 -25 259.5 -1 c 128,-1,8
 196 23 196 23 152 71 c 128,-1,9
 108 119 108 119 84 190 c 128,-1,10
 60 261 60 261 60 355 c 0,11,12
 60 450 60 450 85 521 c 128,-1,13
 110 592 110 592 155.5 639.5 c 128,-1,14
 201 687 201 687 261.5 711 c 128,-1,15
 322 735 322 735 393 735 c 0,16,17
 457 735 457 735 504.5 711 c 128,-1,18
 552 687 552 687 581 641 c 128,-1,19
 610 595 610 595 620 527 c 1,20,-1
 600 573 l 1,21,-1
 613 720 l 1,22,-1
 689 720 l 1,23,-1
 689 489 l 1,24,-1
 611 489 l 1,25,26
 595 537 595 537 565 575.5 c 128,-1,27
 535 614 535 614 492.5 636.5 c 128,-1,28
 450 659 450 659 394 659 c 0,29,30
 340 659 340 659 297.5 641 c 128,-1,31
 255 623 255 623 226 586 c 128,-1,32
 197 549 197 549 181.5 491.5 c 128,-1,33
 166 434 166 434 166 355 c 0,34,35
 166 277 166 277 181.5 219 c 128,-1,36
 197 161 197 161 226.5 124 c 128,-1,37
 256 87 256 87 300 69 c 128,-1,38
 344 51 344 51 401 51 c 0,39,40
 456 51 456 51 492.5 63.5 c 128,-1,41
 529 76 529 76 552 93 c 128,-1,42
 575 110 575 110 587 122 c 1,43,-1
 587 231 l 2,44,45
 587 256 587 256 560 263.5 c 128,-1,46
 533 271 533 271 495 271 c 2,47,-1
 465 271 l 1,48,-1
 465 347 l 1,49,-1
 779 347 l 1,50,-1
 779 271 l 1,51,-1
 755 271 l 2,52,53
 720 271 720 271 702 263.5 c 128,-1,54
 684 256 684 256 684 231 c 2,0,-1
EndSplineSet
EndChar

StartChar: H
Encoding: 72 72 43
Width: 842
GlyphClass: 2
Flags: W
AnchorPoint: "Anchor-0" 422 741 basechar 0
LayerCount: 2
Fore
SplineSet
221 404 m 1,0,-1
 621 404 l 1,1,-1
 621 328 l 1,2,-1
 221 328 l 1,3,-1
 221 404 l 1,0,-1
58 0 m 1,4,-1
 58 76 l 1,5,-1
 69 76 l 2,6,7
 98 76 98 76 120 83 c 128,-1,8
 142 90 142 90 142 112 c 2,9,-1
 142 598 l 2,10,11
 142 620 142 620 120 627 c 128,-1,12
 98 634 98 634 69 634 c 2,13,-1
 58 634 l 1,14,-1
 58 710 l 1,15,-1
 334 710 l 1,16,-1
 334 635 l 1,17,-1
 325 635 l 2,18,19
 312 635 312 635 297 634 c 128,-1,20
 282 633 282 633 270 631.5 c 128,-1,21
 258 630 258 630 250 628.5 c 128,-1,22
 242 627 242 627 242 625 c 2,23,-1
 242 85 l 2,24,25
 242 82 242 82 250 81 c 128,-1,26
 258 80 258 80 270 78.5 c 128,-1,27
 282 77 282 77 297 76.5 c 128,-1,28
 312 76 312 76 325 76 c 2,29,-1
 334 76 l 1,30,-1
 334 0 l 1,31,-1
 58 0 l 1,4,-1
509 0 m 1,32,-1
 509 75 l 1,33,-1
 517 75 l 2,34,35
 530 75 530 75 545 76 c 128,-1,36
 560 77 560 77 572.5 78.5 c 128,-1,37
 585 80 585 80 592.5 81.5 c 128,-1,38
 600 83 600 83 600 85 c 2,39,-1
 600 625 l 2,40,41
 600 628 600 628 592.5 629 c 128,-1,42
 585 630 585 630 572.5 631.5 c 128,-1,43
 560 633 560 633 545.5 633.5 c 128,-1,44
 531 634 531 634 517 634 c 2,45,-1
 509 634 l 1,46,-1
 509 710 l 1,47,-1
 784 710 l 1,48,-1
 784 634 l 1,49,-1
 774 634 l 2,50,51
 745 634 745 634 722.5 627 c 128,-1,52
 700 620 700 620 700 598 c 2,53,-1
 700 112 l 2,54,55
 700 90 700 90 722.5 83 c 128,-1,56
 745 76 745 76 774 76 c 2,57,-1
 784 76 l 1,58,-1
 784 0 l 1,59,-1
 509 0 l 1,32,-1
EndSplineSet
EndChar

StartChar: I
Encoding: 73 73 44
Width: 408
GlyphClass: 2
Flags: W
AnchorPoint: "Anchor-0" 205 741 basechar 0
LayerCount: 2
Fore
SplineSet
154 112 m 2,0,-1
 154 598 l 2,1,2
 154 620 154 620 131.5 627 c 128,-1,3
 109 634 109 634 77 634 c 2,4,-1
 57 634 l 1,5,-1
 57 710 l 1,6,-1
 351 710 l 1,7,-1
 351 634 l 1,8,-1
 332 634 l 2,9,10
 299 634 299 634 276.5 627 c 128,-1,11
 254 620 254 620 254 598 c 2,12,-1
 254 112 l 2,13,14
 254 90 254 90 276.5 83 c 128,-1,15
 299 76 299 76 332 76 c 2,16,-1
 351 76 l 1,17,-1
 351 0 l 1,18,-1
 57 0 l 1,19,-1
 57 76 l 1,20,-1
 77 76 l 2,21,22
 109 76 109 76 131.5 83 c 128,-1,23
 154 90 154 90 154 112 c 2,0,-1
EndSplineSet
EndChar

StartChar: J
Encoding: 74 74 45
Width: 649
GlyphClass: 2
Flags: W
AnchorPoint: "Anchor-0" 436 741 basechar 0
LayerCount: 2
Fore
SplineSet
305 710 m 1,0,-1
 603 710 l 1,1,-1
 603 634 l 1,2,-1
 583 634 l 2,3,4
 553 634 553 634 531.5 627 c 128,-1,5
 510 620 510 620 510 598 c 2,6,-1
 510 207 l 2,7,8
 510 145 510 145 491.5 100.5 c 128,-1,9
 473 56 473 56 440 28.5 c 128,-1,10
 407 1 407 1 362.5 -12 c 128,-1,11
 318 -25 318 -25 266 -25 c 0,12,13
 209 -25 209 -25 167.5 -11.5 c 128,-1,14
 126 2 126 2 98 20 c 128,-1,15
 70 38 70 38 53 52 c 1,16,-1
 53 223 l 1,17,-1
 166 223 l 1,18,-1
 166 45 l 1,19,20
 149 50 149 50 136 60.5 c 128,-1,21
 123 71 123 71 117 81.5 c 128,-1,22
 111 92 111 92 112 99 c 128,-1,23
 113 106 113 106 124 105 c 1,24,25
 138 93 138 93 157.5 80.5 c 128,-1,26
 177 68 177 68 204 59.5 c 128,-1,27
 231 51 231 51 265 51 c 0,28,29
 312 51 312 51 344 64 c 128,-1,30
 376 77 376 77 393 111 c 128,-1,31
 410 145 410 145 410 207 c 2,32,-1
 410 598 l 2,33,34
 410 613 410 613 399.5 620.5 c 128,-1,35
 389 628 389 628 370 631 c 128,-1,36
 351 634 351 634 328 634 c 2,37,-1
 305 634 l 1,38,-1
 305 710 l 1,0,-1
EndSplineSet
EndChar

StartChar: K
Encoding: 75 75 46
Width: 1000
GlyphClass: 2
Flags: W
LayerCount: 2
Fore
SplineSet
466.796875 -4.0634765625 m 4,0,1
 375.8671875 -1.83984375 375.8671875 -1.83984375 305.908203125 9.810546875 c 4,2,3
 248.551757812 19.3623046875 248.551757812 19.3623046875 218.26171875 32.5654296875 c 4,4,5
 204.853515625 38.41015625 204.853515625 38.41015625 195.163085938 46.537109375 c 6,6,-1
 193.793945312 47.6865234375 l 5,7,-1
 209.931640625 107.326171875 l 5,8,-1
 226.069335938 166.965820312 l 5,9,-1
 218.0703125 212.267578125 l 6,10,11
 210.069335938 257.572265625 210.069335938 257.572265625 208.981445312 259.416015625 c 4,12,13
 206.958007812 262.844726562 206.958007812 262.844726562 196.044921875 268.513671875 c 4,14,15
 183.836914062 274.85546875 183.836914062 274.85546875 161.584960938 293.911132812 c 4,16,17
 129.163085938 321.673828125 129.163085938 321.673828125 117.522460938 336.186523438 c 4,18,19
 87.73828125 373.3203125 87.73828125 373.3203125 81.0927734375 425.780273438 c 4,20,21
 77.90625 450.938476562 77.90625 450.938476562 80.3427734375 467.701171875 c 4,22,23
 84.9404296875 499.32421875 84.9404296875 499.32421875 107.723632812 531.787109375 c 4,24,25
 123.899414062 554.831054688 123.899414062 554.831054688 142.57421875 569.852539062 c 4,26,27
 177.674804688 598.088867188 177.674804688 598.088867188 227.05078125 604.2734375 c 4,28,29
 233.30859375 605.056640625 233.30859375 605.056640625 247.577148438 605.318359375 c 132,-1,30
 261.845703125 605.580078125 261.845703125 605.580078125 267.916992188 605.022460938 c 4,31,32
 310.337890625 601.125976562 310.337890625 601.125976562 344.3359375 587.2109375 c 4,33,34
 350.797851562 584.56640625 350.797851562 584.56640625 362.548828125 580.076171875 c 4,35,36
 397.965820312 566.545898438 397.965820312 566.545898438 406.150390625 561.59765625 c 4,37,38
 410.201171875 559.147460938 410.201171875 559.147460938 409.94921875 559.96875 c 4,39,40
 408.322265625 565.2890625 408.322265625 565.2890625 407.870117188 576.659179688 c 4,41,42
 406.975585938 599.198242188 406.975585938 599.198242188 416.298828125 618.627929688 c 4,43,44
 420.522460938 627.428710938 420.522460938 627.428710938 426.212890625 634.764648438 c 4,45,46
 462.396484375 681.399414062 462.396484375 681.399414062 519.611328125 669.891601562 c 4,47,48
 539.796875 665.83203125 539.796875 665.83203125 557.177734375 651.756835938 c 132,-1,49
 574.55859375 637.680664062 574.55859375 637.680664062 583.762695312 617.939453125 c 4,50,51
 591.815429688 600.668945312 591.815429688 600.668945312 591.791992188 580.391601562 c 4,52,53
 591.778320312 568.887695312 591.778320312 568.887695312 590.05078125 560.890625 c 6,54,-1
 589.756835938 559.526367188 l 5,55,-1
 592.97265625 561.495117188 l 6,56,57
 605.13671875 568.939453125 605.13671875 568.939453125 652.34375 586.279296875 c 4,58,59
 701.758789062 604.4296875 701.758789062 604.4296875 739.74609375 605.883789062 c 4,60,61
 809.12890625 608.541015625 809.12890625 608.541015625 855.46875 571.791992188 c 4,62,63
 874.483398438 556.711914062 874.483398438 556.711914062 891.2421875 532.65625 c 4,64,65
 913.298828125 500.997070312 913.298828125 500.997070312 919.00390625 468.874023438 c 4,66,67
 921.618164062 454.149414062 921.618164062 454.149414062 919.961914062 436.178710938 c 4,68,69
 916.513671875 398.815429688 916.513671875 398.815429688 902.0859375 368.77734375 c 132,-1,70
 887.576171875 338.568359375 887.576171875 338.568359375 855.95703125 310.084960938 c 4,71,72
 820.244140625 277.9140625 820.244140625 277.9140625 803.403320312 269.102539062 c 4,73,74
 793.952148438 264.15625 793.952148438 264.15625 791.415039062 260.491210938 c 4,75,76
 790.069335938 258.545898438 790.069335938 258.545898438 782.2421875 212.518554688 c 6,77,-1
 774.415039062 166.4921875 l 5,78,-1
 790.5 106.318359375 l 5,79,-1
 806.583984375 46.14453125 l 5,80,-1
 805.513671875 44.998046875 l 6,81,82
 799.58984375 38.6572265625 799.58984375 38.6572265625 781.25 31.1298828125 c 4,83,84
 715.421875 4.1103515625 715.421875 4.1103515625 575.1953125 -2.6669921875 c 4,85,86
 519.599609375 -5.3544921875 519.599609375 -5.3544921875 466.796875 -4.0634765625 c 4,0,1
554.6875 29.765625 m 4,87,88
 690.525390625 35.6337890625 690.525390625 35.6337890625 759.399414062 61.17578125 c 4,89,90
 766.11328125 63.6669921875 766.11328125 63.6669921875 766.11328125 63.962890625 c 132,-1,91
 766.11328125 64.2607421875 766.11328125 64.2607421875 759.155273438 66.8515625 c 4,92,93
 660.19140625 103.708984375 660.19140625 103.708984375 487.79296875 101.875976562 c 4,94,95
 452.000976562 101.495117188 452.000976562 101.495117188 423.583984375 99.837890625 c 4,96,97
 321.21484375 93.8681640625 321.21484375 93.8681640625 254.638671875 70.830078125 c 4,98,99
 234.86328125 63.98828125 234.86328125 63.98828125 234.86328125 62.94140625 c 4,100,101
 234.86328125 62.6123046875 234.86328125 62.6123046875 235.717773438 62.3515625 c 132,-1,102
 236.557617188 62.0947265625 236.557617188 62.0947265625 243.646484375 59.5771484375 c 4,103,104
 319.939453125 32.48046875 319.939453125 32.48046875 465.33203125 29.103515625 c 4,105,106
 475.4453125 28.8681640625 475.4453125 28.8681640625 510.73828125 29.1298828125 c 132,-1,107
 546.030273438 29.3916015625 546.030273438 29.3916015625 554.6875 29.765625 c 4,87,88
253.248046875 111.5234375 m 4,108,109
 311.081054688 127.455078125 311.081054688 127.455078125 395.01953125 133.272460938 c 4,110,111
 435.573242188 136.08203125 435.573242188 136.08203125 486.083984375 136.551757812 c 4,112,113
 631.672851562 137.90234375 631.672851562 137.90234375 724.12109375 117.375 c 4,114,115
 742.170898438 113.368164062 742.170898438 113.368164062 751.198242188 110.630859375 c 4,116,117
 753.615234375 109.8984375 753.615234375 109.8984375 753.731445312 110.012695312 c 132,-1,118
 753.86328125 110.14453125 753.86328125 110.14453125 746.592773438 137.884765625 c 132,-1,119
 739.322265625 165.625 739.322265625 165.625 739.096679688 165.850585938 c 4,120,121
 736.943359375 168.00390625 736.943359375 168.00390625 690.185546875 175.045898438 c 4,122,123
 615.279296875 186.325195312 615.279296875 186.325195312 515.625 187.327148438 c 4,124,125
 386.981445312 188.620117188 386.981445312 188.620117188 292.236328125 172.098632812 c 4,126,127
 262.442382812 166.903320312 262.442382812 166.903320312 261.393554688 165.8515625 c 4,128,129
 261.106445312 165.56640625 261.106445312 165.56640625 253.592773438 138.323242188 c 132,-1,130
 246.083007812 111.092773438 246.083007812 111.092773438 245.787109375 110.154296875 c 5,131,132
 246.966796875 109.791992188 246.966796875 109.791992188 253.248046875 111.5234375 c 4,108,109
265.869140625 199.171875 m 4,133,134
 362.001953125 221.4609375 362.001953125 221.4609375 517.333984375 220.045898438 c 4,135,136
 610.783203125 219.194335938 610.783203125 219.194335938 678.921875 209.9140625 c 4,137,138
 714.071289062 205.126953125 714.071289062 205.126953125 740.4765625 198.76953125 c 4,139,140
 744.381835938 197.830078125 744.381835938 197.830078125 744.526367188 197.9765625 c 132,-1,141
 744.741210938 198.190429688 744.741210938 198.190429688 750.735351562 233.750976562 c 132,-1,142
 756.73046875 269.310546875 756.73046875 269.310546875 756.577148438 269.462890625 c 4,143,144
 755.318359375 270.721679688 755.318359375 270.721679688 725.09765625 276.84375 c 4,145,146
 627.837890625 296.548828125 627.837890625 296.548828125 483.642578125 295.225585938 c 4,147,148
 449.943359375 294.915039062 449.943359375 294.915039062 448.486328125 294.709960938 c 132,-1,149
 447.03125 294.50390625 447.03125 294.50390625 436.5234375 294.205078125 c 4,150,151
 344.380859375 291.5859375 344.380859375 291.5859375 271.728515625 275.844726562 c 4,152,153
 246.194335938 270.310546875 246.194335938 270.310546875 244.241210938 269.104492188 c 4,154,155
 243.678710938 268.756835938 243.678710938 268.756835938 249.764648438 232.888671875 c 132,-1,156
 255.848632812 197.0234375 255.848632812 197.0234375 255.854492188 196.865234375 c 5,157,-1
 256.713867188 196.978515625 l 6,158,159
 257.573242188 197.248046875 257.573242188 197.248046875 265.869140625 199.171875 c 4,133,134
223.668945312 296.655273438 m 4,160,161
 304.3515625 324.379882812 304.3515625 324.379882812 469.604492188 328.411132812 c 6,162,-1
 482.91015625 328.736328125 l 5,163,-1
 482.91015625 330.260742188 l 6,164,165
 482.907226562 340.391601562 482.907226562 340.391601562 481.426757812 365.721679688 c 4,166,167
 479.901367188 391.80078125 479.901367188 391.80078125 470.849609375 418.172851562 c 4,168,169
 451.491210938 474.568359375 451.491210938 474.568359375 416.994140625 509.947265625 c 4,170,171
 409.904296875 517.216796875 409.904296875 517.216796875 406.005859375 520.349609375 c 4,172,173
 384.493164062 537.63671875 384.493164062 537.63671875 349.413085938 551.524414062 c 132,-1,174
 314.333007812 565.412109375 314.333007812 565.412109375 281.73828125 569.544921875 c 4,175,176
 233.282226562 575.690429688 233.282226562 575.690429688 196.2890625 561.190429688 c 4,177,178
 161.734375 547.64453125 161.734375 547.64453125 139.196289062 513.915039062 c 4,179,180
 119.62890625 484.631835938 119.62890625 484.631835938 119.62890625 442.625976562 c 4,181,182
 119.62890625 391.094726562 119.62890625 391.094726562 148.341796875 357.909179688 c 4,183,184
 160.41015625 343.959960938 160.41015625 343.959960938 176.025390625 330.791015625 c 4,185,186
 215.061523438 297.869140625 215.061523438 297.869140625 220.006835938 295.426757812 c 4,187,188
 220.044921875 295.409179688 220.044921875 295.409179688 223.668945312 296.655273438 c 4,160,161
800.224609375 312.1953125 m 4,189,190
 830.912109375 336.794921875 830.912109375 336.794921875 842.775390625 348.931640625 c 4,191,192
 860.290039062 366.8515625 860.290039062 366.8515625 867.9453125 382.567382812 c 4,193,194
 881.28125 409.947265625 881.28125 409.947265625 880.21484375 447.508789062 c 4,195,196
 879.096679688 486.885742188 879.096679688 486.885742188 860.890625 514.209960938 c 4,197,198
 853.202148438 525.747070312 853.202148438 525.747070312 844.01171875 534.913085938 c 4,199,200
 814.529296875 564.317382812 814.529296875 564.317382812 766.6015625 570.15234375 c 4,201,202
 759.26171875 571.045898438 759.26171875 571.045898438 744.73828125 571.043945312 c 132,-1,203
 730.215820312 571.041015625 730.215820312 571.041015625 722.16796875 570.145507812 c 4,204,205
 675.540039062 564.953125 675.540039062 564.953125 631.103515625 543.469726562 c 4,206,207
 600.971679688 528.901367188 600.971679688 528.901367188 582.962890625 510.38671875 c 4,208,209
 548.234375 474.684570312 548.234375 474.684570312 529.489257812 419.6953125 c 4,210,211
 517.826171875 385.481445312 517.826171875 385.481445312 516.770507812 342.016601562 c 6,212,-1
 516.448242188 328.747070312 l 5,213,-1
 530.319335938 328.418945312 l 6,214,215
 685.293945312 324.750976562 685.293945312 324.750976562 770.751953125 298.818359375 c 4,216,217
 779.0546875 296.297851562 779.0546875 296.297851562 779.255859375 296.098632812 c 6,218,219
 779.255859375 296.098632812 779.255859375 296.098632812 779.676757812 295.897460938 c 4,220,221
 779.89453125 295.897460938 779.89453125 295.897460938 800.224609375 312.1953125 c 4,189,190
501.162109375 423.94921875 m 132,-1,223
 502.053710938 427.491210938 502.053710938 427.491210938 504.65234375 435.545898438 c 132,-1,224
 507.235351562 443.55078125 507.235351562 443.55078125 509.739257812 451.514648438 c 132,-1,225
 512.225585938 459.42578125 512.225585938 459.42578125 514.458984375 464.698242188 c 132,-1,226
 516.702148438 469.997070312 516.702148438 469.997070312 518.798828125 475.154296875 c 132,-1,227
 520.91015625 480.349609375 520.91015625 480.349609375 526.627929688 492 c 4,228,229
 537.663085938 514.48828125 537.663085938 514.48828125 542.485351562 526.592773438 c 4,230,231
 555.545898438 559.376953125 555.545898438 559.376953125 557.3671875 568.114257812 c 4,232,233
 560.314453125 582.252929688 560.314453125 582.252929688 556.374023438 596.033203125 c 4,234,235
 552.498046875 609.59375 552.498046875 609.59375 541.748046875 620.375 c 4,236,237
 529.291015625 632.87109375 529.291015625 632.87109375 511.9921875 636.596679688 c 4,238,239
 507.880859375 637.482421875 507.880859375 637.482421875 498.81640625 637.461914062 c 132,-1,240
 489.752929688 637.44140625 489.752929688 637.44140625 484.619140625 636.53515625 c 4,241,242
 466.904296875 633.407226562 466.904296875 633.407226562 456.54296875 623.045898438 c 4,243,244
 443.021484375 609.524414062 443.021484375 609.524414062 442.063476562 583.250976562 c 4,245,246
 441.61328125 570.89453125 441.61328125 570.89453125 446.9609375 555.247070312 c 4,247,248
 458.073242188 522.729492188 458.073242188 522.729492188 476.708007812 484.129882812 c 4,249,250
 485.688476562 465.529296875 485.688476562 465.529296875 496.40234375 431.029296875 c 4,251,252
 499.701171875 420.409179688 499.701171875 420.409179688 499.986328125 420.409179688 c 132,-1,222
 500.272460938 420.409179688 500.272460938 420.409179688 501.162109375 423.94921875 c 132,-1,223
482.421875 705.321289062 m 5,253,-1
 482.421875 737.303710938 l 5,254,-1
 460.551757812 737.303710938 l 6,255,256
 435.046875 737.303710938 435.046875 737.303710938 430.961914062 740.125 c 4,257,258
 425.3046875 744.034179688 425.3046875 744.034179688 425.3046875 753.661132812 c 132,-1,259
 425.3046875 763.233398438 425.3046875 763.233398438 430.912109375 767.091796875 c 4,260,261
 435.166015625 770.018554688 435.166015625 770.018554688 460.530273438 770.018554688 c 6,262,-1
 482.377929688 770.018554688 l 5,263,-1
 482.522460938 793.627929688 l 5,264,-1
 482.666015625 817.23828125 l 5,265,-1
 484.37890625 820.60546875 l 6,266,267
 486.091796875 823.973632812 486.091796875 823.973632812 488.452148438 825.553710938 c 4,268,269
 492.614257812 828.340820312 492.614257812 828.340820312 500 828.356445312 c 4,270,271
 508.583007812 828.375976562 508.583007812 828.375976562 512.70703125 824.251953125 c 4,272,273
 515.814453125 821.145507812 515.814453125 821.145507812 516.329101562 817.44921875 c 132,-1,274
 516.84375 813.751953125 516.84375 813.751953125 516.977539062 793.599609375 c 6,275,-1
 517.133789062 770.061523438 l 5,276,-1
 540.915039062 769.91796875 l 6,277,278
 564.697265625 769.774414062 564.697265625 769.774414062 566.89453125 768.752929688 c 4,279,280
 571.458984375 766.630859375 571.458984375 766.630859375 573.583007812 762.305664062 c 4,281,282
 574.951171875 759.520507812 574.951171875 759.520507812 574.951171875 753.626953125 c 132,-1,283
 574.951171875 747.732421875 574.951171875 747.732421875 573.481445312 744.858398438 c 4,284,285
 570.87890625 739.770507812 570.87890625 739.770507812 566.02734375 738.229492188 c 4,286,287
 562.393554688 737.07421875 562.393554688 737.07421875 526.000976562 736.864257812 c 6,288,-1
 517.578125 736.815429688 l 5,289,-1
 517.578125 727.862304688 l 6,290,291
 517.578125 718.860351562 517.578125 718.860351562 517.25390625 696.124023438 c 6,292,-1
 516.930664062 673.338867188 l 5,293,-1
 499.67578125 673.338867188 l 5,294,-1
 482.421875 673.338867188 l 5,295,-1
 482.421875 705.321289062 l 5,253,-1
EndSplineSet
EndChar

StartChar: L
Encoding: 76 76 47
Width: 642
GlyphClass: 2
Flags: W
AnchorPoint: "Anchor-0" 394 741 basechar 0
LayerCount: 2
Fore
SplineSet
345 710 m 1,0,-1
 58 710 l 1,1,-1
 58 634 l 1,2,-1
 69 634 l 2,3,4
 98 634 98 634 120 627 c 128,-1,5
 142 620 142 620 142 598 c 2,6,-1
 142 112 l 2,7,8
 142 90 142 90 120 83 c 128,-1,9
 98 76 98 76 69 76 c 2,10,-1
 58 76 l 1,11,-1
 58 0 l 1,12,-1
 593 0 l 1,13,-1
 593 235 l 1,14,-1
 517 235 l 1,15,-1
 503 120 l 2,16,17
 501 102 501 102 488.5 92 c 128,-1,18
 476 82 476 82 450 78.5 c 128,-1,19
 424 75 424 75 383 75 c 2,20,-1
 242 75 l 1,21,-1
 242 598 l 2,22,23
 242 620 242 620 267 627 c 128,-1,24
 292 634 292 634 329 634 c 2,25,-1
 345 634 l 1,26,-1
 345 710 l 1,0,-1
EndSplineSet
EndChar

StartChar: M
Encoding: 77 77 48
Width: 1000
GlyphClass: 2
Flags: W
LayerCount: 2
Fore
SplineSet
359.375 -1.88671875 m 4,0,1
 359.375 0.9599609375 359.375 0.9599609375 387.20703125 26.197265625 c 4,2,3
 394.776367188 33.0615234375 394.776367188 33.0615234375 394.926757812 33.421875 c 132,-1,4
 395.077148438 33.7822265625 395.077148438 33.7822265625 403.3203125 41.1787109375 c 132,-1,5
 411.5625 48.572265625 411.5625 48.572265625 411.713867188 48.9384765625 c 132,-1,6
 411.86328125 49.3017578125 411.86328125 49.3017578125 417.724609375 54.5673828125 c 132,-1,7
 423.588867188 59.833984375 423.588867188 59.833984375 425.239257812 61.5576171875 c 132,-1,8
 426.883789062 63.2763671875 426.883789062 63.2763671875 432.319335938 68.140625 c 132,-1,9
 437.745117188 72.99609375 437.745117188 72.99609375 439.208984375 74.5791015625 c 132,-1,10
 440.670898438 76.1611328125 440.670898438 76.1611328125 446.2890625 81.234375 c 4,11,12
 460.268554688 93.8564453125 460.268554688 93.8564453125 467.185546875 102.946289062 c 4,13,14
 469.778320312 106.353515625 469.778320312 106.353515625 470.375976562 107.096679688 c 4,15,16
 480.610351562 119.826171875 480.610351562 119.826171875 489.103515625 142.741210938 c 4,17,18
 498.685546875 168.591796875 498.685546875 168.591796875 498.124023438 191.532226562 c 6,19,-1
 498.046875 194.668945312 l 5,20,-1
 496.948242188 193.66796875 l 6,21,22
 495.84765625 192.666992188 495.84765625 192.666992188 494.62890625 192.038085938 c 132,-1,23
 493.412109375 191.412109375 493.412109375 191.412109375 490.922851562 189.536132812 c 132,-1,24
 488.4375 187.663085938 488.4375 187.663085938 488.04296875 187.663085938 c 132,-1,25
 487.649414062 187.663085938 487.649414062 187.663085938 485.158203125 186.013671875 c 4,26,27
 481.76953125 183.771484375 481.76953125 183.771484375 473.876953125 179.6953125 c 4,28,29
 466.51953125 175.895507812 466.51953125 175.895507812 461.181640625 173.99609375 c 4,30,31
 458.765625 173.13671875 458.765625 173.13671875 453.369140625 171.274414062 c 132,-1,32
 448.049804688 169.438476562 448.049804688 169.438476562 443.115234375 167.57421875 c 132,-1,33
 438.233398438 165.728515625 438.233398438 165.728515625 436.767578125 165.388671875 c 132,-1,34
 435.301757812 165.048828125 435.301757812 165.048828125 431.842773438 163.48046875 c 132,-1,35
 428.373046875 161.908203125 428.373046875 161.908203125 426.471679688 161.296875 c 4,36,37
 415.473632812 157.750976562 415.473632812 157.750976562 390.13671875 144.314453125 c 4,38,39
 369.330078125 133.280273438 369.330078125 133.280273438 356.703125 123.33203125 c 4,40,41
 354.0703125 121.256835938 354.0703125 121.256835938 353.788085938 121.256835938 c 4,42,43
 352.899414062 121.256835938 352.899414062 121.256835938 340.3984375 110.286132812 c 4,44,45
 327.341796875 98.8291015625 327.341796875 98.8291015625 320.55859375 90.9833984375 c 4,46,47
 318.526367188 88.6298828125 318.526367188 88.6298828125 316.963867188 86.8330078125 c 4,48,49
 312.793945312 82.0361328125 312.793945312 82.0361328125 306.571289062 73.4052734375 c 4,50,51
 300.912109375 65.546875 300.912109375 65.546875 293.739257812 52.6533203125 c 4,52,53
 292.924804688 51.1904296875 292.924804688 51.1904296875 291.0078125 48.0146484375 c 132,-1,54
 289.09375 44.845703125 289.09375 44.845703125 287.036132812 41.1787109375 c 132,-1,55
 284.982421875 37.5166015625 284.982421875 37.5166015625 284.649414062 37.2724609375 c 132,-1,56
 284.31640625 37.0283203125 284.31640625 37.0283203125 283.565429688 35.5634765625 c 132,-1,57
 282.811523438 34.0927734375 282.811523438 34.0927734375 280.79296875 31.1689453125 c 132,-1,58
 278.821289062 28.310546875 278.821289062 28.310546875 277.94140625 27.0185546875 c 4,59,60
 271.663085938 17.7919921875 271.663085938 17.7919921875 266.6015625 15.0927734375 c 4,61,62
 265.34375 14.421875 265.34375 14.421875 262.6953125 12.9697265625 c 4,63,64
 250.107421875 6.0732421875 250.107421875 6.0732421875 233.6171875 8.9140625 c 4,65,66
 224.837890625 10.4248046875 224.837890625 10.4248046875 218.484375 14.044921875 c 4,67,68
 208.999023438 19.451171875 208.999023438 19.451171875 204.995117188 25.9326171875 c 4,69,70
 204.008789062 27.5283203125 204.008789062 27.5283203125 203.424804688 28.1298828125 c 132,-1,71
 202.845703125 28.7255859375 202.845703125 28.7255859375 201.706054688 30.587890625 c 132,-1,72
 200.567382812 32.4482421875 200.567382812 32.4482421875 199.770507812 32.140625 c 4,73,74
 195.431640625 30.458984375 195.431640625 30.458984375 185.697265625 28.9404296875 c 4,75,76
 181.889648438 28.3466796875 181.889648438 28.3466796875 171.875 28.29296875 c 6,77,-1
 161.865234375 28.2392578125 l 5,78,-1
 157.958984375 29.890625 l 6,79,80
 154.015625 31.5576171875 154.015625 31.5576171875 150.634765625 32.8818359375 c 4,81,82
 136.415039062 38.455078125 136.415039062 38.455078125 127.206054688 45.4951171875 c 132,-1,83
 117.831054688 52.6591796875 117.831054688 52.6591796875 109.130859375 63.396484375 c 4,84,85
 102.0078125 72.1904296875 102.0078125 72.1904296875 100.234375 75.6025390625 c 4,86,87
 99.47265625 77.0673828125 99.47265625 77.0673828125 99.11328125 77.3115234375 c 4,88,89
 96.5751953125 79.0361328125 96.5751953125 79.0361328125 91.6044921875 94.01953125 c 4,90,91
 83.630859375 118.04296875 83.630859375 118.04296875 84.6201171875 142.252929688 c 4,92,93
 85.6796875 168.211914062 85.6796875 168.211914062 109.2890625 204.020507812 c 4,94,95
 112.514648438 208.91015625 112.514648438 208.91015625 112.901367188 209.391601562 c 132,-1,96
 113.295898438 209.885742188 113.295898438 209.885742188 115.748046875 213.297851562 c 132,-1,97
 118.194335938 216.702148438 118.194335938 216.702148438 118.80078125 217.448242188 c 132,-1,98
 119.396484375 218.176757812 119.396484375 218.176757812 120.59375 219.889648438 c 4,99,100
 126.877929688 228.874023438 126.877929688 228.874023438 129.1328125 230.875976562 c 4,101,102
 129.68359375 231.365234375 129.68359375 231.365234375 130.405273438 232.4140625 c 132,-1,103
 131.131835938 233.46875 131.131835938 233.46875 133.068359375 235.78125 c 4,104,105
 135.650390625 238.86328125 135.650390625 238.86328125 136.71875 240.137695312 c 4,106,107
 138.508789062 242.274414062 138.508789062 242.274414062 140.380859375 244.532226562 c 132,-1,108
 142.317382812 246.868164062 142.317382812 246.868164062 144.04296875 248.921875 c 132,-1,109
 145.745117188 250.947265625 145.745117188 250.947265625 147.4609375 253.0859375 c 132,-1,110
 149.059570312 255.08203125 149.059570312 255.08203125 150.634765625 257.02734375 c 132,-1,111
 152.094726562 258.831054688 152.094726562 258.831054688 154.052734375 261.40625 c 132,-1,112
 156.006835938 263.977539062 156.006835938 263.977539062 157.2578125 265.4921875 c 132,-1,113
 158.509765625 267.008789062 158.509765625 267.008789062 159.67578125 268.717773438 c 132,-1,114
 160.84375 270.427734375 160.84375 270.427734375 161.141601562 270.670898438 c 4,115,116
 162.348632812 271.653320312 162.348632812 271.653320312 169.268554688 282.145507812 c 4,117,118
 170.5546875 284.09765625 170.5546875 284.09765625 170.875 284.342773438 c 132,-1,119
 171.19140625 284.583007812 171.19140625 284.583007812 172.374023438 286.540039062 c 132,-1,120
 173.551757812 288.491210938 173.551757812 288.491210938 173.959960938 288.981445312 c 132,-1,121
 174.364257812 289.46484375 174.364257812 289.46484375 176.364257812 292.643554688 c 132,-1,122
 178.338867188 295.783203125 178.338867188 295.783203125 179.454101562 297.526367188 c 4,123,124
 188.66015625 311.913085938 188.66015625 311.913085938 193.760742188 325.846679688 c 4,125,126
 198.4375 338.615234375 198.4375 338.615234375 198.94140625 351.481445312 c 4,127,128
 199.828125 374.091796875 199.828125 374.091796875 203.760742188 386.393554688 c 4,129,130
 206.516601562 395.016601562 206.516601562 395.016601562 212.307617188 403.641601562 c 4,131,132
 215.44140625 408.30859375 215.44140625 408.30859375 216.749023438 410.26953125 c 4,133,134
 217.920898438 412.02734375 217.920898438 412.02734375 218.254882812 412.272460938 c 132,-1,135
 218.586914062 412.514648438 218.586914062 412.514648438 221.212890625 416.422851562 c 4,136,137
 225.1328125 422.2578125 225.1328125 422.2578125 228.515625 425.94921875 c 4,138,139
 229.243164062 426.744140625 229.243164062 426.744140625 231.689453125 429.63671875 c 4,140,141
 237.18359375 436.13671875 237.18359375 436.13671875 251.059570312 449.870117188 c 6,142,-1
 259.201171875 457.926757812 l 5,143,-1
 256.79296875 464.274414062 l 6,144,145
 245.376953125 494.373046875 245.376953125 494.373046875 240.770507812 525.065429688 c 4,146,147
 236.543945312 553.231445312 236.543945312 553.231445312 237.7265625 579.18359375 c 4,148,149
 238.202148438 589.6015625 238.202148438 589.6015625 238.36328125 589.73046875 c 4,150,151
 238.912109375 590.16796875 238.912109375 590.16796875 252.844726562 585.198242188 c 6,152,-1
 257.790039062 583.930664062 l 5,153,154
 257.204101562 584.635742188 257.204101562 584.635742188 256.739257812 584.635742188 c 132,-1,155
 256.271484375 584.635742188 256.271484375 584.635742188 253.41796875 586.833007812 c 132,-1,156
 250.561523438 589.030273438 250.561523438 589.030273438 250.244140625 589.030273438 c 132,-1,157
 249.923828125 589.030273438 249.923828125 589.030273438 247.0703125 591.227539062 c 132,-1,158
 244.213867188 593.424804688 244.213867188 593.424804688 243.896484375 593.424804688 c 132,-1,159
 243.576171875 593.424804688 243.576171875 593.424804688 240.72265625 595.622070312 c 132,-1,160
 237.866210938 597.819335938 237.866210938 597.819335938 237.548828125 597.819335938 c 132,-1,161
 237.228515625 597.819335938 237.228515625 597.819335938 234.375 600.016601562 c 132,-1,162
 231.518554688 602.213867188 231.518554688 602.213867188 231.186523438 602.213867188 c 132,-1,163
 230.853515625 602.213867188 230.853515625 602.213867188 229.07421875 603.609375 c 132,-1,164
 227.099609375 605.159179688 227.099609375 605.159179688 218.383789062 611.118164062 c 6,165,-1
 216.30859375 612.536132812 l 5,166,-1
 216.30859375 695.021484375 l 5,167,-1
 216.30859375 777.506835938 l 5,168,-1
 282.958984375 777.506835938 l 5,169,-1
 349.609375 777.506835938 l 5,170,-1
 349.609375 747.233398438 l 5,171,-1
 349.609375 716.959960938 l 5,172,-1
 391.357421875 716.959960938 l 5,173,-1
 433.10546875 716.959960938 l 5,174,-1
 433.10546875 747.233398438 l 5,175,-1
 433.10546875 777.506835938 l 5,176,-1
 500 777.506835938 l 5,177,-1
 566.89453125 777.506835938 l 5,178,-1
 566.89453125 747.233398438 l 5,179,-1
 566.89453125 716.959960938 l 5,180,-1
 608.3984375 716.959960938 l 5,181,-1
 649.90234375 716.959960938 l 5,182,-1
 649.90234375 747.233398438 l 5,183,-1
 649.90234375 777.506835938 l 5,184,-1
 716.796875 777.506835938 l 5,185,-1
 783.69140625 777.506835938 l 5,186,-1
 783.69140625 695.021484375 l 5,187,-1
 783.69140625 612.536132812 l 5,188,-1
 781.616210938 611.118164062 l 6,189,190
 779.619140625 609.75390625 779.619140625 609.75390625 776.3671875 607.49609375 c 132,-1,191
 773.099609375 605.228515625 773.099609375 605.228515625 769.775390625 602.952148438 c 132,-1,192
 766.353515625 600.609375 766.353515625 600.609375 764.578125 599.21484375 c 132,-1,193
 762.798828125 597.819335938 762.798828125 597.819335938 762.465820312 597.819335938 c 132,-1,194
 762.133789062 597.819335938 762.133789062 597.819335938 759.27734375 595.622070312 c 132,-1,195
 756.423828125 593.424804688 756.423828125 593.424804688 756.103515625 593.424804688 c 132,-1,196
 755.786132812 593.424804688 755.786132812 593.424804688 752.9296875 591.227539062 c 132,-1,197
 750.076171875 589.030273438 750.076171875 589.030273438 749.755859375 589.030273438 c 132,-1,198
 749.438476562 589.030273438 749.438476562 589.030273438 746.58203125 586.833007812 c 132,-1,199
 743.728515625 584.635742188 743.728515625 584.635742188 743.408203125 584.635742188 c 132,-1,200
 743.090820312 584.635742188 743.090820312 584.635742188 740.234375 582.438476562 c 132,-1,201
 737.380859375 580.241210938 737.380859375 580.241210938 737.060546875 580.241210938 c 132,-1,202
 736.743164062 580.241210938 736.743164062 580.241210938 733.88671875 578.043945312 c 132,-1,203
 731.033203125 575.846679688 731.033203125 575.846679688 730.708984375 575.846679688 c 132,-1,204
 730.387695312 575.846679688 730.387695312 575.846679688 727.58984375 573.649414062 c 132,-1,205
 724.79296875 571.452148438 724.79296875 571.452148438 724.416015625 571.452148438 c 132,-1,206
 724.040039062 571.452148438 724.040039062 571.452148438 721.2421875 569.254882812 c 132,-1,207
 718.4453125 567.057617188 718.4453125 567.057617188 718.068359375 567.057617188 c 132,-1,208
 717.692382812 567.057617188 717.692382812 567.057617188 714.89453125 564.860351562 c 132,-1,209
 712.09765625 562.663085938 712.09765625 562.663085938 711.720703125 562.663085938 c 132,-1,210
 711.344726562 562.663085938 711.344726562 562.663085938 708.546875 560.465820312 c 132,-1,211
 705.75 558.268554688 705.75 558.268554688 705.373046875 558.268554688 c 132,-1,212
 704.997070312 558.268554688 704.997070312 558.268554688 702.19921875 556.071289062 c 132,-1,213
 699.40234375 553.874023438 699.40234375 553.874023438 699.048828125 553.874023438 c 132,-1,214
 698.6953125 553.874023438 698.6953125 553.874023438 695.592773438 551.5546875 c 132,-1,215
 692.497070312 549.23828125 692.497070312 549.23828125 689.275390625 547.038085938 c 4,216,217
 681.393554688 541.651367188 681.393554688 541.651367188 677.368164062 538.741210938 c 6,218,-1
 675.29296875 537.241210938 l 5,219,-1
 675.29296875 503.100585938 l 5,220,-1
 675.29296875 468.959960938 l 5,221,-1
 678.157226562 467.28125 l 6,222,223
 681.024414062 465.599609375 681.024414062 465.599609375 682.185546875 465.233398438 c 132,-1,224
 683.348632812 464.864257812 683.348632812 464.864257812 685.158203125 463.72265625 c 132,-1,225
 686.963867188 462.583007812 686.963867188 462.583007812 690.529296875 460.69921875 c 4,226,227
 699.6875 455.862304688 699.6875 455.862304688 709.47265625 449.649414062 c 4,228,229
 712.600585938 447.662109375 712.600585938 447.662109375 713.455078125 447.165039062 c 4,230,231
 717.1484375 445.024414062 717.1484375 445.024414062 722.6328125 440.975585938 c 4,232,233
 724.810546875 439.369140625 724.810546875 439.369140625 726.05078125 438.69140625 c 132,-1,234
 727.297851562 438.009765625 727.297851562 438.009765625 729.559570312 436.127929688 c 132,-1,235
 731.82421875 434.245117188 731.82421875 434.245117188 732.192382812 434.245117188 c 132,-1,236
 732.55859375 434.245117188 732.55859375 434.245117188 735.1328125 432.047851562 c 132,-1,237
 737.703125 429.850585938 737.703125 429.850585938 738.037109375 429.850585938 c 132,-1,238
 738.370117188 429.850585938 738.370117188 429.850585938 740.888671875 427.755859375 c 132,-1,239
 743.404296875 425.665039062 743.404296875 425.665039062 744.950195312 424.459960938 c 4,240,241
 763.315429688 410.1484375 763.315429688 410.1484375 780.681640625 391.33203125 c 4,242,243
 785.884765625 385.697265625 785.884765625 385.697265625 786.1328125 385.428710938 c 4,244,245
 787.91015625 383.504882812 787.91015625 383.504882812 793.931640625 376.383789062 c 4,246,247
 796.216796875 373.681640625 796.216796875 373.681640625 797.033203125 372.721679688 c 4,248,249
 800.381835938 368.77734375 800.381835938 368.77734375 802.98828125 365.34375 c 4,250,251
 807.370117188 359.567382812 807.370117188 359.567382812 811.038085938 354.655273438 c 4,252,253
 812.435546875 352.78515625 812.435546875 352.78515625 817.7578125 345.428710938 c 4,254,255
 818.596679688 344.268554688 818.596679688 344.268554688 819.3359375 343.150390625 c 132,-1,256
 819.96484375 342.19921875 819.96484375 342.19921875 824.90234375 334.797851562 c 4,257,258
 833.752929688 321.540039062 833.752929688 321.540039062 840.099609375 310.709960938 c 4,259,260
 841.956054688 307.54296875 841.956054688 307.54296875 843.022460938 305.827148438 c 4,261,262
 845.971679688 301.083984375 845.971679688 301.083984375 854.381835938 285.017578125 c 132,-1,263
 862.79296875 268.951171875 862.79296875 268.951171875 862.79296875 268.060546875 c 4,264,265
 862.79296875 267.853515625 862.79296875 267.853515625 865.025390625 263.03515625 c 4,266,267
 868.024414062 256.56640625 868.024414062 256.56640625 870.581054688 250.407226562 c 4,268,269
 872.599609375 245.54296875 872.599609375 245.54296875 873.049804688 244.547851562 c 4,270,271
 874.241210938 241.913085938 874.241210938 241.913085938 878.877929688 229.411132812 c 4,272,273
 902.325195312 166.174804688 902.325195312 166.174804688 909.890625 90.9833984375 c 4,274,275
 915.466796875 35.5302734375 915.466796875 35.5302734375 915.524414062 -0.203125 c 6,276,-1
 915.529296875 -2.2783203125 l 5,277,-1
 637.453125 -2.2783203125 l 6,278,279
 359.376953125 -2.2783203125 359.376953125 -2.2783203125 359.375 -1.88671875 c 4,0,1
859.860351562 49.6015625 m 6,280,281
 859.854492188 86.8330078125 859.854492188 86.8330078125 858.133789062 105.387695312 c 4,282,283
 853.34765625 157.010742188 853.34765625 157.010742188 833.708984375 215.739257812 c 4,284,285
 825.108398438 241.458007812 825.108398438 241.458007812 820.817382812 250.895507812 c 4,286,287
 820.369140625 251.880859375 820.369140625 251.880859375 816.98046875 259.928710938 c 4,288,289
 808.430664062 280.235351562 808.430664062 280.235351562 796.303710938 301.920898438 c 4,290,291
 788.396484375 316.057617188 788.396484375 316.057617188 787.686523438 316.859375 c 4,292,293
 787.215820312 317.388671875 787.215820312 317.388671875 786.387695312 318.989257812 c 132,-1,294
 785.556640625 320.595703125 785.556640625 320.595703125 783.391601562 323.755859375 c 132,-1,295
 781.228515625 326.916015625 781.228515625 326.916015625 780.514648438 328.29296875 c 132,-1,296
 779.809570312 329.657226562 779.809570312 329.657226562 779.16796875 330.31640625 c 132,-1,297
 778.52734375 330.974609375 778.52734375 330.974609375 777.34375 332.926757812 c 132,-1,298
 776.162109375 334.875976562 776.162109375 334.875976562 775.52734375 335.528320312 c 132,-1,299
 774.893554688 336.1796875 774.893554688 336.1796875 774.361328125 337.17578125 c 4,300,301
 773.264648438 339.225585938 773.264648438 339.225585938 769.7578125 343.53515625 c 4,302,303
 769.075195312 344.373046875 769.075195312 344.373046875 767.771484375 346.342773438 c 132,-1,304
 766.47265625 348.306640625 766.47265625 348.306640625 766.170898438 348.30859375 c 132,-1,305
 765.869140625 348.30859375 765.869140625 348.30859375 764.481445312 350.505859375 c 132,-1,306
 763.094726562 352.702148438 763.094726562 352.702148438 762.755859375 352.702148438 c 132,-1,307
 762.41796875 352.702148438 762.41796875 352.702148438 761.512695312 354.234375 c 132,-1,308
 760.608398438 355.764648438 760.608398438 355.764648438 759.813476562 356.559570312 c 132,-1,309
 759.022460938 357.350585938 759.022460938 357.350585938 757.828125 359.055664062 c 132,-1,310
 756.641601562 360.751953125 756.641601562 360.751953125 755.5546875 361.979492188 c 132,-1,311
 754.478515625 363.193359375 754.478515625 363.193359375 752.434570312 365.641601562 c 4,312,313
 740.17578125 380.32421875 740.17578125 380.32421875 726.508789062 392.198242188 c 4,314,315
 718.342773438 399.291992188 718.342773438 399.291992188 716.044921875 401.041992188 c 4,316,317
 714.475585938 402.237304688 714.475585938 402.237304688 710.678710938 405.192382812 c 132,-1,318
 706.936523438 408.10546875 706.936523438 408.10546875 704.529296875 409.831054688 c 4,319,320
 694.455078125 417.048828125 694.455078125 417.048828125 692.491210938 418.134765625 c 4,321,322
 691.168945312 418.8671875 691.168945312 418.8671875 688.275390625 420.942382812 c 132,-1,323
 685.387695312 423.014648438 685.387695312 423.014648438 684.903320312 423.014648438 c 132,-1,324
 684.41796875 423.014648438 684.41796875 423.014648438 682.727539062 424.303710938 c 132,-1,325
 681.041992188 425.590820312 681.041992188 425.590820312 677.5546875 427.548828125 c 4,326,327
 661.93359375 436.319335938 661.93359375 436.319335938 651.85546875 441.326171875 c 4,328,329
 635.905273438 449.25 635.905273438 449.25 632.8125 450.134765625 c 4,330,331
 631.592773438 450.484375 631.592773438 450.484375 629.150390625 451.711914062 c 132,-1,332
 626.708007812 452.94140625 626.708007812 452.94140625 623.53515625 454.044921875 c 132,-1,333
 620.362304688 455.149414062 620.362304688 455.149414062 616.69921875 456.623046875 c 4,334,335
 600.711914062 463.061523438 600.711914062 463.061523438 583.251953125 467.600585938 c 4,336,337
 555.8125 474.732421875 555.8125 474.732421875 546.46875 475.793945312 c 4,338,339
 542.267578125 476.271484375 542.267578125 476.271484375 541.100585938 476.564453125 c 132,-1,340
 539.932617188 476.857421875 539.932617188 476.857421875 540.216796875 475.44921875 c 4,341,342
 546.270507812 445.415039062 546.270507812 445.415039062 543.50390625 431.356445312 c 4,343,344
 540.999023438 418.620117188 540.999023438 418.620117188 527.099609375 418.620117188 c 4,345,346
 515.840820312 418.620117188 515.840820312 418.620117188 512.326171875 425.700195312 c 4,347,348
 511.35546875 427.654296875 511.35546875 427.654296875 511.08203125 439.372070312 c 4,349,350
 510.708007812 455.413085938 510.708007812 455.413085938 507.74609375 467.448242188 c 4,351,352
 504.998046875 478.60546875 504.998046875 478.60546875 501.650390625 486.002929688 c 4,353,354
 491.725585938 507.923828125 491.725585938 507.923828125 473.12109375 526.65234375 c 4,355,356
 466.44921875 533.366210938 466.44921875 533.366210938 465.47265625 533.366210938 c 4,357,358
 464.209960938 533.366210938 464.209960938 533.366210938 457.702148438 526.248046875 c 132,-1,359
 451.1953125 519.129882812 451.1953125 519.129882812 447.39453125 513.590820312 c 4,360,361
 446.051757812 511.633789062 446.051757812 511.633789062 445.779296875 511.393554688 c 132,-1,362
 445.500976562 511.14453125 445.500976562 511.14453125 444.3359375 509.196289062 c 132,-1,363
 443.166992188 507.2421875 443.166992188 507.2421875 442.8671875 506.999023438 c 4,364,365
 441.083007812 505.543945312 441.083007812 505.543945312 435.46484375 493.09765625 c 4,366,367
 427.036132812 474.431640625 427.036132812 474.431640625 425.541992188 454.997070312 c 4,368,369
 424.642578125 443.305664062 424.642578125 443.305664062 418.76953125 440.20703125 c 4,370,371
 416.259765625 438.8828125 416.259765625 438.8828125 409.66796875 438.892578125 c 132,-1,372
 403.075195312 438.901367188 403.075195312 438.901367188 400.165039062 440.11328125 c 4,373,374
 392.373046875 443.35546875 392.373046875 443.35546875 392.341796875 453.043945312 c 4,375,376
 392.334960938 455.48828125 392.334960938 455.48828125 392.709960938 456.828125 c 4,377,378
 393.193359375 458.559570312 393.193359375 458.559570312 390.6796875 457.858398438 c 4,379,380
 389.41796875 457.506835938 389.41796875 457.506835938 386.411132812 456.405273438 c 4,381,382
 381.609375 454.64453125 381.609375 454.64453125 379.39453125 454.03125 c 132,-1,383
 377.197265625 453.421875 377.197265625 453.421875 374.0234375 452.060546875 c 132,-1,384
 370.837890625 450.693359375 370.837890625 450.693359375 367.919921875 449.607421875 c 4,385,386
 360.541015625 446.861328125 360.541015625 446.861328125 351.318359375 442.169921875 c 4,387,388
 347.409179688 440.181640625 347.409179688 440.181640625 344.522460938 439.353515625 c 4,389,390
 333.651367188 436.227539062 333.651367188 436.227539062 326.861328125 448.852539062 c 4,391,392
 325.439453125 451.498046875 325.439453125 451.498046875 325.439453125 454.711914062 c 132,-1,393
 325.439453125 457.926757812 325.439453125 457.926757812 327.049804688 460.24609375 c 4,394,395
 329.713867188 464.081054688 329.713867188 464.081054688 336.140625 466.971679688 c 4,396,397
 350.059570312 473.232421875 350.059570312 473.232421875 362.915039062 479.302734375 c 4,398,399
 367.1875 481.3203125 367.1875 481.3203125 367.1875 481.786132812 c 132,-1,400
 367.1875 482.252929688 367.1875 482.252929688 365.356445312 483.875976562 c 4,401,402
 357.094726562 491.206054688 357.094726562 491.206054688 351.1953125 495.907226562 c 4,403,404
 348.938476562 497.706054688 348.938476562 497.706054688 346.489257812 499.725585938 c 132,-1,405
 344.107421875 501.689453125 344.107421875 501.689453125 342.827148438 502.501953125 c 132,-1,406
 341.555664062 503.305664062 341.555664062 503.305664062 339.32421875 505.153320312 c 132,-1,407
 337.094726562 506.999023438 337.094726562 506.999023438 336.706054688 506.999023438 c 132,-1,408
 336.318359375 506.999023438 336.318359375 506.999023438 334.051757812 508.879882812 c 132,-1,409
 331.787109375 510.762695312 331.787109375 510.762695312 330.56640625 511.401367188 c 132,-1,410
 329.346679688 512.041015625 329.346679688 512.041015625 326.860351562 513.9140625 c 132,-1,411
 324.373046875 515.788085938 324.373046875 515.788085938 324.044921875 515.788085938 c 132,-1,412
 323.713867188 515.788085938 323.713867188 515.788085938 320.6953125 517.985351562 c 132,-1,413
 317.673828125 520.182617188 317.673828125 520.182617188 317.258789062 520.182617188 c 132,-1,414
 316.840820312 520.182617188 316.840820312 520.182617188 313.948242188 522.146484375 c 132,-1,415
 311.056640625 524.110351562 311.056640625 524.110351562 310.190429688 524.426757812 c 132,-1,416
 309.32421875 524.7421875 309.32421875 524.7421875 307.373046875 526.038085938 c 4,417,418
 298.92578125 531.645507812 298.92578125 531.645507812 287.138671875 536.977539062 c 4,419,420
 285.967773438 537.506835938 285.967773438 537.506835938 282.744140625 539.16796875 c 4,421,422
 279.94140625 540.612304688 279.94140625 540.612304688 277.446289062 541.7109375 c 132,-1,423
 274.952148438 542.809570312 274.952148438 542.809570312 273.461914062 543.263671875 c 132,-1,424
 271.97265625 543.717773438 271.97265625 543.717773438 271.97265625 543.364257812 c 4,425,426
 271.97265625 536.076171875 271.97265625 536.076171875 276.43359375 514.079101562 c 4,427,428
 282.458984375 484.360351562 282.458984375 484.360351562 293.568359375 459.147460938 c 4,429,430
 294.435546875 457.176757812 294.435546875 457.176757812 295.291015625 455.241210938 c 4,431,432
 300.251953125 443.997070312 300.251953125 443.997070312 306.092773438 433.63671875 c 4,433,434
 309.337890625 427.8828125 309.337890625 427.8828125 310.612304688 425.580078125 c 4,435,436
 315.776367188 416.262695312 315.776367188 416.262695312 305.059570312 408.311523438 c 4,437,438
 297.700195312 402.850585938 297.700195312 402.850585938 290.092773438 404.92578125 c 4,439,440
 283.216796875 406.802734375 283.216796875 406.802734375 274.124023438 424.202148438 c 4,441,442
 272.705078125 426.918945312 272.705078125 426.918945312 272.403320312 426.918945312 c 132,-1,443
 272.102539062 426.920898438 272.102539062 426.920898438 269.955078125 424.845703125 c 132,-1,444
 267.874023438 422.831054688 267.874023438 422.831054688 265.129882812 420.26953125 c 4,445,446
 260.443359375 415.895507812 260.443359375 415.895507812 257.412109375 411.825195312 c 4,447,448
 256.107421875 410.072265625 256.107421875 410.072265625 255.8359375 409.831054688 c 132,-1,449
 255.559570312 409.58203125 255.559570312 409.58203125 254.39453125 407.633789062 c 132,-1,450
 253.225585938 405.678710938 253.225585938 405.678710938 252.9296875 405.436523438 c 132,-1,451
 252.631835938 405.190429688 252.631835938 405.190429688 251.46484375 403.239257812 c 132,-1,452
 250.296875 401.287109375 250.296875 401.287109375 250.00390625 401.041992188 c 132,-1,453
 249.711914062 400.796875 249.711914062 400.796875 248.702148438 399.088867188 c 132,-1,454
 247.666992188 397.3359375 247.666992188 397.3359375 243.713867188 390.82421875 c 4,455,456
 235.322265625 376.994140625 235.322265625 376.994140625 232.744140625 369.059570312 c 132,-1,457
 230.197265625 361.216796875 230.197265625 361.216796875 231.23046875 349.740234375 c 4,458,459
 232.01953125 340.970703125 232.01953125 340.970703125 231.215820312 336.94921875 c 4,460,461
 228.380859375 322.752929688 228.380859375 322.752929688 222.209960938 309.577148438 c 4,462,463
 216.224609375 296.80078125 216.224609375 296.80078125 211.571289062 290.931640625 c 4,464,465
 211.177734375 290.436523438 211.177734375 290.436523438 207.11328125 284.421875 c 4,466,467
 199.66015625 273.391601562 199.66015625 273.391601562 195.922851562 268.280273438 c 4,468,469
 195.077148438 267.124023438 195.077148438 267.124023438 194.3359375 265.998046875 c 132,-1,470
 193.59375 264.870117188 193.59375 264.870117188 188.4765625 257.731445312 c 132,-1,471
 183.333007812 250.55078125 183.333007812 250.55078125 182.600585938 249.435546875 c 132,-1,472
 181.8671875 248.317382812 181.8671875 248.317382812 180.8125 246.909179688 c 4,473,474
 176.677734375 241.399414062 176.677734375 241.399414062 175.564453125 239.665039062 c 4,475,476
 174.622070312 238.194335938 174.622070312 238.194335938 174.104492188 237.649414062 c 132,-1,477
 173.58203125 237.096679688 173.58203125 237.096679688 170.166015625 232.321289062 c 4,478,479
 164.606445312 224.549804688 164.606445312 224.549804688 156.770507812 214.049804688 c 4,480,481
 154.056640625 210.412109375 154.056640625 210.412109375 153.131835938 208.922851562 c 132,-1,482
 152.208984375 207.435546875 152.208984375 207.435546875 151.314453125 206.461914062 c 132,-1,483
 150.412109375 205.477539062 150.412109375 205.477539062 146.474609375 200.114257812 c 132,-1,484
 142.529296875 194.743164062 142.529296875 194.743164062 141.935546875 194.010742188 c 132,-1,485
 141.334960938 193.270507812 141.334960938 193.270507812 139.88671875 191.325195312 c 132,-1,486
 138.434570312 189.373046875 138.434570312 189.373046875 138.143554688 189.127929688 c 4,487,488
 135.719726562 187.080078125 135.719726562 187.080078125 129.727539062 175.8671875 c 4,489,490
 123.526367188 164.259765625 123.526367188 164.259765625 119.045898438 147.624023438 c 4,491,492
 117.534179688 142.0078125 117.534179688 142.0078125 117.3046875 133.552734375 c 4,493,494
 116.821289062 115.759765625 116.821289062 115.759765625 121.89453125 101.74609375 c 4,495,496
 125.569335938 91.59765625 125.569335938 91.59765625 128.5546875 88.4404296875 c 4,497,498
 129.16015625 87.796875 129.16015625 87.796875 130.440429688 86.1005859375 c 4,499,500
 133.750976562 81.71484375 133.750976562 81.71484375 140.791015625 75.86328125 c 4,501,502
 154.544921875 64.4326171875 154.544921875 64.4326171875 166.748046875 60.9013671875 c 4,503,504
 171.6328125 59.48828125 171.6328125 59.48828125 178.955078125 59.49609375 c 132,-1,505
 186.276367188 59.50390625 186.276367188 59.50390625 191.548828125 61.0693359375 c 4,506,507
 205.833984375 65.3115234375 205.833984375 65.3115234375 212.553710938 74.0791015625 c 4,508,509
 215.131835938 77.443359375 215.131835938 77.443359375 219.249023438 85.4296875 c 4,510,511
 222.048828125 90.8603515625 222.048828125 90.8603515625 223.000976562 92.265625 c 132,-1,512
 223.931640625 93.634765625 223.931640625 93.634765625 225.868164062 96.58984375 c 4,513,514
 233.09375 107.612304688 233.09375 107.612304688 239.447265625 107.571289062 c 4,515,516
 241.458007812 107.55859375 241.458007812 107.55859375 244.62890625 106.45703125 c 132,-1,517
 247.802734375 105.35546875 247.802734375 105.35546875 249.356445312 103.046875 c 4,518,519
 252.712890625 98.05859375 252.712890625 98.05859375 251.447265625 93.357421875 c 132,-1,520
 250.203125 88.744140625 250.203125 88.744140625 245.94921875 78.0439453125 c 4,521,522
 239.662109375 62.236328125 239.662109375 62.236328125 229.99609375 52.3779296875 c 4,523,524
 229.251953125 51.619140625 229.251953125 51.619140625 228.02734375 49.818359375 c 132,-1,525
 226.807617188 48.021484375 226.807617188 48.021484375 226.473632812 48.017578125 c 132,-1,526
 226.143554688 48.017578125 226.143554688 48.017578125 225.081054688 46.5263671875 c 132,-1,527
 224.021484375 45.0380859375 224.021484375 45.0380859375 224.633789062 43.474609375 c 4,528,529
 229.073242188 32.125 229.073242188 32.125 234.698242188 30.6748046875 c 4,530,531
 237.21875 30.025390625 237.21875 30.025390625 240.461914062 30.7646484375 c 132,-1,532
 243.704101562 31.50390625 243.704101562 31.50390625 247.217773438 34.3251953125 c 4,533,534
 254.095703125 39.8466796875 254.095703125 39.8466796875 263.635742188 56.982421875 c 4,535,536
 272.7734375 73.396484375 272.7734375 73.396484375 284.212890625 90.828125 c 4,537,538
 290.588867188 100.545898438 290.588867188 100.545898438 291.48046875 101.237304688 c 4,539,540
 291.796875 101.482421875 291.796875 101.482421875 292.946289062 103.190429688 c 132,-1,541
 294.100585938 104.903320312 294.100585938 104.903320312 294.631835938 105.387695312 c 132,-1,542
 295.166992188 105.876953125 295.166992188 105.876953125 296.606445312 107.829101562 c 132,-1,543
 298.051757812 109.787109375 298.051757812 109.787109375 299.119140625 111.002929688 c 132,-1,544
 300.047851562 112.061523438 300.047851562 112.061523438 302.735351562 115.153320312 c 4,545,546
 317.793945312 132.487304688 317.793945312 132.487304688 320.473632812 132.487304688 c 4,547,548
 320.951171875 132.487304688 320.951171875 132.487304688 323.53515625 134.806640625 c 4,549,550
 327.041015625 137.953125 327.041015625 137.953125 334.228515625 143.475585938 c 4,551,552
 337.655273438 146.108398438 337.655273438 146.108398438 339.35546875 147.520507812 c 132,-1,553
 341.072265625 148.9453125 341.072265625 148.9453125 342.529296875 149.845703125 c 132,-1,554
 343.999023438 150.755859375 343.999023438 150.755859375 346.258789062 152.606445312 c 132,-1,555
 348.524414062 154.459960938 348.524414062 154.459960938 348.859375 154.459960938 c 132,-1,556
 349.197265625 154.459960938 349.197265625 154.459960938 352.05078125 156.657226562 c 132,-1,557
 354.907226562 158.854492188 354.907226562 158.854492188 355.241210938 158.854492188 c 132,-1,558
 355.577148438 158.854492188 355.577148438 158.854492188 358.583007812 160.955078125 c 132,-1,559
 361.5859375 163.055664062 361.5859375 163.055664062 362.444335938 163.384765625 c 132,-1,560
 363.30078125 163.712890625 363.30078125 163.712890625 366.194335938 165.678710938 c 132,-1,561
 369.087890625 167.643554688 369.087890625 167.643554688 369.486328125 167.643554688 c 132,-1,562
 369.88671875 167.643554688 369.88671875 167.643554688 372.377929688 169.321289062 c 4,563,564
 384.657226562 177.58984375 384.657226562 177.58984375 406.005859375 185.44140625 c 4,565,566
 410.395507812 187.055664062 410.395507812 187.055664062 414.197265625 188.581054688 c 132,-1,567
 417.993164062 190.104492188 417.993164062 190.104492188 418.525390625 190.104492188 c 132,-1,568
 419.057617188 190.104492188 419.057617188 190.104492188 423.45703125 192.057617188 c 132,-1,569
 427.859375 194.010742188 427.859375 194.010742188 428.40625 194.012695312 c 132,-1,570
 428.94921875 194.012695312 428.94921875 194.012695312 433.822265625 196.209960938 c 132,-1,571
 438.690429688 198.405273438 438.690429688 198.405273438 439.228515625 198.405273438 c 132,-1,572
 439.770507812 198.405273438 439.770507812 198.405273438 444.126953125 200.522460938 c 132,-1,573
 448.487304688 202.639648438 448.487304688 202.639648438 449.885742188 202.987304688 c 132,-1,574
 451.278320312 203.33203125 451.278320312 203.33203125 454.61328125 205.220703125 c 132,-1,575
 457.935546875 207.104492188 457.935546875 207.104492188 458.90234375 207.412109375 c 4,576,577
 462.5546875 208.572265625 462.5546875 208.572265625 469.970703125 213.924804688 c 4,578,579
 471.923828125 215.334960938 471.923828125 215.334960938 473.14453125 215.981445312 c 4,580,581
 483.663085938 221.549804688 483.663085938 221.549804688 497.305664062 237.4765625 c 4,582,583
 503.48828125 244.692382812 503.48828125 244.692382812 507.504882812 250.895507812 c 4,584,585
 509.389648438 253.807617188 509.389648438 253.807617188 510.424804688 255.290039062 c 4,586,587
 516.299804688 263.703125 516.299804688 263.703125 520.642578125 276.068359375 c 4,588,589
 523.334960938 283.740234375 523.334960938 283.740234375 524.4296875 292.887695312 c 4,590,591
 524.961914062 297.334960938 524.961914062 297.334960938 524.978515625 305.8125 c 132,-1,592
 524.994140625 314.291015625 524.994140625 314.291015625 524.475585938 316.877929688 c 4,593,594
 523.58984375 321.293945312 523.58984375 321.293945312 526.153320312 324.69140625 c 4,595,596
 527.309570312 326.22265625 527.309570312 326.22265625 531.110351562 327.62109375 c 132,-1,597
 534.9140625 329.020507812 534.9140625 329.020507812 540.771484375 329.012695312 c 4,598,599
 550.297851562 329.000976562 550.297851562 329.000976562 554.805664062 324.267578125 c 4,600,601
 559.955078125 318.862304688 559.955078125 318.862304688 558.572265625 302.653320312 c 4,602,603
 556.314453125 276.205078125 556.314453125 276.205078125 545.311523438 253.092773438 c 4,604,605
 539.450195312 240.7734375 539.450195312 240.7734375 536.999023438 237.711914062 c 4,606,607
 536.611328125 237.229492188 536.611328125 237.229492188 534.08984375 233.317382812 c 132,-1,608
 531.568359375 229.408203125 531.568359375 229.408203125 531.256835938 229.166992188 c 132,-1,609
 530.943359375 228.923828125 530.943359375 228.923828125 529.352539062 226.586914062 c 6,610,-1
 527.762695312 224.250976562 l 5,611,-1
 529.234375 219.750976562 l 6,612,613
 538.368164062 191.833984375 538.368164062 191.833984375 532.674804688 160.212890625 c 4,614,615
 529.580078125 143.032226562 529.580078125 143.032226562 523.173828125 128.336914062 c 4,616,617
 522.530273438 126.857421875 522.530273438 126.857421875 520.98046875 123.209960938 c 4,618,619
 514.299804688 107.473632812 514.299804688 107.473632812 506.313476562 95.6220703125 c 4,620,621
 491.123046875 73.078125 491.123046875 73.078125 459.943359375 48.2587890625 c 4,622,623
 452.290039062 42.1669921875 452.290039062 42.1669921875 448.280273438 39.2255859375 c 4,624,625
 445.958007812 37.5205078125 445.958007812 37.5205078125 444.418945312 36.2958984375 c 132,-1,626
 442.897460938 35.0830078125 442.897460938 35.0830078125 439.669921875 32.6337890625 c 132,-1,627
 436.44921875 30.1884765625 436.44921875 30.1884765625 433.803710938 27.9951171875 c 4,628,629
 428.990234375 24.0009765625 428.990234375 24.0009765625 428.5078125 23.6005859375 c 4,630,631
 425.860351562 21.40234375 425.860351562 21.40234375 425.821289062 21.037109375 c 4,632,633
 425.8046875 20.8857421875 425.8046875 20.8857421875 489.51171875 20.7783203125 c 132,-1,634
 553.217773438 20.6708984375 553.217773438 20.6708984375 642.822265625 20.6708984375 c 6,635,-1
 859.86328125 20.6708984375 l 5,636,-1
 859.860351562 49.6015625 l 6,280,281
152.607421875 113.606445312 m 132,-1,638
 149.697265625 114.747070312 149.697265625 114.747070312 148.133789062 117.017578125 c 4,639,640
 145.5078125 120.827148438 145.5078125 120.827148438 145.5078125 125.611328125 c 4,641,642
 145.5078125 135.459960938 145.5078125 135.459960938 150.724609375 145.876953125 c 4,643,644
 154.0234375 152.466796875 154.0234375 152.466796875 156.481445312 155.393554688 c 4,645,646
 166.8046875 167.685546875 166.8046875 167.685546875 178.228515625 173.624023438 c 4,647,648
 185.091796875 177.19140625 185.091796875 177.19140625 190.921875 174.309570312 c 4,649,650
 195.875 171.859375 195.875 171.859375 198.08203125 169.2421875 c 4,651,652
 203.583007812 162.716796875 203.583007812 162.716796875 202.150390625 157.3984375 c 4,653,654
 200.857421875 152.594726562 200.857421875 152.594726562 194.15625 148.598632812 c 4,655,656
 188.802734375 145.40625 188.802734375 145.40625 185.747070312 142.170898438 c 4,657,658
 179.0625 135.087890625 179.0625 135.087890625 178.411132812 127.604492188 c 4,659,660
 177.78515625 120.411132812 177.78515625 120.411132812 174.340820312 116.909179688 c 4,661,662
 170.379882812 112.8828125 170.379882812 112.8828125 160.888671875 112.616210938 c 4,663,637
 155.51953125 112.465820312 155.51953125 112.465820312 152.607421875 113.606445312 c 132,-1,638
269.452148438 303.095703125 m 4,664,665
 257.8125 307.024414062 257.8125 307.024414062 257.8125 317.767578125 c 4,666,667
 257.8125 321.688476562 257.8125 321.688476562 261.790039062 329.508789062 c 4,668,669
 269.708007812 345.071289062 269.708007812 345.071289062 274.165039062 349.040039062 c 4,670,671
 274.716796875 349.53125 274.716796875 349.53125 276.140625 351.481445312 c 4,672,673
 280.999023438 358.12890625 280.999023438 358.12890625 292.301757812 367.3671875 c 4,674,675
 297.270507812 371.428710938 297.270507812 371.428710938 305.643554688 376.97265625 c 4,676,677
 314.584960938 382.889648438 314.584960938 382.889648438 326.416992188 387.47265625 c 4,678,679
 339.133789062 392.3984375 339.133789062 392.3984375 344.318359375 392.635742188 c 4,680,681
 349.036132812 392.8515625 349.036132812 392.8515625 351.642578125 391.623046875 c 4,682,683
 356.90234375 389.142578125 356.90234375 389.142578125 359.499023438 383.596679688 c 4,684,685
 363.547851562 374.943359375 363.547851562 374.943359375 359.096679688 369.114257812 c 4,686,687
 357.37890625 366.86328125 357.37890625 366.86328125 352.151367188 364.3828125 c 132,-1,688
 346.911132812 361.896484375 346.911132812 361.896484375 344.453125 360.963867188 c 132,-1,689
 341.979492188 360.0234375 341.979492188 360.0234375 341.041992188 359.336914062 c 132,-1,690
 340.100585938 358.649414062 340.100585938 358.649414062 340.891601562 357.750976562 c 4,691,692
 343.01171875 355.344726562 343.01171875 355.344726562 344.591796875 350.061523438 c 4,693,694
 348.620117188 336.583984375 348.620117188 336.583984375 338.2421875 324.275390625 c 4,695,696
 333.21484375 318.313476562 333.21484375 318.313476562 326.70703125 317.198242188 c 4,697,698
 324.09765625 316.750976562 324.09765625 316.750976562 316.49609375 316.849609375 c 132,-1,699
 308.89453125 316.947265625 308.89453125 316.947265625 306.640625 317.458007812 c 4,700,701
 303.951171875 318.068359375 303.951171875 318.068359375 300.24609375 319.95703125 c 132,-1,702
 296.537109375 321.846679688 296.537109375 321.846679688 296.000976562 321.514648438 c 132,-1,703
 295.565429688 321.24609375 295.565429688 321.24609375 292.801757812 316.470703125 c 132,-1,704
 290.0390625 311.696289062 290.0390625 311.696289062 290.0390625 311.212890625 c 132,-1,705
 290.0390625 310.822265625 290.0390625 310.822265625 288.006835938 307.77734375 c 132,-1,706
 285.974609375 304.733398438 285.974609375 304.733398438 283.001953125 303.327148438 c 4,707,708
 277.073242188 300.5234375 277.073242188 300.5234375 269.452148438 303.095703125 c 4,664,665
641.483398438 510.5390625 m 6,709,-1
 641.357421875 537.516601562 l 5,710,-1
 574.000976562 537.639648438 l 6,711,712
 506.64453125 537.763671875 506.64453125 537.763671875 506.26953125 537.388671875 c 132,-1,713
 505.895507812 537.014648438 505.895507812 537.014648438 508.196289062 534.267578125 c 4,714,715
 514.514648438 526.7265625 514.514648438 526.7265625 517.299804688 522.392578125 c 4,716,717
 518.233398438 520.938476562 518.233398438 520.938476562 518.663085938 520.439453125 c 132,-1,718
 519.091796875 519.940429688 519.091796875 519.940429688 521.090820312 516.764648438 c 132,-1,719
 523.065429688 513.624023438 523.065429688 513.624023438 524.206054688 511.881835938 c 132,-1,720
 525.325195312 510.170898438 525.325195312 510.170898438 525.903320312 508.875 c 132,-1,721
 526.482421875 507.578125 526.482421875 507.578125 530.453125 507.262695312 c 4,722,723
 544.305664062 506.162109375 544.305664062 506.162109375 553.900390625 504.755859375 c 4,724,725
 558.73828125 504.045898438 558.73828125 504.045898438 563.421875 503.571289062 c 4,726,727
 575.515625 502.342773438 575.515625 502.342773438 596.435546875 497.129882812 c 4,728,729
 604.23828125 495.186523438 604.23828125 495.186523438 606.4453125 494.740234375 c 4,730,731
 613.416015625 493.336914062 613.416015625 493.336914062 628.662109375 487.938476562 c 4,732,733
 634.032226562 486.03515625 634.032226562 486.03515625 635.498046875 485.694335938 c 132,-1,734
 636.967773438 485.350585938 636.967773438 485.350585938 638.916015625 484.466796875 c 132,-1,735
 640.868164062 483.583007812 640.868164062 483.583007812 641.239257812 483.572265625 c 4,736,737
 641.392578125 483.568359375 641.392578125 483.568359375 641.463867188 491.486328125 c 132,-1,738
 641.53515625 499.404296875 641.53515625 499.404296875 641.483398438 510.5390625 c 6,709,-1
403.458007812 497.721679688 m 4,739,740
 410.626953125 517.044921875 410.626953125 517.044921875 422.471679688 533.080078125 c 4,741,742
 425.326171875 536.944335938 425.326171875 536.944335938 424.916015625 537.356445312 c 132,-1,743
 424.502929688 537.767578125 424.502929688 537.767578125 391.573242188 537.641601562 c 6,744,-1
 358.642578125 537.516601562 l 5,745,-1
 358.500976562 533.521484375 l 5,746,-1
 358.360351562 529.52734375 l 5,747,-1
 361.430664062 527.067382812 l 6,748,749
 364.633789062 524.502929688 364.633789062 524.502929688 366.830078125 522.760742188 c 4,750,751
 382.424804688 510.390625 382.424804688 510.390625 397.61328125 495.623046875 c 4,752,753
 401.02734375 492.302734375 401.02734375 492.302734375 401.3828125 492.693359375 c 132,-1,754
 401.737304688 493.081054688 401.737304688 493.081054688 403.458007812 497.721679688 c 4,739,740
460.9375 569.743164062 m 5,755,-1
 464.927734375 572.428710938 l 5,756,-1
 466.9609375 571.04296875 l 6,757,758
 469 569.65234375 469 569.65234375 470.973632812 568.356445312 c 6,759,-1
 472.953125 567.057617188 l 5,760,-1
 565.8671875 567.057617188 l 5,761,-1
 658.78125 567.057617188 l 5,762,-1
 660.079101562 568.06640625 l 6,763,764
 661.379882812 569.078125 661.379882812 569.078125 665.0390625 571.7265625 c 132,-1,765
 668.663085938 574.350585938 668.663085938 574.350585938 671.38671875 576.361328125 c 4,766,767
 677.669921875 581.005859375 677.669921875 581.005859375 683.083984375 584.879882812 c 4,768,769
 686.509765625 587.329101562 686.509765625 587.329101562 689.415039062 589.518554688 c 132,-1,770
 692.381835938 591.750976562 692.381835938 591.750976562 694.921875 593.564453125 c 4,771,772
 707.096679688 602.263671875 707.096679688 602.263671875 713.142578125 606.974609375 c 4,773,774
 715.807617188 609.049804688 715.807617188 609.049804688 716.1796875 609.056640625 c 132,-1,775
 716.552734375 609.063476562 716.552734375 609.063476562 718.505859375 610.747070312 c 6,776,-1
 720.458984375 612.430664062 l 5,777,-1
 500 612.430664062 l 5,778,-1
 279.541015625 612.430664062 l 5,779,-1
 281.494140625 610.747070312 l 6,780,781
 283.447265625 609.063476562 283.447265625 609.063476562 283.841796875 609.056640625 c 132,-1,782
 284.236328125 609.049804688 284.236328125 609.049804688 286.771484375 607.061523438 c 4,783,784
 290.399414062 604.217773438 290.399414062 604.217773438 299.072265625 598.03515625 c 132,-1,785
 307.661132812 591.913085938 307.661132812 591.913085938 311.202148438 589.159179688 c 4,786,787
 313.567382812 587.3203125 313.567382812 587.3203125 314.165039062 587.077148438 c 132,-1,788
 314.763671875 586.83203125 314.763671875 586.83203125 317.171875 584.995117188 c 4,789,790
 325.966796875 578.288085938 325.966796875 578.288085938 326.431640625 578.288085938 c 132,-1,791
 326.724609375 578.288085938 326.724609375 578.288085938 329.350585938 576.212890625 c 132,-1,792
 331.985351562 574.129882812 331.985351562 574.129882812 335.435546875 571.696289062 c 132,-1,793
 338.89453125 569.254882812 338.89453125 569.254882812 340.223632812 568.170898438 c 6,794,-1
 341.552734375 567.087890625 l 5,795,-1
 399.25 567.072265625 l 5,796,-1
 456.948242188 567.057617188 l 5,797,-1
 460.9375 569.743164062 l 5,755,-1
750 694.987304688 m 5,798,-1
 750 747.721679688 l 5,799,-1
 716.552734375 747.721679688 l 5,800,-1
 683.10546875 747.721679688 l 5,801,-1
 683.10546875 717.692382812 l 5,802,-1
 683.10546875 687.663085938 l 5,803,-1
 607.91015625 687.663085938 l 5,804,-1
 532.71484375 687.663085938 l 5,805,-1
 532.71484375 717.692382812 l 5,806,-1
 532.71484375 747.721679688 l 5,807,-1
 499.755859375 747.721679688 l 5,808,-1
 466.796875 747.721679688 l 5,809,-1
 466.796875 717.692382812 l 5,810,-1
 466.796875 687.663085938 l 5,811,-1
 391.845703125 687.663085938 l 5,812,-1
 316.89453125 687.663085938 l 5,813,-1
 316.89453125 717.692382812 l 5,814,-1
 316.89453125 747.721679688 l 5,815,-1
 283.447265625 747.721679688 l 5,816,-1
 250 747.721679688 l 5,817,-1
 250 694.987304688 l 5,818,-1
 250 642.252929688 l 5,819,-1
 500 642.252929688 l 5,820,-1
 750 642.252929688 l 5,821,-1
 750 694.987304688 l 5,798,-1
EndSplineSet
EndChar

StartChar: N
Encoding: 78 78 49
Width: 1000
GlyphClass: 2
Flags: W
LayerCount: 2
Fore
SplineSet
314.259765625 1.12890625 m 6,0,1
 311.022460938 6.181640625 311.022460938 6.181640625 312.032226562 32.75390625 c 4,2,3
 313.1015625 60.9169921875 313.1015625 60.9169921875 321.615234375 87.892578125 c 4,4,5
 329.661132812 113.3828125 329.661132812 113.3828125 347.2109375 145.413085938 c 4,6,7
 357.963867188 165.03515625 357.963867188 165.03515625 394.64453125 202.767578125 c 4,8,9
 455.23828125 265.096679688 455.23828125 265.096679688 461.096679688 272.247070312 c 4,10,11
 478.452148438 293.427734375 478.452148438 293.427734375 488.556640625 322.928710938 c 4,12,13
 498.754882812 352.701171875 498.754882812 352.701171875 498.126953125 378.564453125 c 6,14,-1
 498.046875 381.854492188 l 5,15,-1
 494.018554688 378.758789062 l 6,16,17
 475.69921875 364.678710938 475.69921875 364.678710938 457.275390625 357.543945312 c 4,18,19
 427.5546875 346.033203125 427.5546875 346.033203125 409.423828125 336.731445312 c 4,20,21
 367.946289062 315.452148438 367.946289062 315.452148438 339.427734375 287.419921875 c 4,22,23
 321.306640625 269.608398438 321.306640625 269.608398438 309.330078125 251.520507812 c 4,24,25
 303.891601562 243.30859375 303.891601562 243.30859375 290.520507812 218.291992188 c 4,26,27
 276.571289062 192.192382812 276.571289062 192.192382812 269.987304688 185.6484375 c 4,28,29
 260.565429688 176.279296875 260.565429688 176.279296875 242.919921875 175.486328125 c 4,30,31
 229.626953125 174.888671875 229.626953125 174.888671875 219.0234375 181.103515625 c 4,32,33
 210.784179688 185.93359375 210.784179688 185.93359375 203.84765625 196.561523438 c 4,34,35
 200.482421875 201.717773438 200.482421875 201.717773438 199.8125 201.4609375 c 132,-1,36
 199.1328125 201.200195312 199.1328125 201.200195312 195.298828125 200.22265625 c 4,37,38
 184.051757812 197.350585938 184.051757812 197.350585938 172.10546875 196.944335938 c 6,39,-1
 164.280273438 196.677734375 l 5,40,-1
 158.921875 198.803710938 l 6,41,42
 137.606445312 207.262695312 137.606445312 207.262695312 126.950195312 216.655273438 c 4,43,44
 108.107421875 233.265625 108.107421875 233.265625 97.3876953125 255.229492188 c 4,45,46
 88.9775390625 272.458984375 88.9775390625 272.458984375 85.640625 300.333007812 c 4,47,48
 84.8388671875 307.029296875 84.8388671875 307.029296875 84.7451171875 318.505859375 c 132,-1,49
 84.6513671875 329.982421875 84.6513671875 329.982421875 85.365234375 334.014648438 c 4,50,51
 92.23828125 372.833007812 92.23828125 372.833007812 138.8203125 435.48046875 c 4,52,53
 170.42578125 477.98828125 170.42578125 477.98828125 184.575195312 506.622070312 c 132,-1,54
 198.71484375 535.239257812 198.71484375 535.239257812 198.735351562 551.997070312 c 4,55,56
 198.758789062 571.680664062 198.758789062 571.680664062 202.452148438 589.796875 c 4,57,58
 205.154296875 603.051757812 205.154296875 603.051757812 214.60546875 617.995117188 c 4,59,60
 218.845703125 624.700195312 218.845703125 624.700195312 221.971679688 629.668945312 c 4,61,62
 232.364257812 646.192382812 232.364257812 646.192382812 253.986328125 668.837890625 c 6,63,-1
 259.216796875 674.315429688 l 5,64,-1
 256.306640625 682.998046875 l 6,65,66
 245.530273438 715.162109375 245.530273438 715.162109375 241.015625 747.40234375 c 4,67,68
 235.84375 784.326171875 235.84375 784.326171875 238.091796875 817.267578125 c 6,69,-1
 238.365234375 821.271484375 l 5,70,-1
 242.83984375 819.649414062 l 6,71,72
 272.916015625 808.743164062 272.916015625 808.743164062 301.2109375 792.8984375 c 4,73,74
 351.907226562 764.509765625 351.907226562 764.509765625 393.551757812 720.873046875 c 4,75,76
 395.595703125 718.731445312 395.595703125 718.731445312 397.37890625 716.953125 c 132,-1,77
 399.163085938 715.17578125 399.163085938 715.17578125 400.25 714.193359375 c 132,-1,78
 401.3359375 713.209960938 401.3359375 713.209960938 401.420898438 713.3046875 c 4,79,80
 401.733398438 713.65234375 401.733398438 713.65234375 403.326171875 718.536132812 c 4,81,82
 419.155273438 767.063476562 419.155273438 767.063476562 460.83984375 798.786132812 c 6,83,-1
 464.893554688 801.870117188 l 5,84,-1
 469.544921875 798.374023438 l 6,85,86
 502.333007812 773.728515625 502.333007812 773.728515625 522.94921875 736.762695312 c 6,87,-1
 526.944335938 729.59765625 l 5,88,-1
 530.684570312 729.2890625 l 6,89,90
 601.159179688 723.475585938 601.159179688 723.475585938 660.262695312 694.282226562 c 4,91,92
 733.568359375 658.073242188 733.568359375 658.073242188 784.759765625 595.69921875 c 4,93,94
 810.790039062 563.982421875 810.790039062 563.982421875 835.501953125 519.512695312 c 4,95,96
 891.330078125 419.048828125 891.330078125 419.048828125 907.450195312 290.801757812 c 4,97,98
 912.0859375 253.9140625 912.0859375 253.9140625 915.583007812 166.534179688 c 4,99,100
 916.12109375 153.08203125 916.12109375 153.08203125 916.359375 76.568359375 c 6,101,-1
 916.599609375 0.0302734375 l 5,102,-1
 615.78125 0.0302734375 l 5,103,-1
 314.963867188 0.0302734375 l 5,104,-1
 314.259765625 1.12890625 l 6,0,1
857.432617188 39.458984375 m 6,105,106
 857.443359375 44.2392578125 857.443359375 44.2392578125 858.154296875 57.1591796875 c 4,107,108
 859.977539062 90.35546875 859.977539062 90.35546875 859.736328125 185.821289062 c 4,109,110
 859.53125 266.39453125 859.53125 266.39453125 858.963867188 273.223632812 c 4,111,112
 853.77734375 335.67578125 853.77734375 335.67578125 837.240234375 393.096679688 c 4,113,114
 819.625976562 454.256835938 819.625976562 454.256835938 797.040039062 499.541992188 c 4,115,116
 781.725585938 530.248046875 781.725585938 530.248046875 763.250976562 556.700195312 c 4,117,118
 752.76953125 571.705078125 752.76953125 571.705078125 745.5625 580.4453125 c 4,119,120
 714.55859375 618.034179688 714.55859375 618.034179688 667.526367188 646.873046875 c 132,-1,121
 620.494140625 675.711914062 620.494140625 675.711914062 568.115234375 689.250976562 c 4,122,123
 541.2265625 696.203125 541.2265625 696.203125 540.236328125 695.215820312 c 4,124,125
 540.0859375 695.063476562 540.0859375 695.063476562 541.021484375 689.331054688 c 4,126,127
 545.966796875 659.012695312 545.966796875 659.012695312 543.498046875 644.83203125 c 4,128,129
 541.252929688 631.94921875 541.252929688 631.94921875 529.038085938 631.025390625 c 4,130,131
 519.139648438 630.276367188 519.139648438 630.276367188 514.5546875 635.118164062 c 4,132,133
 511.254882812 638.602539062 511.254882812 638.602539062 511.237304688 650.176757812 c 4,134,135
 511.203125 670.783203125 511.203125 670.783203125 507.048828125 687.850585938 c 4,136,137
 499.720703125 717.947265625 499.720703125 717.947265625 480.00390625 742.706054688 c 4,138,139
 467.564453125 758.331054688 467.564453125 758.331054688 465.515625 758.331054688 c 4,140,141
 464.252929688 758.331054688 464.252929688 758.331054688 457.022460938 749.245117188 c 132,-1,142
 449.791992188 740.158203125 449.791992188 740.158203125 445.578125 733.275390625 c 4,143,144
 428.762695312 705.80859375 428.762695312 705.80859375 425.537109375 671.4296875 c 4,145,146
 424.827148438 663.849609375 424.827148438 663.849609375 424.333007812 662.123046875 c 4,147,148
 422.8671875 656.991210938 422.8671875 656.991210938 418.6171875 654.4921875 c 4,149,150
 416.258789062 653.106445312 416.258789062 653.106445312 409.66796875 653.106445312 c 132,-1,151
 403.078125 653.106445312 403.078125 653.106445312 400.278320312 654.48046875 c 4,152,153
 395.495117188 656.829101562 395.495117188 656.829101562 393.560546875 661.993164062 c 4,154,155
 391.266601562 668.119140625 391.266601562 668.119140625 392.509765625 672.615234375 c 4,156,157
 393.0390625 674.536132812 393.0390625 674.536132812 392.874023438 674.703125 c 4,158,159
 392.200195312 675.374023438 392.200195312 675.374023438 373.794921875 667.649414062 c 4,160,161
 365.838867188 664.30859375 365.838867188 664.30859375 347.443359375 654.848632812 c 4,162,163
 344.0546875 653.106445312 344.0546875 653.106445312 340.607421875 653.106445312 c 132,-1,164
 337.158203125 653.106445312 337.158203125 653.106445312 334.879882812 654.446289062 c 4,165,166
 326.045898438 659.638671875 326.045898438 659.638671875 325.303710938 670.022460938 c 4,167,168
 325.06640625 673.340820312 325.06640625 673.340820312 326.37890625 676.0234375 c 132,-1,169
 327.690429688 678.70703125 327.690429688 678.70703125 329.901367188 680.651367188 c 4,170,171
 334.594726562 684.78515625 334.594726562 684.78515625 364.868164062 699.307617188 c 4,172,173
 367.1875 700.420898438 367.1875 700.420898438 367.1875 700.892578125 c 4,174,175
 367.1875 702.276367188 367.1875 702.276367188 349.365234375 718.129882812 c 4,176,177
 317.690429688 746.301757812 317.690429688 746.301757812 279.418945312 766.25390625 c 4,178,179
 271.971679688 770.134765625 271.971679688 770.134765625 271.973632812 769.482421875 c 132,-1,180
 271.973632812 768.838867188 271.973632812 768.838867188 272.727539062 762.237304688 c 4,181,182
 279.954101562 699.081054688 279.954101562 699.081054688 307.908203125 644.073242188 c 4,183,184
 313.61328125 632.848632812 313.61328125 632.848632812 311.555664062 627.400390625 c 4,185,186
 309.696289062 622.474609375 309.696289062 622.474609375 304.403320312 618.594726562 c 132,-1,187
 299.110351562 614.71484375 299.110351562 614.71484375 294.198242188 614.674804688 c 4,188,189
 285.825195312 614.609375 285.825195312 614.609375 275.66796875 633.91015625 c 6,190,-1
 272.423828125 640.076171875 l 5,191,-1
 267.768554688 635.279296875 l 6,192,193
 259.305664062 626.557617188 259.305664062 626.557617188 252.532226562 615.264648438 c 4,194,195
 236.413085938 588.390625 236.413085938 588.390625 232.717773438 575.469726562 c 4,196,197
 230.275390625 566.927734375 230.275390625 566.927734375 231.266601562 554.127929688 c 6,198,-1
 232.049804688 544.015625 l 5,199,-1
 230.795898438 537.770507812 l 6,200,201
 225.65234375 512.1640625 225.65234375 512.1640625 210.93359375 487.80859375 c 4,202,203
 183.962890625 443.180664062 183.962890625 443.180664062 139.5234375 377.643554688 c 4,204,205
 125.978515625 357.66796875 125.978515625 357.66796875 119.453125 331.329101562 c 4,206,207
 117.1875 322.182617188 117.1875 322.182617188 117.1875 311.36328125 c 4,208,209
 117.1875 292.66015625 117.1875 292.66015625 122.39453125 277.700195312 c 4,210,211
 127.8359375 262.069335938 127.8359375 262.069335938 142.290039062 249.057617188 c 4,212,213
 151.838867188 240.463867188 151.838867188 240.463867188 160.403320312 236.319335938 c 4,214,215
 169.958007812 231.697265625 169.958007812 231.697265625 180.419921875 232.104492188 c 4,216,217
 188.392578125 232.4140625 188.392578125 232.4140625 196.2890625 235.75 c 4,218,219
 210.493164062 241.750976562 210.493164062 241.750976562 218.666992188 259.741210938 c 4,220,221
 229.680664062 283.987304688 229.680664062 283.987304688 237.716796875 285.495117188 c 4,222,223
 245.547851562 286.963867188 245.547851562 286.963867188 249.440429688 280.663085938 c 4,224,225
 252.479492188 275.747070312 252.479492188 275.747070312 251.729492188 270.751953125 c 4,226,227
 251.41796875 268.666015625 251.41796875 268.666015625 247.974609375 258.490234375 c 4,228,229
 241.389648438 239.032226562 241.389648438 239.032226562 228.288085938 221.501953125 c 6,230,-1
 224.1171875 215.920898438 l 5,231,-1
 225.387695312 212.345703125 l 6,232,233
 227.520507812 206.342773438 227.520507812 206.342773438 230.573242188 202.8671875 c 4,234,235
 237.515625 194.9609375 237.515625 194.9609375 248.703125 205.587890625 c 4,236,237
 254.372070312 210.97265625 254.372070312 210.97265625 264.063476562 230.254882812 c 4,238,239
 287.536132812 276.955078125 287.536132812 276.955078125 309.01953125 301.393554688 c 4,240,241
 328.65625 323.734375 328.65625 323.734375 358.213867188 344.61328125 c 4,242,243
 384.6953125 363.319335938 384.6953125 363.319335938 411.704101562 374.483398438 c 4,244,245
 441.793945312 386.921875 441.793945312 386.921875 455.810546875 394.713867188 c 4,246,247
 496.21484375 417.1796875 496.21484375 417.1796875 515.7890625 460.65625 c 4,248,249
 522.705078125 476.014648438 522.705078125 476.014648438 524.442382812 491.241210938 c 4,250,251
 524.958984375 495.767578125 524.958984375 495.767578125 524.974609375 505.163085938 c 132,-1,252
 524.990234375 514.557617188 524.990234375 514.557617188 524.486328125 517.544921875 c 4,253,254
 522.260742188 530.736328125 522.260742188 530.736328125 539.365234375 531.641601562 c 4,255,256
 544.307617188 531.90234375 544.307617188 531.90234375 547.854492188 530.825195312 c 132,-1,257
 551.40234375 529.747070312 551.40234375 529.747070312 553.946289062 527.203125 c 4,258,259
 559.974609375 521.174804688 559.974609375 521.174804688 558.620117188 502.908203125 c 4,260,261
 557.158203125 483.204101562 557.158203125 483.204101562 551.911132812 465.118164062 c 4,262,263
 544.67578125 440.185546875 544.67578125 440.185546875 530.1796875 418.609375 c 6,264,-1
 527.801757812 415.068359375 l 5,265,-1
 529.021484375 411.041015625 l 6,266,267
 538.522460938 379.678710938 538.522460938 379.678710938 532.671875 343.598632812 c 4,268,269
 527.125 309.399414062 527.125 309.399414062 509.645507812 277.618164062 c 4,270,271
 492.65234375 246.721679688 492.65234375 246.721679688 448.2421875 209.217773438 c 4,272,273
 414.291015625 180.545898438 414.291015625 180.545898438 394.30859375 155.547851562 c 4,274,275
 361.701171875 114.754882812 361.701171875 114.754882812 353.3125 73.234375 c 4,276,277
 349.455078125 54.13671875 349.455078125 54.13671875 350.430664062 39.3134765625 c 6,278,-1
 350.733398438 34.6982421875 l 5,279,-1
 604.077148438 34.6982421875 l 5,280,-1
 857.421875 34.6982421875 l 5,281,-1
 857.432617188 39.458984375 l 6,105,106
153.3828125 291.360351562 m 132,-1,283
 151.249023438 292.143554688 151.249023438 292.143554688 149.39453125 294.0546875 c 4,284,285
 144.125 299.485351562 144.125 299.485351562 146.400390625 312.774414062 c 4,286,287
 150.89453125 339.015625 150.89453125 339.015625 173.20703125 355.62109375 c 4,288,289
 180.374023438 360.955078125 180.374023438 360.955078125 185.306640625 361.014648438 c 4,290,291
 195.181640625 361.134765625 195.181640625 361.134765625 200.755859375 349.811523438 c 4,292,293
 202.392578125 346.48828125 202.392578125 346.48828125 202.375976562 343.302734375 c 132,-1,294
 202.359375 340.1171875 202.359375 340.1171875 201.48046875 338.475585938 c 4,295,296
 199.211914062 334.240234375 199.211914062 334.240234375 193.801757812 330.56640625 c 4,297,298
 187.137695312 326.041015625 187.137695312 326.041015625 183.286132812 320.247070312 c 4,299,300
 178.245117188 312.666992188 178.245117188 312.666992188 178.229492188 306.356445312 c 132,-1,301
 178.212890625 299.954101562 178.212890625 299.954101562 174.801757812 295.829101562 c 4,302,303
 173.3046875 294.01953125 173.3046875 294.01953125 170.086914062 292.435546875 c 132,-1,304
 166.8671875 290.850585938 166.8671875 290.850585938 161.192382812 290.713867188 c 132,-1,282
 155.517578125 290.576171875 155.517578125 290.576171875 153.3828125 291.360351562 c 132,-1,283
270.15234375 501.986328125 m 4,305,306
 263.8828125 504.21484375 263.8828125 504.21484375 260.740234375 508.487304688 c 4,307,308
 255.26953125 515.927734375 255.26953125 515.927734375 259.34765625 526.504882812 c 132,-1,309
 263.358398438 536.905273438 263.358398438 536.905273438 270.37890625 548.0234375 c 4,310,311
 287.607421875 575.307617188 287.607421875 575.307617188 316.708984375 591.532226562 c 4,312,313
 328.458984375 598.083007812 328.458984375 598.083007812 338.064453125 601.048828125 c 4,314,315
 346.181640625 603.553710938 346.181640625 603.553710938 351.825195312 600.926757812 c 4,316,317
 360.55078125 596.86328125 360.55078125 596.86328125 361.21875 584.385742188 c 4,318,319
 361.447265625 580.118164062 361.447265625 580.118164062 360.141601562 577.450195312 c 132,-1,320
 358.834960938 574.779296875 358.834960938 574.779296875 357.3125 573.5 c 132,-1,321
 355.787109375 572.215820312 355.787109375 572.215820312 348.140625 568.387695312 c 6,322,-1
 340.493164062 564.55859375 l 5,323,-1
 342.280273438 560.89453125 l 6,324,325
 347.08984375 551.034179688 347.08984375 551.034179688 344.280273438 539.336914062 c 4,326,327
 341.008789062 525.719726562 341.008789062 525.719726562 331.86328125 520.326171875 c 4,328,329
 325.60546875 516.634765625 325.60546875 516.634765625 315.260742188 517.15625 c 132,-1,330
 304.916992188 517.677734375 304.916992188 517.677734375 298.500976562 522.008789062 c 6,331,-1
 296.416015625 523.416015625 l 5,332,-1
 295.385742188 521.96875 l 6,333,334
 294.357421875 520.526367188 294.357421875 520.526367188 290.99609375 513.485351562 c 4,335,336
 286.438476562 503.939453125 286.438476562 503.939453125 282.032226562 501.938476562 c 4,337,338
 276.874023438 499.595703125 276.874023438 499.595703125 270.15234375 501.986328125 c 4,305,306
EndSplineSet
EndChar

